<?xml version="1.0" encoding="utf-8"?>
<!-- Generator: Adobe Illustrator 26.3.1, SVG Export Plug-In . SVG Version: 6.00 Build 0)  -->
<svg version="1.1" id="Layer_1" xmlns="http://www.w3.org/2000/svg" xmlns:xlink="http://www.w3.org/1999/xlink" x="0px" y="0px"
	 viewBox="0 0 773 699" style="enable-background:new 0 0 773 699;" xml:space="preserve">
<style type="text/css">
	.st0{display:none;}
	.st1{display:inline;fill:#8B95CC;}
	.st2{display:inline;}
	.st3{fill:#BAD1C3;}
	.st4{display:inline;fill:#F1FBED;}
	.st5{display:inline;fill:#9CA3DB;}
	.st6{display:inline;fill:#BDCCD4;}
	.st7{fill:#F9A03F;}
	.st8{fill:#FFFFFF;}
	.st9{fill:#F1FBED;}
	.st10{opacity:0.2;fill:url(#SVGID_1_);enable-background:new    ;}
</style>
<g id="Layer_1_00000042700427122550223860000016171415287862758302_" class="st0">
	<path class="st1" d="M665.7,747H104.5c-30.8,0-56.4-23.9-58.3-54.7L13.7,188.2C11.5,154.5,38.3,96,72.1,96h626.1
		c33.8,0,60.5,58.5,58.3,92.2L724,692.3C722.1,723.1,696.5,747,665.7,747z"/>
	<g class="st2">
		<path class="st3" d="M600,216.6h-24.7l0.7,0.4l-43.7,26.7c-111,67.9-190.7,177.6-218.8,304.6c-0.4,1.8-0.8,3.6-1.2,5.5l0,0
			c-5.1,24.5-33.4,35.9-54.6,22l-103.1-67.7c-8.9-5.8-16.6-12.9-23-20.8l3.3,72.2c2.5,54.2,47.1,96.9,101.4,96.9h297.6
			c54.3,0,98.9-42.7,101.4-96.9l13.3-292C649.9,239.8,627.8,216.6,600,216.6z"/>
		<path class="st3" d="M170.2,216.6c-27.7,0-49.8,23.1-48.6,50.8l4,88.4c17.6-50.5,43.3-97.5,76.1-139.2L170.2,216.6L170.2,216.6z"
			/>
	</g>
	<path class="st4" d="M154.6,508.1l103.1,67.7c21.1,13.9,49.4,2.5,54.6-22l0,0c0.4-1.8,0.8-3.7,1.2-5.5
		c28.2-127,107.8-236.7,218.8-304.6L576,217l-0.7-0.4H201.7c-32.8,41.7-58.5,88.7-76.1,139.2l6,131.5
		C138,495.2,145.8,502.3,154.6,508.1z"/>
	<path class="st4" d="M441.1,459.1l44.1-29.7c42.8-28.9,100.9-17.6,129.8,25.2l0,0c28.9,42.8,17.6,100.9-25.2,129.8l-44.1,29.7
		c-42.8,28.9-100.9,17.6-129.8-25.2l0,0C387.1,546.1,398.3,488,441.1,459.1z"/>
	<g class="st2">
		<path d="M458.2,548.4c0,30.5-35,52.1-78.1,52.1S302,578.9,302,548.4s35-4.2,78.1-4.2S458.2,517.9,458.2,548.4z"/>
		<g>
			<ellipse transform="matrix(0.3302 -0.9439 0.9439 0.3302 -41.1207 733.8803)" cx="496.5" cy="395.9" rx="82.6" ry="28.1"/>
			<ellipse transform="matrix(0.9439 -0.3302 0.3302 0.9439 -115.3796 112.5475)" cx="273.6" cy="395.9" rx="28.1" ry="82.6"/>
		</g>
	</g>
	<path class="st5" d="M-622.3,747h-561.2c-30.8,0-56.4-23.9-58.3-54.7l-32.5-504.1c-2.2-33.7,24.6-92.2,58.3-92.2h626.1
		c33.8,0,60.5,58.5,58.3,92.2l-32.5,504.1C-565.9,723.1-591.5,747-622.3,747z"/>
	<path class="st6" d="M-754.1,656.4h-297.6c-54.3,0-98.9-42.7-101.4-96.9l-13.3-292c-1.3-27.7,20.9-50.8,48.6-50.8H-688
		c27.7,0,49.8,23.1,48.6,50.8l-13.3,292C-655.1,613.7-699.8,656.4-754.1,656.4z"/>
	<path class="st4" d="M-1030.3,575.8l-103.1-67.7c-35.2-23.1-52.2-65.5-42.5-106l0,0c27.9-116.7,98.1-218.5,197.3-286l34-23.1
		L-712,217l-43.7,26.7c-111,67.9-190.7,177.6-218.8,304.6c-0.4,1.8-0.8,3.6-1.2,5.5l0,0C-980.9,578.3-1009.2,589.7-1030.3,575.8z"/>
	<path class="st4" d="M-846.9,459.1l44.1-29.7c42.8-28.9,100.9-17.6,129.8,25.2l0,0c28.9,42.8,17.6,100.9-25.2,129.8l-44.1,29.7
		c-42.8,28.9-100.9,17.6-129.8-25.2l0,0C-900.9,546.1-889.7,488-846.9,459.1z"/>
	<g class="st2">
		<path d="M-829.8,548.4c0,30.5-35,52.1-78.1,52.1s-78.1-21.6-78.1-52.1s35-4.2,78.1-4.2C-864.7,544.3-829.8,517.9-829.8,548.4z"/>
		<g>
			<ellipse transform="matrix(0.3302 -0.9439 0.9439 0.3302 -903.788 -481.8712)" cx="-791.4" cy="395.9" rx="82.6" ry="28.1"/>
			<ellipse transform="matrix(0.9439 -0.3302 0.3302 0.9439 -187.6229 -312.7498)" cx="-1014.4" cy="395.9" rx="28.1" ry="82.6"/>
		</g>
	</g>
</g>
<path d="M125,669.9c-33.5,0-61.5-27.2-63.7-62L31,122.4c-1.6-25.5,10.6-60.2,28.5-80.7c10.7-12.3,22.9-18.8,35.2-18.8h583.7
	c12.3,0,24.5,6.5,35.2,18.8c17.8,20.4,30.1,55.1,28.5,80.7l-30.2,485.5c-2.2,34.8-30.1,62-63.7,62H125z"/>
<path class="st7" d="M633.5,642.3H139.6c-27.1,0-49.6-21.8-51.4-49.7L59.6,134.3c-1.9-30.6,21.6-83.8,51.4-83.8h551
	c29.7,0,53.2,53.2,51.4,82.2L684.9,591C683.1,620.5,660.6,642.3,633.5,642.3z"/>
<path class="st8" d="M593.4,157.9c-4.1-1-7.3-1.8-10.3-2.6l0,0c-3.7-0.9-7.3-1.7-12.3-2.8c-0.1-0.1-0.1-0.1-0.2-0.2
	c-5.2-1.1-10.5-2.2-15.7-3.2l-0.7-0.2l-0.1,0C443.2,127.6,332,128.1,221,151l-0.1,0c-9.8,2.1-19.5,4.4-29.2,6.9
	c-24.9,5.3-44.9,31.1-44.8,54.8c0.3,7.1,0.7,14.2,1.1,21.3l0,0l11,224.8c3.1,46.5,43.9,97,94,104.5c93,15.5,185.9,15.5,278.9,0
	c48.5-9.6,93-56.7,94-104.5c4-82,8.1-164,12.2-246C640.6,188.1,616.6,164.6,593.4,157.9z"/>
<path class="st9" d="M593.5,157.9c-9.1-2.3-13.7-3.4-22.9-5.4c0.2,0.2,0.4,0.3,0.6,0.5c-13.8,5.4-27.3,11.2-40.7,17.3
	C416,222.7,348.7,352.4,325.3,465.4c-0.4,1.8-0.7,3.6-1.1,5.4l0,0c-2.7,23.8-32.9,31.2-51.1,18c-31.5-24.5-63.3-48.7-95.8-72.1
	c-7.8-5.2-15.5-12.3-21.2-19.6c1,20.6,2,41.1,3,61.7c3.1,46.5,43.9,97,94,104.5c93,15.5,185.9,15.5,278.9,0
	c48.5-9.6,93-56.7,94-104.5c4-82,8.1-164,12.2-246C640.7,188.1,616.7,164.6,593.5,157.9z M584.1,487.3c-13.7,11.3-27.3,22.6-40.9,34
	c-37.2,32.3-94.7,27.4-121.5-14l0,0c-25.1-40.7-18.5-102,23.7-130.8c13.7-9.9,27.5-19.8,41.3-29.6c38.6-27.3,94.5-13.5,120.8,22.8
	l0,0C635.2,408.1,619.2,458.6,584.1,487.3z"/>
<path class="st9" d="M191.8,157.9c-24.9,5.3-44.9,31.1-44.8,54.8c1.2,24.5,2.5,49,3.7,73.4C169.1,238.6,193,194,221,151
	C211.2,153.1,201.5,155.4,191.8,157.9z"/>
<path class="st8" d="M530.6,170.2c13.4-6.2,26.9-11.9,40.7-17.3c-0.2-0.2-0.4-0.3-0.6-0.5C454.3,127.6,337.6,127,221.1,151
	c-28,43-51.9,87.6-70.3,135.1c1.8,37,3.7,73.9,5.5,110.9c5.7,7.3,13.4,14.3,21.2,19.6c32.5,23.3,64.2,47.6,95.8,72.1
	c18.2,13.2,48.4,5.9,51.1-18l0,0c0.4-1.8,0.7-3.6,1.1-5.4C348.8,352.3,416,222.6,530.6,170.2z"/>
<path class="st8" d="M607.4,369.7c-26.3-36.4-82.2-50.1-120.8-22.8c-13.8,9.8-27.6,19.7-41.3,29.6c-42.2,28.8-48.7,90.1-23.7,130.8
	l0,0c26.9,41.4,84.3,46.3,121.5,14c13.6-11.4,27.2-22.7,40.9-34C619.2,458.6,635.2,408.1,607.4,369.7L607.4,369.7z"/>
<radialGradient id="SVGID_1_" cx="436.7751" cy="772.5179" r="247.4716" gradientTransform="matrix(0.9323 0 0 0.8846 -14.4554 -329.5818)" gradientUnits="userSpaceOnUse">
	<stop  offset="0" style="stop-color:#F1FBED"/>
	<stop  offset="1" style="stop-color:#9CA3DB"/>
</radialGradient>
<path class="st10" d="M150.1,275c-0.4-8.5-0.6-12.8-1.1-21.2c162.5-25.3,324.7-25.3,487.2,0c-0.4,8.5-0.6,12.7-1.1,21.2
	C473.4,255.2,311.9,255.2,150.1,275z M637,239.6c0.4-8.5,0.6-12.7,1.1-21.1c-163.7-34.8-327-34.8-490.7,0c0.4,8.4,0.6,12.7,1.1,21.1
	C311.4,210.5,474,210.5,637,239.6z M631.6,346.3c0.4-8.6,0.6-12.9,1.1-21.5c-160-7.1-320-7.1-480.1,0c0.4,8.6,0.6,12.9,1.1,21.5
	C313,344.5,472.3,344.5,631.6,346.3z M637.8,204.2c-1.2-8.4-5.9-18-11.6-24.5c-155.8-40-311.4-40-467.2,0
	c-5.6,6.5-10.3,16.1-11.6,24.5C311.1,165.8,474.2,165.8,637.8,204.2z M633.4,310.5c0.4-8.6,0.6-12.8,1.1-21.4
	c-161.3-16.1-322.4-16.1-483.6,0c0.4,8.5,0.6,12.8,1.1,21.4C312.4,299.9,472.9,299.9,633.4,310.5z M201.8,537.7
	c127.2,26.9,254.5,26.9,381.7,0c9.6-8.2,18-17.7,24.9-28.1c-143.8,29.8-287.6,29.8-431.4,0C183.8,520,192.2,529.4,201.8,537.7z
	 M617.6,492.9c3.4-7.6,5.9-15.4,7.3-23.3c-154.9,26.2-309.6,26.2-464.4,0c1.4,7.9,3.9,15.7,7.3,23.3
	C317.7,522.1,467.6,522.1,617.6,492.9z M629.9,382.3c0.4-8.7,0.6-13,1.1-21.6c-158.8,1.6-317.7,1.6-476.5,0c0.4,8.6,0.6,13,1.1,21.6
	C313.6,389,471.7,389,629.9,382.3z M157.2,418.5c157,15.1,313.8,15.1,470.8,0c0.4-8.7,0.6-13.1,1.1-21.7
	c-157.7,10.1-315.3,10.1-473,0c0,0.1,0,0.2,0,0.3C156.6,405.6,156.8,409.9,157.2,418.5z M626.3,454.9c0.4-8.8,0.6-13.1,1.1-21.8
	c-156.5,18.4-312.9,18.4-469.4,0c0.4,8.7,0.6,13.1,1.1,21.8C314.8,478,470.5,478,626.3,454.9z"/>
<path d="M396.8,411.4c-26.2,0-51.3-10.1-74.1-14.3c-14.6-2.7-23.9,18.3-14.2,31.8c18,25.1,50.8,41.9,88.3,41.9s70.3-16.8,88.3-41.9
	c9.7-13.5,0.4-34.5-14.2-31.8C448.1,401.3,423.1,411.4,396.8,411.4z"/>
<ellipse transform="matrix(0.1602 -0.9871 0.9871 0.1602 -100.8703 520.2412)" cx="255.3" cy="319.4" rx="42.5" ry="42.5"/>
<circle cx="538.3" cy="319.4" r="42.5"/>
</svg>
