<?xml version="1.0" encoding="utf-8"?>
<!-- Generator: Adobe Illustrator 26.3.1, SVG Export Plug-In . SVG Version: 6.00 Build 0)  -->
<svg version="1.1" id="Layer_1" xmlns="http://www.w3.org/2000/svg" xmlns:xlink="http://www.w3.org/1999/xlink" x="0px" y="0px"
	 viewBox="0 0 2075.9 876.3" style="enable-background:new 0 0 2075.9 876.3;" xml:space="preserve">
<style type="text/css">
	.st0{fill:#FFFFFF;}
	.st1{display:none;}
	.st2{display:inline;fill:#8B95CC;}
	.st3{display:inline;}
	.st4{fill:#BAD1C3;}
	.st5{display:inline;fill:#F1FBED;}
	.st6{display:inline;fill:#9CA3DB;}
	.st7{display:inline;fill:#BDCCD4;}
	.st8{fill:#F9A03F;}
	.st9{fill:#F1FBED;}
	.st10{opacity:0.2;fill:url(#SVGID_1_);enable-background:new    ;}
</style>
<polygon class="st0" points="985.9,551.6 985.9,542.2 967.1,542.2 967.1,532.8 957.7,532.8 957.7,523.4 948.3,523.4 948.3,504.6 
	938.9,504.6 938.9,485.7 929.5,485.7 929.5,333.3 938.9,333.3 938.9,305.1 948.3,305.1 948.3,286.2 957.7,286.2 957.7,276.8 
	967.1,276.8 967.1,267.4 985.9,267.4 985.9,258 1072.3,258 1072.3,267.4 1081.7,267.4 1081.7,276.8 1091.1,276.8 1091.1,286.2 
	1100.4,286.2 1100.4,305.1 1109.8,305.1 1109.8,410.4 1100.4,410.4 1100.4,419.8 1042.3,419.8 1042.3,410.4 1032.9,410.4 
	1032.9,363.3 1025.3,363.3 1025.3,372.7 1015.9,372.7 1015.9,446.3 1025.3,446.3 1025.3,465.1 1042.3,465.1 1042.3,455.7 
	1051.7,455.7 1051.7,436.9 1109.8,436.9 1109.8,446.3 1119.2,446.3 1119.2,514 1109.8,514 1109.8,523.4 1100.4,523.4 1100.4,532.8 
	1091.1,532.8 1091.1,542.2 1072.3,542.2 1072.3,551.6 "/>
<path class="st0" d="M1161.8,551.6v-9.4H1143v-9.4h-9.4v-9.4h-9.4v-18.8h-9.4v-28.2h-9.4v-143h9.4v-28.3h9.4v-18.9h9.4v-9.4h9.4
	v-9.4h18.8V258h95.8v9.4h18.8v9.4h9.4v9.4h9.4v18.9h9.4v28.2h9.4v143h-9.4v28.2h-9.4v18.8h-9.4v9.4h-9.4v9.4h-18.8v9.4L1161.8,551.6
	L1161.8,551.6z M1218.2,446.3v-9.4h9.4v-54.7h-9.4v-9.4h-17v9.4h-9.4v54.7h9.4v9.4h9.4H1218.2z"/>
<path class="st0" d="M1330.2,551.6v-9.4h-18.8v-18.8h-9.4V286.2h9.4v-18.8h18.8V258h95.8v9.4h18.8v9.4h9.4v9.4h9.4v9.4h9.4v9.4h9.4
	v28.2h9.4v143h-9.4v28.2h-9.4v9.4h-9.4v9.4h-9.4v9.4h-9.4v9.4h-9.4v9.4h-105.2L1330.2,551.6L1330.2,551.6z M1396,455.7v-9.4h9.4v-83
	h-9.4v-9.4h-7.6v101.8L1396,455.7L1396,455.7z"/>
<polygon class="st0" points="1508,551.6 1508,542.2 1498.6,542.2 1498.6,532.8 1489.2,532.8 1489.2,523.4 1479.8,523.4 
	1479.8,286.2 1489.2,286.2 1489.2,276.8 1498.6,276.8 1498.6,267.4 1508,267.4 1508,258 1622.6,258 1622.6,267.4 1632,267.4 
	1632,276.8 1641.4,276.8 1641.4,335.1 1566.2,335.1 1566.2,371 1622.6,371 1622.6,380.4 1632,380.4 1632,429.2 1622.6,429.2 
	1622.6,438.6 1566.2,438.6 1566.2,474.6 1632,474.6 1632,484 1641.4,484 1641.4,542.2 1632,542.2 1632,551.6 "/>
<path class="st0" d="M922.8,837.7V537h120.6c41.9,0,74.8,21.6,88.1,57.9c10.8,29.4,5.9,61.6-11.8,85.2c10.8,9.6,19.2,21.8,24.4,36.1
	c6.9,18.6,7.9,39.5,3,58.7c-10,38.8-41.4,62.8-81.8,62.8H922.8z M1036.1,742.8c4.3,0,6.5-2,6.5-6.1c0-5.7-4.4-5.7-5.8-5.7h-3.5v11.8
	H1036.1z M1033.3,639c0.8-0.8,1.3-2,1.2-3.5c0-1.5-0.4-2.4-1.2-2.9V639z"/>
<path class="st0" d="M1253.3,847.8c-31.2,0-60.3-11.1-81.9-31.2c-24.4-22.7-37.3-54.6-37.3-92.5V537h110.5v186.7
	c0,9.1,4.4,13.2,8.7,13.2c4,0,8.4-4.1,8.4-13.2V537h110.5v187.1c0,37.8-12.9,69.8-37.2,92.4C1313.3,836.7,1284.3,847.8,1253.3,847.8
	z"/>
<path class="st0" d="M1253.3,847.8c-31.2,0-60.3-11.1-81.9-31.2c-24.4-22.7-37.3-54.6-37.3-92.5V537h110.5v186.7
	c0,9.1,4.4,13.2,8.7,13.2c4,0,8.4-4.1,8.4-13.2V537h110.5v187.1c0,37.8-12.9,69.8-37.2,92.4C1313.3,836.7,1284.3,847.8,1253.3,847.8
	z M1181.1,724.1c0,24.4,7.7,44.5,22.3,58c13,12,30.7,18.7,50,18.7c19.1,0,36.7-6.6,49.6-18.6c14.6-13.6,22.3-33.6,22.3-58V584h-16.5
	v139.7c0,22.3-9.4,36.4-17.2,44.2c-10.2,10.2-24.1,16-38.1,16c-14.9,0-29.3-6.3-39.6-17.3c-10.5-11.2-16.1-26.1-16.1-43V584h-16.5
	v140.1H1181.1z"/>
<path class="st0" d="M1364.9,837.7V537h106.9c76.5,0.9,132,64.1,132,150.4s-55.5,149.5-132,150.4h-0.1L1364.9,837.7L1364.9,837.7z
	 M1475.4,735.7c2.4-2.3,4.6-5.1,6.6-8.5c6-10.2,9.4-24.8,9.4-39.8c0-15.1-3.4-29.6-9.4-39.8c-2-3.4-4.2-6.2-6.6-8.5V735.7z"/>
<path class="st0" d="M1593.6,837.7V537h106.9c76.5,0.9,132,64.1,132,150.4s-55.5,149.5-132,150.4h-0.1L1593.6,837.7L1593.6,837.7z
	 M1704.1,735.7c2.4-2.3,4.6-5.1,6.6-8.5c6-10.2,9.4-24.8,9.4-39.8c0-15.1-3.4-29.6-9.4-39.8c-2-3.4-4.2-6.2-6.6-8.5V735.7z"/>
<polygon class="st0" points="1865.2,837.7 1865.2,724.6 1780.6,537 1898.3,537 1920.6,597.3 1942.6,537 2060.3,537 1975.7,724.6 
	1975.7,837.7 "/>
<g id="Layer_1_00000042700427122550223860000016171415287862758302_" class="st1">
	<path class="st2" d="M1588.5,1005h-561.2c-30.8,0-56.4-23.9-58.3-54.7l-32.5-504.1c-2.2-33.7,24.6-92.2,58.4-92.2H1621
		c33.8,0,60.5,58.5,58.3,92.2l-32.5,504.1C1644.9,981.1,1619.3,1005,1588.5,1005z"/>
	<g class="st3">
		<path class="st4" d="M1522.8,474.6h-24.7l0.7,0.4l-43.7,26.7c-111,67.9-190.7,177.6-218.8,304.6c-0.4,1.8-0.8,3.6-1.2,5.5l0,0
			c-5.1,24.5-33.4,35.9-54.6,22l-103.1-67.7c-8.9-5.8-16.6-12.9-23-20.8l3.3,72.2c2.5,54.2,47.1,96.9,101.4,96.9h297.6
			c54.3,0,98.9-42.7,101.4-96.9l13.3-292C1572.7,497.8,1550.6,474.6,1522.8,474.6z"/>
		<path class="st4" d="M1093,474.6c-27.7,0-49.8,23.1-48.6,50.8l4,88.4c17.6-50.5,43.3-97.5,76.1-139.2H1093L1093,474.6z"/>
	</g>
	<path class="st5" d="M1077.4,766.1l103.1,67.7c21.1,13.9,49.4,2.5,54.6-22l0,0c0.4-1.8,0.8-3.7,1.2-5.5
		c28.2-127,107.8-236.7,218.8-304.6l43.7-26.7l-0.7-0.4h-373.6c-32.8,41.7-58.5,88.7-76.1,139.2l6,131.5
		C1060.8,753.2,1068.6,760.3,1077.4,766.1z"/>
	<path class="st5" d="M1363.9,717.1l44.1-29.7c42.8-28.9,100.9-17.6,129.8,25.2l0,0c28.9,42.8,17.6,100.9-25.2,129.8l-44.1,29.7
		c-42.8,28.9-100.9,17.6-129.8-25.2l0,0C1309.9,804.1,1321.1,746,1363.9,717.1z"/>
	<g class="st3">
		<path d="M1381,806.4c0,30.5-35,52.1-78.1,52.1s-78.1-21.6-78.1-52.1s35-4.2,78.1-4.2S1381,775.9,1381,806.4z"/>
		<g>
			<ellipse transform="matrix(0.3302 -0.9439 0.9439 0.3302 333.4905 1777.7092)" cx="1419.4" cy="653.9" rx="82.6" ry="28.1"/>
			<ellipse transform="matrix(0.9439 -0.3302 0.3302 0.9439 -148.8086 431.7349)" cx="1196.4" cy="653.9" rx="28.1" ry="82.6"/>
		</g>
	</g>
	<path class="st6" d="M300.5,1005h-561.2c-30.8,0-56.4-23.9-58.3-54.7l-32.5-504.1c-2.2-33.7,24.6-92.2,58.3-92.2h626.1
		c33.8,0,60.5,58.5,58.3,92.2l-32.5,504.1C356.9,981.1,331.3,1005,300.5,1005z"/>
	<path class="st7" d="M168.7,914.4h-297.6c-54.3,0-98.9-42.7-101.4-96.9l-13.3-292c-1.3-27.7,20.9-50.8,48.6-50.8h429.8
		c27.7,0,49.8,23.1,48.6,50.8l-13.3,292C267.7,871.7,223,914.4,168.7,914.4z"/>
	<path class="st5" d="M-107.5,833.8l-103.1-67.7c-35.2-23.1-52.2-65.5-42.5-106l0,0c27.9-116.7,98.1-218.5,197.3-286l34-23.1
		l232.6,124l-43.7,26.7C56.1,569.6-23.6,679.3-51.7,806.3c-0.4,1.8-0.8,3.6-1.2,5.5l0,0C-58.1,836.3-86.4,847.7-107.5,833.8z"/>
	<path class="st5" d="M75.9,717.1l44.1-29.7c42.8-28.9,100.9-17.6,129.8,25.2l0,0c28.9,42.8,17.6,100.9-25.2,129.8l-44.1,29.7
		C137.7,901,79.6,889.7,50.7,846.9l0,0C21.9,804.1,33.1,746,75.9,717.1z"/>
	<g class="st3">
		<path d="M93,806.4c0,30.5-35,52.1-78.1,52.1s-78.1-21.6-78.1-52.1s35-4.2,78.1-4.2C58.1,802.3,93,775.9,93,806.4z"/>
		<g>
			<ellipse transform="matrix(0.3302 -0.9439 0.9439 0.3302 -529.1763 561.9811)" cx="131.4" cy="653.9" rx="82.6" ry="28.1"/>
			<ellipse transform="matrix(0.9439 -0.3302 0.3302 0.9439 -221.0521 6.4374)" cx="-91.6" cy="653.9" rx="28.1" ry="82.6"/>
		</g>
	</g>
</g>
<path d="M944.5,348.3h9.4v-28.2h9.4v-18.8h9.4v-9.4h9.4v-9.4h18.8v-9.4h56.4v9.4h9.4v9.4h9.4v9.4h9.4v18.8h9.4v75.3h-9.4v9.4h-28.2
	v-9.4h-9.4v-47.1h-9.4v-18.8h-18.8v9.4h-9.4v18.8h-9.4v103.6h9.4v18.8h9.4v9.4h28.2v-9.4h9.4v-9.4h9.4v-18.8h28.2v9.4h9.4V499h-9.4
	v9.4h-9.4v9.4h-9.4v9.4h-18.8v9.4h-56.4v-9.4h-18.8v-9.4h-9.4v-9.4h-9.4v-18.8h-9.4v-18.8h-9.4L944.5,348.3L944.5,348.3z"/>
<path d="M1120.4,348.3h9.4v-28.2h9.4v-18.8h9.4v-9.4h9.4v-9.4h18.8v-9.4h65.8v9.4h18.8v9.4h9.4v9.4h9.4v18.8h9.4v28.2h9.4v113h-9.4
	v28.2h-9.4v18.8h-9.4v9.4h-9.4v9.4h-18.8v9.4h-65.8v-9.4H1158v-9.4h-9.4v-9.4h-9.4v-18.8h-9.4v-28.2h-9.4V348.3L1120.4,348.3z
	 M1223.8,461.3h9.4v-9.4h9.4v-84.7h-9.4v-9.4h-9.4V339h-9.4v-9.4h-9.4v9.4h-9.4v18.8h-9.4v9.4h-9.4v84.7h9.4v9.4h9.4v18.8h9.4v9.4
	h9.4v-9.4h9.4V461.3z"/>
<path d="M1317,301.2h9.4v-18.8h18.8V273h65.8v9.4h18.8v9.4h9.4v9.4h9.4v9.4h9.4v9.4h9.4v28.2h9.4v113h-9.4v28.2h-9.4v9.4h-9.4v9.4
	h-9.4v9.4h-9.4v9.4h-9.4v9.4h-75.2V527h-18.8v-18.8h-9.4L1317,301.2L1317,301.2z M1411,461.3h9.4v-113h-9.4v-9.4h-9.4v-9.4h-9.4
	v-9.4h-18.8v169.5h18.8v-9.5h9.4v-9.4h9.4V461.3z"/>
<path d="M1494.8,301.2h9.4v-9.4h9.4v-9.4h9.4V273h84.6v9.4h9.4v9.4h9.4v28.3h-75.2V386h56.4v9.4h9.4v18.8h-9.4v9.4h-56.4v65.9h65.8
	v9.4h9.4v28.2h-9.4v9.4h-94v-9.4h-9.4v-9.4h-9.4v-9.4h-9.4L1494.8,301.2L1494.8,301.2z"/>
<path d="M1043.4,552c81.2,0,100.4,90.9,53.7,130.3c60.7,33.7,48.1,140.4-31.7,140.4H937.8V552H1043.4z M1018.3,617v38.3h11.5
	c25.8-0.4,26.8-38.7,0-38.3H1018.3z M1036.1,757.8c28.6,0,28.6-41.8,0.7-41.8h-18.5v41.8H1036.1z"/>
<path class="st8" d="M1229.6,552v171.7c0,18.6,11.9,28.2,23.7,28.2c11.5,0,23.4-9.7,23.4-28.2V552h80.5v172.1
	c0,72.3-51.9,108.7-103.9,108.7c-52.3,0-104.2-36.4-104.2-108.7V552H1229.6z"/>
<path d="M1340.2,569v155.1c0,28.7-9.4,52.6-27,69c-15.7,14.6-37,22.7-59.8,22.7c-23.1,0-44.4-8.1-60.2-22.7
	c-17.7-16.5-27.1-40.3-27.1-69V569h46.5v154.7c0,13,4.2,24.3,12,32.7c7.5,8,17.9,12.5,28.7,12.5c19.6,0,40.4-15.9,40.4-45.2V569
	H1340.2 M1357.2,552h-80.5v171.7c0,18.6-11.9,28.2-23.4,28.2c-11.9,0-23.7-9.7-23.7-28.2V552h-80.5v172.1
	c0,72.3,51.9,108.7,104.2,108.7c51.9,0,103.9-36.4,103.9-108.7V552L1357.2,552z"/>
<path d="M1471.6,822.7h-91.7V552h91.7c69,0.8,117.1,58.4,117.1,135.4C1588.7,764.3,1540.6,822,1471.6,822.7z M1460.4,757.8
	c61.4-3.5,61.4-137.3,0-140.8V757.8z"/>
<path d="M1700.3,822.7h-91.7V552h91.7c69,0.8,117.1,58.4,117.1,135.4C1817.4,764.3,1769.3,822,1700.3,822.7z M1689.1,757.8
	c61.4-3.5,61.4-137.3,0-140.8V757.8z"/>
<path d="M1803.8,552h84l32.8,89l32.4-89h84l-76.4,169.4v101.3h-80.5V721.4L1803.8,552z"/>
<g>
	<path class="st0" d="M755.4,350.2c-4.1-1-7.3-1.8-10.3-2.6l0,0c-3.7-0.9-7.3-1.7-12.3-2.8c-0.1-0.1-0.1-0.1-0.2-0.2
		c-5.2-1.1-10.5-2.2-15.7-3.2l-0.7-0.2h-0.1C605.2,319.8,494,320.3,383,343.1h-0.1c-9.8,2.1-19.5,4.4-29.2,6.9
		c-24.9,5.3-44.9,31.1-44.8,54.8c0.3,7.1,0.7,14.2,1.1,21.3l0,0l11,224.8c3.1,46.5,43.9,97,94,104.5c93,15.5,185.9,15.5,278.9,0
		c48.5-9.6,93-56.7,94-104.5c4-82,8.1-164,12.2-246C802.6,380.4,778.6,356.9,755.4,350.2z"/>
	<polygon class="st0" points="806.7,765.5 825.3,430.2 798.1,315.1 516.2,289.5 308.9,289.5 255.8,430.2 301.6,748.5 540.5,803.4 	
		"/>
	<path d="M286.9,860.5c-33.5,0-61.5-27.2-63.7-62L192.9,313c-1.6-25.5,10.6-60.2,28.5-80.7c10.7-12.3,22.9-18.8,35.2-18.8h583.7
		c12.3,0,24.5,6.5,35.2,18.8c17.8,20.4,30.1,55.1,28.5,80.7l-30.2,485.5c-2.2,34.8-30.1,62-63.7,62H286.9z"/>
	<path class="st8" d="M795.4,832.9H301.6c-27.1,0-49.6-21.8-51.4-49.7l-28.6-458.3c-1.9-30.6,21.6-83.8,51.4-83.8h551
		c29.7,0,53.2,53.2,51.4,82.2l-28.6,458.3C845,811.1,822.5,832.9,795.4,832.9z"/>
	<path class="st9" d="M755.4,348.5c-9.1-2.3-13.7-3.4-22.9-5.4c0.2,0.2,0.4,0.3,0.6,0.5c-13.8,5.4-27.3,11.2-40.7,17.3
		C577.9,413.3,510.6,543,487.2,656c-0.4,1.8-0.7,3.6-1.1,5.4l0,0c-2.7,23.8-32.9,31.2-51.1,18c-31.5-24.5-63.3-48.7-95.8-72.1
		c-7.8-5.2-15.5-12.3-21.2-19.6c1,20.6,2,41.1,3,61.7c3.1,46.5,43.9,97,94,104.5c93,15.5,185.9,15.5,278.9,0
		c48.5-9.6,93-56.7,94-104.5c4-82,8.1-164,12.2-246C802.6,378.7,778.6,355.2,755.4,348.5z M746,677.9c-13.7,11.3-27.3,22.6-40.9,34
		c-37.2,32.3-94.7,27.4-121.5-14l0,0c-25.1-40.7-18.5-102,23.7-130.8c13.7-9.9,27.5-19.8,41.3-29.6c38.6-27.3,94.5-13.5,120.8,22.8
		l0,0C797.1,598.7,781.1,649.2,746,677.9z"/>
	<path class="st9" d="M353.7,348.5c-24.9,5.3-44.9,31.1-44.8,54.8c1.2,24.5,2.5,49,3.7,73.4c18.4-47.5,42.3-92.1,70.3-135.1
		C373.1,343.7,363.4,346,353.7,348.5z"/>
	<path class="st0" d="M692.5,360.8c13.4-6.2,26.9-11.9,40.7-17.3c-0.2-0.2-0.4-0.3-0.6-0.5c-116.4-24.8-233.1-25.4-349.6-1.4
		c-28,43-51.9,87.6-70.3,135.1c1.8,37,3.7,73.9,5.5,110.9c5.7,7.3,13.4,14.3,21.2,19.6c32.5,23.3,64.2,47.6,95.8,72.1
		c18.2,13.2,48.4,5.9,51.1-18l0,0c0.4-1.8,0.7-3.6,1.1-5.4C510.7,542.9,577.9,413.2,692.5,360.8z"/>
	<path class="st0" d="M769.3,560.3c-26.3-36.4-82.2-50.1-120.8-22.8c-13.8,9.8-27.6,19.7-41.3,29.6c-42.2,28.8-48.7,90.1-23.7,130.8
		l0,0c26.9,41.4,84.3,46.3,121.5,14c13.6-11.4,27.2-22.7,40.9-34C781.1,649.2,797.1,598.7,769.3,560.3L769.3,560.3z"/>
	
		<radialGradient id="SVGID_1_" cx="597.5204" cy="986.7256" r="247.4716" gradientTransform="matrix(0.9323 0 0 0.8846 -2.3773 -328.4789)" gradientUnits="userSpaceOnUse">
		<stop  offset="0" style="stop-color:#F1FBED"/>
		<stop  offset="1" style="stop-color:#9CA3DB"/>
	</radialGradient>
	<path class="st10" d="M312,465.6c-0.4-8.5-0.6-12.8-1.1-21.2c162.5-25.3,324.7-25.3,487.2,0c-0.4,8.5-0.6,12.7-1.1,21.2
		C635.3,445.8,473.8,445.8,312,465.6z M798.9,430.2c0.4-8.5,0.6-12.7,1.1-21.1c-163.7-34.8-327-34.8-490.7,0
		c0.4,8.4,0.6,12.7,1.1,21.1C473.3,401.1,635.9,401.1,798.9,430.2z M793.5,536.9c0.4-8.6,0.6-12.9,1.1-21.5
		c-160-7.1-320-7.1-480.1,0c0.4,8.6,0.6,12.9,1.1,21.5C474.9,535.1,634.2,535.1,793.5,536.9z M799.7,394.8
		c-1.2-8.4-5.9-18-11.6-24.5c-155.8-40-311.4-40-467.2,0c-5.6,6.5-10.3,16.1-11.6,24.5C473,356.4,636.1,356.4,799.7,394.8z
		 M795.3,501.1c0.4-8.6,0.6-12.8,1.1-21.4c-161.3-16.1-322.4-16.1-483.6,0c0.4,8.5,0.6,12.8,1.1,21.4
		C474.3,490.5,634.8,490.5,795.3,501.1z M363.7,728.3c127.2,26.9,254.5,26.9,381.7,0c9.6-8.2,18-17.7,24.9-28.1
		c-143.8,29.8-287.6,29.8-431.4,0C345.7,710.6,354.1,720,363.7,728.3z M779.5,683.5c3.4-7.6,5.9-15.4,7.3-23.3
		c-154.9,26.2-309.6,26.2-464.4,0c1.4,7.9,3.9,15.7,7.3,23.3C479.6,712.7,629.5,712.7,779.5,683.5z M791.8,572.9
		c0.4-8.7,0.6-13,1.1-21.6c-158.8,1.6-317.7,1.6-476.5,0c0.4,8.6,0.6,13,1.1,21.6C475.5,579.6,633.6,579.6,791.8,572.9z
		 M319.1,609.1c157,15.1,313.8,15.1,470.8,0c0.4-8.7,0.6-13.1,1.1-21.7c-157.7,10.1-315.3,10.1-473,0c0,0.1,0,0.2,0,0.3
		C318.5,596.2,318.7,600.5,319.1,609.1z M788.2,645.5c0.4-8.8,0.6-13.1,1.1-21.8c-156.5,18.4-312.9,18.4-469.4,0
		c0.4,8.7,0.6,13.1,1.1,21.8C476.7,668.6,632.4,668.6,788.2,645.5z"/>
	<path d="M559.1,601c-26.2,0-51.3-10.1-74.1-14.3c-14.6-2.7-23.9,18.3-14.2,31.8c18,25.1,50.8,41.9,88.3,41.9
		c37.5,0,70.3-16.8,88.3-41.9c9.7-13.5,0.4-34.5-14.2-31.8C610.4,590.9,585.4,601,559.1,601z"/>
	<path d="M668.3,447.1c32.1-2.1,59.6,18,61.4,45c0.5,6.9-0.8,13.6-3.6,19.9c-10.1-16.6-31.3-27.4-55.2-25.7
		c-17.1,1.1-32.1,8.4-42.1,19c-5.3,5.6-14.8,2.5-15.4-5.2c0-0.1,0-0.1,0-0.2C611.6,472.9,636.2,449.2,668.3,447.1z"/>
	<path d="M504.8,499.9c-0.1,0.1-0.1,0.1,0,0.2c-0.6,7.7-10.1,10.8-15.4,5.2c-10-10.6-25-17.9-42.1-19c-23.8-1.6-45.1,9.1-55.2,25.7
		c-2.8-6.3-4-13-3.6-19.9c1.8-27,29.3-47.1,61.4-45C482.1,449.2,506.6,472.9,504.8,499.9z"/>
	<path d="M317.5,303.7c60.6-50.8,124-77.9,153.3-67.5l6-5.1L340.7,68.9L82.3,285.8L218.4,448l6-5.1
		C219.3,412.4,257,354.6,317.5,303.7z"/>
	<path d="M351,23L32.6,290.3c-6.6,5.5-7.4,15.3-1.9,21.9l0,0c5.5,6.6,15.3,7.4,21.9,1.9L371,46.8c6.6-5.5,7.4-15.3,1.9-21.9l0,0
		C367.4,18.4,357.6,17.5,351,23z"/>
	<rect x="66.1" y="285.7" width="10.8" height="194.6"/>
	<circle cx="72.1" cy="498.1" r="21.4"/>
	<path d="M72.1,512.2L72.1,512.2c10.5,0,18.9,8.5,18.9,18.9v59c0,3.3-2.7,6-6,6H59.2c-3.3,0-6-2.7-6-6v-59
		C53.1,520.7,61.6,512.2,72.1,512.2z"/>
</g>
</svg>
