<?xml version="1.0" encoding="utf-8"?>
<!-- Generator: Adobe Illustrator 26.3.1, SVG Export Plug-In . SVG Version: 6.00 Build 0)  -->
<svg version="1.1" id="Layer_2_00000175284805443854935500000005368169891259420076_"
	 xmlns="http://www.w3.org/2000/svg" xmlns:xlink="http://www.w3.org/1999/xlink" x="0px" y="0px" viewBox="0 0 900.4 865.5"
	 style="enable-background:new 0 0 900.4 865.5;" xml:space="preserve">
<style type="text/css">
	.st0{fill:#FFFFFF;}
	.st1{fill:#F9A03F;}
	.st2{fill:#F1FBED;}
	.st3{opacity:0.2;fill:url(#SVGID_1_);enable-background:new    ;}
</style>
<path class="st0" d="M737,347.6c-4.1-1-7.3-1.8-10.3-2.6l0,0c-3.7-0.9-7.3-1.7-12.3-2.8c-0.1-0.1-0.1-0.1-0.2-0.2
	c-5.2-1.1-10.5-2.2-15.7-3.2l-0.7-0.2l-0.1,0c-110.9-21.4-222.1-20.9-333.1,1.9l-0.1,0c-9.8,2.1-19.5,4.4-29.2,6.9
	c-24.9,5.3-44.9,31.1-44.8,54.8c0.3,7.1,0.7,14.2,1.1,21.3l0,0l11,224.8c3.1,46.5,43.9,97,94,104.5c93,15.5,185.9,15.5,278.9,0
	c48.5-9.6,93-56.7,94-104.5c4-82,8.1-164,12.2-246C784.2,377.8,760.2,354.3,737,347.6z"/>
<polygon class="st0" points="788.3,762.9 806.9,427.6 779.7,312.5 497.8,286.9 290.5,286.9 237.4,427.6 283.2,745.9 522.1,800.8 "/>
<path d="M268.5,857.9c-33.5,0-61.5-27.2-63.7-62l-30.3-485.5c-1.6-25.5,10.6-60.2,28.5-80.7c10.7-12.3,22.9-18.8,35.2-18.8h583.7
	c12.3,0,24.5,6.5,35.2,18.8c17.8,20.4,30.1,55.1,28.5,80.7l-30.2,485.5c-2.2,34.8-30.1,62-63.7,62H268.5z"/>
<path class="st1" d="M777,830.3H283.2c-27.1,0-49.6-21.8-51.4-49.7l-28.6-458.3c-1.9-30.6,21.6-83.8,51.4-83.8h551
	c29.7,0,53.2,53.2,51.4,82.2L828.4,779C826.6,808.5,804.1,830.3,777,830.3z"/>
<path class="st2" d="M737,345.9c-9.1-2.3-13.7-3.4-22.9-5.4c0.2,0.2,0.4,0.3,0.6,0.5c-13.8,5.4-27.3,11.2-40.7,17.3
	c-114.5,52.4-181.8,182.1-205.2,295.1c-0.4,1.8-0.7,3.6-1.1,5.4l0,0c-2.7,23.8-32.9,31.2-51.1,18c-31.5-24.5-63.3-48.7-95.8-72.1
	c-7.8-5.2-15.5-12.3-21.2-19.6c1,20.6,2,41.1,3,61.7c3.1,46.5,43.9,97,94,104.5c93,15.5,185.9,15.5,278.9,0
	c48.5-9.6,93-56.7,94-104.5c4-82,8.1-164,12.2-246C784.2,376.1,760.2,352.6,737,345.9z M727.6,675.3c-13.7,11.3-27.3,22.6-40.9,34
	c-37.2,32.3-94.7,27.4-121.5-14l0,0c-25.1-40.7-18.5-102,23.7-130.8c13.7-9.9,27.5-19.8,41.3-29.6c38.6-27.3,94.5-13.5,120.8,22.8
	l0,0C778.7,596.1,762.7,646.6,727.6,675.3z"/>
<path class="st2" d="M335.3,345.9c-24.9,5.3-44.9,31.1-44.8,54.8c1.2,24.5,2.5,49,3.7,73.4c18.4-47.5,42.3-92.1,70.3-135.1
	C354.7,341.1,345,343.4,335.3,345.9z"/>
<path class="st0" d="M674.1,358.2c13.4-6.2,26.9-11.9,40.7-17.3c-0.2-0.2-0.4-0.3-0.6-0.5C597.8,315.6,481.1,315,364.6,339
	c-28,43-51.9,87.6-70.3,135.1c1.8,37,3.7,73.9,5.5,110.9c5.7,7.3,13.4,14.3,21.2,19.6c32.5,23.3,64.2,47.6,95.8,72.1
	c18.2,13.2,48.4,5.9,51.1-18l0,0c0.4-1.8,0.7-3.6,1.1-5.4C492.3,540.3,559.5,410.6,674.1,358.2z"/>
<path class="st0" d="M750.9,557.7c-26.3-36.4-82.2-50.1-120.8-22.8c-13.8,9.8-27.6,19.7-41.3,29.6c-42.2,28.8-48.7,90.1-23.7,130.8
	l0,0c26.9,41.4,84.3,46.3,121.5,14c13.6-11.4,27.2-22.7,40.9-34C762.7,646.6,778.7,596.1,750.9,557.7L750.9,557.7z"/>
<radialGradient id="SVGID_1_" cx="589.3889" cy="96.9212" r="247.4716" gradientTransform="matrix(0.9323 0 0 -0.8846 -13.2513 627.571)" gradientUnits="userSpaceOnUse">
	<stop  offset="0" style="stop-color:#F1FBED"/>
	<stop  offset="1" style="stop-color:#9CA3DB"/>
</radialGradient>
<path class="st3" d="M293.6,463c-0.4-8.5-0.6-12.8-1.1-21.2c162.5-25.3,324.7-25.3,487.2,0c-0.4,8.5-0.6,12.7-1.1,21.2
	C616.9,443.2,455.4,443.2,293.6,463z M780.5,427.6c0.4-8.5,0.6-12.7,1.1-21.1c-163.7-34.8-327-34.8-490.7,0
	c0.4,8.4,0.6,12.7,1.1,21.1C454.9,398.5,617.5,398.5,780.5,427.6z M775.1,534.3c0.4-8.6,0.6-12.9,1.1-21.5c-160-7.1-320-7.1-480.1,0
	c0.4,8.6,0.6,12.9,1.1,21.5C456.5,532.5,615.8,532.5,775.1,534.3z M781.3,392.2c-1.2-8.4-5.9-18-11.6-24.5
	c-155.8-40-311.4-40-467.2,0c-5.6,6.5-10.3,16.1-11.6,24.5C454.6,353.8,617.7,353.8,781.3,392.2z M776.9,498.5
	c0.4-8.6,0.6-12.8,1.1-21.4c-161.3-16.1-322.4-16.1-483.6,0c0.4,8.5,0.6,12.8,1.1,21.4C455.9,487.9,616.4,487.9,776.9,498.5z
	 M345.3,725.7c127.2,26.9,254.5,26.9,381.7,0c9.6-8.2,18-17.7,24.9-28.1c-143.8,29.8-287.6,29.8-431.4,0
	C327.3,708,335.7,717.4,345.3,725.7z M761.1,680.9c3.4-7.6,5.9-15.4,7.3-23.3c-154.9,26.2-309.6,26.2-464.4,0
	c1.4,7.9,3.9,15.7,7.3,23.3C461.2,710.1,611.1,710.1,761.1,680.9z M773.4,570.3c0.4-8.7,0.6-13,1.1-21.6
	c-158.8,1.6-317.7,1.6-476.5,0c0.4,8.6,0.6,13,1.1,21.6C457.1,577,615.2,577,773.4,570.3z M300.7,606.5c157,15.1,313.8,15.1,470.8,0
	c0.4-8.7,0.6-13.1,1.1-21.7c-157.7,10.1-315.3,10.1-473,0c0,0.1,0,0.2,0,0.3C300.1,593.6,300.3,597.9,300.7,606.5z M769.8,642.9
	c0.4-8.8,0.6-13.1,1.1-21.8c-156.5,18.4-312.9,18.4-469.4,0c0.4,8.7,0.6,13.1,1.1,21.8C458.3,666,614,666,769.8,642.9z"/>
<path d="M540.7,598.4c-26.2,0-51.3-10.1-74.1-14.3c-14.6-2.7-23.9,18.3-14.2,31.8c18,25.1,50.8,41.9,88.3,41.9S611,641,629,615.9
	c9.7-13.5,0.4-34.5-14.2-31.8C592,588.3,567,598.4,540.7,598.4z"/>
<path d="M649.9,444.5c32.1-2.1,59.6,18,61.4,45c0.5,6.9-0.8,13.6-3.6,19.9c-10.1-16.6-31.3-27.4-55.2-25.7
	c-17.1,1.1-32.1,8.4-42.1,19c-5.3,5.6-14.8,2.5-15.4-5.2c0-0.1,0-0.1,0-0.2C593.2,470.3,617.8,446.6,649.9,444.5z"/>
<path d="M486.4,497.3c-0.1,0.1-0.1,0.1,0,0.2c-0.6,7.7-10.1,10.8-15.4,5.2c-10-10.6-25-17.9-42.1-19c-23.8-1.6-45.1,9.1-55.2,25.7
	c-2.8-6.3-4-13-3.6-19.9c1.8-27,29.3-47.1,61.4-45C463.7,446.6,488.2,470.3,486.4,497.3z"/>
<path d="M299.1,301.1c60.6-50.8,124-77.9,153.3-67.5l6-5.1L322.3,66.3L63.9,283.2L200,445.4l6-5.1
	C200.9,409.8,238.6,352,299.1,301.1z"/>
<path d="M332.6,20.4L14.2,287.7c-6.6,5.5-7.4,15.3-1.9,21.9l0,0c5.5,6.6,15.3,7.4,21.9,1.9L352.6,44.2c6.6-5.5,7.4-15.3,1.9-21.9
	l0,0C349,15.8,339.2,14.9,332.6,20.4z"/>
<rect x="47.7" y="283.1" width="10.8" height="194.6"/>
<circle cx="53.7" cy="495.5" r="21.4"/>
<path d="M53.7,509.6L53.7,509.6c10.5,0,18.9,8.5,18.9,18.9v59c0,3.3-2.7,6-6,6H40.8c-3.3,0-6-2.7-6-6v-59
	C34.7,518.1,43.2,509.6,53.7,509.6z"/>
</svg>
