<?xml version="1.0" encoding="utf-8"?>
<!-- Generator: Adobe Illustrator 26.3.1, SVG Export Plug-In . SVG Version: 6.00 Build 0)  -->
<svg version="1.1" xmlns="http://www.w3.org/2000/svg" xmlns:xlink="http://www.w3.org/1999/xlink" x="0px" y="0px"
	 viewBox="0 0 773 699" style="enable-background:new 0 0 773 699;" xml:space="preserve">
<style type="text/css">
	.st0{display:none;}
	.st1{display:inline;fill:#8B95CC;}
	.st2{display:inline;}
	.st3{fill:#BAD1C3;}
	.st4{display:inline;fill:#F1FBED;}
	.st5{display:inline;fill:#9CA3DB;}
	.st6{display:inline;fill:#BDCCD4;}
	.st7{fill:#F9A03F;}
</style>
<g id="Layer_2">
	<g id="yAIIpd_00000099663258034347684330000008179507430172674978_">
		
			<image style="overflow:visible;" width="569" height="546" xlink:href="D135DD38FA3F472.jpg"  transform="matrix(1 0 0 1 109 71)">
		</image>
	</g>
</g>
<g id="Layer_1">
	<path d="M713.6,41.7c-10.7-12.3-22.9-18.8-35.2-18.8H94.7c-12.3,0-24.5,6.5-35.2,18.8C41.6,62.2,29.4,96.9,31,122.4l30.3,485.5
		c2.2,34.8,30.2,62,63.7,62h523.2c33.6,0,61.5-27.2,63.7-62l30.2-485.5C743.7,96.8,731.4,62.1,713.6,41.7z M638.2,212.8
		c-4.1,82-8.2,164-12.2,246c-1,47.8-45.5,94.9-94,104.5c-93,15.5-185.9,15.5-278.9,0c-50.1-7.5-90.9-58-94-104.5l-11-224.8l0,0
		c-0.4-7.1-0.7-14.2-1.1-21.3c-0.1-23.7,19.9-49.5,44.8-54.8c9.7-2.5,19.4-4.8,29.2-6.9l0.1,0c111-22.9,222.2-23.4,333.1-1.9l0.1,0
		l0.7,0.2c5.2,1,10.5,2.1,15.7,3.2c0.1,0.1,0.1,0.1,0.2,0.2c4.9,1.1,8.5,1.9,12.3,2.8l0,0c3.1,0.7,6.3,1.5,10.3,2.6
		C616.7,164.6,640.7,188.1,638.2,212.8z"/>
	<g id="Layer_1_00000042700427122550223860000016171415287862758302_" class="st0">
		<path class="st1" d="M665.7,747H104.5c-30.8,0-56.4-23.9-58.3-54.7L13.7,188.2C11.5,154.5,38.3,96,72.1,96h626.1
			c33.8,0,60.5,58.5,58.3,92.2L724,692.3C722.1,723.1,696.5,747,665.7,747z"/>
		<g class="st2">
			<path class="st3" d="M600,216.6h-24.7l0.7,0.4l-43.7,26.7c-111,67.9-190.7,177.6-218.8,304.6c-0.4,1.8-0.8,3.6-1.2,5.5l0,0
				c-5.1,24.5-33.4,35.9-54.6,22l-103.1-67.7c-8.9-5.8-16.6-12.9-23-20.8l3.3,72.2c2.5,54.2,47.1,96.9,101.4,96.9h297.6
				c54.3,0,98.9-42.7,101.4-96.9l13.3-292C649.9,239.8,627.8,216.6,600,216.6z"/>
			<path class="st3" d="M170.2,216.6c-27.7,0-49.8,23.1-48.6,50.8l4,88.4c17.6-50.5,43.3-97.5,76.1-139.2L170.2,216.6L170.2,216.6z"
				/>
		</g>
		<path class="st4" d="M154.6,508.1l103.1,67.7c21.1,13.9,49.4,2.5,54.6-22l0,0c0.4-1.8,0.8-3.7,1.2-5.5
			c28.2-127,107.8-236.7,218.8-304.6L576,217l-0.7-0.4H201.7c-32.8,41.7-58.5,88.7-76.1,139.2l6,131.5
			C138,495.2,145.8,502.3,154.6,508.1z"/>
		<path class="st4" d="M441.1,459.1l44.1-29.7c42.8-28.9,100.9-17.6,129.8,25.2l0,0c28.9,42.8,17.6,100.9-25.2,129.8l-44.1,29.7
			c-42.8,28.9-100.9,17.6-129.8-25.2l0,0C387.1,546.1,398.3,488,441.1,459.1z"/>
		<g class="st2">
			<path d="M458.2,548.4c0,30.5-35,52.1-78.1,52.1S302,578.9,302,548.4s35-4.2,78.1-4.2S458.2,517.9,458.2,548.4z"/>
			<g>
				<ellipse transform="matrix(0.3302 -0.9439 0.9439 0.3302 -41.1207 733.8803)" cx="496.5" cy="395.9" rx="82.6" ry="28.1"/>
				<ellipse transform="matrix(0.9439 -0.3302 0.3302 0.9439 -115.3796 112.5475)" cx="273.6" cy="395.9" rx="28.1" ry="82.6"/>
			</g>
		</g>
		<path class="st5" d="M-622.3,747h-561.2c-30.8,0-56.4-23.9-58.3-54.7l-32.5-504.1c-2.2-33.7,24.6-92.2,58.3-92.2h626.1
			c33.8,0,60.5,58.5,58.3,92.2l-32.5,504.1C-565.9,723.1-591.5,747-622.3,747z"/>
		<path class="st6" d="M-754.1,656.4h-297.6c-54.3,0-98.9-42.7-101.4-96.9l-13.3-292c-1.3-27.7,20.9-50.8,48.6-50.8H-688
			c27.7,0,49.8,23.1,48.6,50.8l-13.3,292C-655.1,613.7-699.8,656.4-754.1,656.4z"/>
		<path class="st4" d="M-1030.3,575.8l-103.1-67.7c-35.2-23.1-52.2-65.5-42.5-106l0,0c27.9-116.7,98.1-218.5,197.3-286l34-23.1
			L-712,217l-43.7,26.7c-111,67.9-190.7,177.6-218.8,304.6c-0.4,1.8-0.8,3.6-1.2,5.5l0,0C-980.9,578.3-1009.2,589.7-1030.3,575.8z"
			/>
		<path class="st4" d="M-846.9,459.1l44.1-29.7c42.8-28.9,100.9-17.6,129.8,25.2l0,0c28.9,42.8,17.6,100.9-25.2,129.8l-44.1,29.7
			c-42.8,28.9-100.9,17.6-129.8-25.2l0,0C-900.9,546.1-889.7,488-846.9,459.1z"/>
		<g class="st2">
			<path d="M-829.8,548.4c0,30.5-35,52.1-78.1,52.1s-78.1-21.6-78.1-52.1s35-4.2,78.1-4.2C-864.7,544.3-829.8,517.9-829.8,548.4z"/>
			<g>
				<ellipse transform="matrix(0.3302 -0.9439 0.9439 0.3302 -903.788 -481.8712)" cx="-791.4" cy="395.9" rx="82.6" ry="28.1"/>
				<ellipse transform="matrix(0.9439 -0.3302 0.3302 0.9439 -187.6229 -312.7498)" cx="-1014.4" cy="395.9" rx="28.1" ry="82.6"/>
			</g>
		</g>
	</g>
	<path class="st7" d="M662,50.5H111c-29.8,0-53.3,53.2-51.4,83.8l28.6,458.3c1.8,27.9,24.3,49.7,51.4,49.7h493.9
		c27.1,0,49.6-21.8,51.4-51.3l28.5-458.3C715.2,103.7,691.7,50.5,662,50.5z M638.2,212.8c-4.1,82-8.2,164-12.2,246
		c-1,47.8-45.5,94.9-94,104.5c-93,15.5-185.9,15.5-278.9,0c-50.1-7.5-90.9-58-94-104.5l-11-224.8l0,0c-0.4-7.1-0.7-14.2-1.1-21.3
		c-0.1-23.7,19.9-49.5,44.8-54.8c9.7-2.5,19.4-4.8,29.2-6.9l0.1,0c111-22.9,222.2-23.4,333.1-1.9l0.1,0l0.7,0.2
		c5.2,1,10.5,2.1,15.7,3.2c0.1,0.1,0.1,0.1,0.2,0.2c4.9,1.1,8.5,1.9,12.3,2.8l0,0c3.1,0.7,6.3,1.5,10.3,2.6
		C616.7,164.6,640.7,188.1,638.2,212.8z"/>
</g>
</svg>
