<?xml version="1.0" encoding="utf-8"?>
<!-- Generator: Adobe Illustrator 26.3.1, SVG Export Plug-In . SVG Version: 6.00 Build 0)  -->
<svg version="1.1" id="Layer_2_00000175284805443854935500000005368169891259420076_"
	 xmlns="http://www.w3.org/2000/svg" xmlns:xlink="http://www.w3.org/1999/xlink" x="0px" y="0px" viewBox="0 0 773 699"
	 style="enable-background:new 0 0 773 699;" xml:space="preserve">
<style type="text/css">
	.st0{fill:#FFFFFF;}
	.st1{fill:#F9A03F;}
	.st2{fill:#F1FBED;}
	.st3{opacity:0.2;fill:url(#SVGID_1_);enable-background:new    ;}
</style>
<polygon class="st0" points="636.5,575 655.1,239.7 627.9,124.6 346,99 138.7,99 85.6,239.7 131.4,558 370.3,612.9 "/>
<path d="M116.7,670c-33.5,0-61.5-27.2-63.7-62L22.7,122.5C21.1,97,33.3,62.3,51.2,41.8C61.9,29.5,74.1,23,86.4,23h583.7
	c12.3,0,24.5,6.5,35.2,18.8c17.8,20.4,30.1,55.1,28.5,80.7L703.6,608c-2.2,34.8-30.1,62-63.7,62H116.7z"/>
<path class="st0" d="M585.1,157.7c-4.1-1-7.3-1.8-10.3-2.6l0,0c-3.7-0.9-7.3-1.7-12.3-2.8c-0.1-0.1-0.1-0.1-0.2-0.2
	c-5.2-1.1-10.5-2.2-15.7-3.2l-0.7-0.2l-0.1,0c-110.9-21.4-222.1-20.9-333.1,1.9l-0.1,0c-9.8,2.1-19.5,4.4-29.2,6.9
	c-24.9,5.3-44.9,31.1-44.8,54.8c0.3,7.1,0.7,14.2,1.1,21.3l0,0l11,224.8c3.1,46.5,43.9,97,94,104.5c93,15.5,185.9,15.5,278.9,0
	c48.5-9.6,93-56.7,94-104.5c4-82,8.1-164,12.2-246C632.3,187.9,608.3,164.4,585.1,157.7z"/>
<path class="st1" d="M625.2,642.4H131.4c-27.1,0-49.6-21.8-51.4-49.7L51.4,134.4c-1.9-30.6,21.6-83.8,51.4-83.8h551
	c29.7,0,53.2,53.2,51.4,82.2l-28.6,458.3C674.8,620.6,652.3,642.4,625.2,642.4z"/>
<path class="st0" d="M585.1,157.9c-4.1-1-7.3-1.8-10.3-2.6l0,0c-3.7-0.9-7.3-1.7-12.3-2.8c-0.1-0.1-0.1-0.1-0.2-0.2
	c-5.2-1.1-10.5-2.2-15.7-3.2l-0.7-0.2h-0.1c-110.9-21.4-222.1-20.9-333.1,1.9h-0.1c-9.8,2.1-19.5,4.4-29.2,6.9
	c-24.9,5.3-44.9,31.1-44.8,54.8c0.3,7.1,0.7,14.2,1.1,21.3l0,0l11,224.8c3.1,46.5,43.9,97,94,104.5c93,15.5,185.9,15.5,278.9,0
	c48.5-9.6,93-56.7,94-104.5c4-82,8.1-164,12.2-246C632.3,188.1,608.3,164.6,585.1,157.9z"/>
<path class="st2" d="M585.2,158c-9.1-2.3-13.7-3.4-22.9-5.4c0.2,0.2,0.4,0.3,0.6,0.5c-13.8,5.4-27.3,11.2-40.7,17.3
	C407.7,222.8,340.4,352.5,317,465.5c-0.4,1.8-0.7,3.6-1.1,5.4l0,0c-2.7,23.8-32.9,31.2-51.1,18c-31.5-24.5-63.3-48.7-95.8-72.1
	c-7.8-5.2-15.5-12.3-21.2-19.6c1,20.6,2,41.1,3,61.7c3.1,46.5,43.9,97,94,104.5c93,15.5,185.9,15.5,278.9,0
	c48.5-9.6,93-56.7,94-104.5c4-82,8.1-164,12.2-246C632.4,188.2,608.4,164.7,585.2,158z M575.8,487.4c-13.7,11.3-27.3,22.6-40.9,34
	c-37.2,32.3-94.7,27.4-121.5-14l0,0c-25.1-40.7-18.5-102,23.7-130.8c13.7-9.9,27.5-19.8,41.3-29.6c38.6-27.3,94.5-13.5,120.8,22.8
	l0,0C626.9,408.2,610.9,458.7,575.8,487.4z"/>
<path class="st2" d="M183.5,158c-24.9,5.3-44.9,31.1-44.8,54.8c1.2,24.5,2.5,49,3.7,73.4c18.4-47.5,42.3-92.1,70.3-135.1
	C202.9,153.2,193.2,155.5,183.5,158z"/>
<path class="st0" d="M522.3,170.3c13.4-6.2,26.9-11.9,40.7-17.3c-0.2-0.2-0.4-0.3-0.6-0.5c-116.4-24.8-233.1-25.4-349.6-1.4
	c-28,43-51.9,87.6-70.3,135.1c1.8,37,3.7,73.9,5.5,110.9c5.7,7.3,13.4,14.3,21.2,19.6c32.5,23.3,64.2,47.6,95.8,72.1
	c18.2,13.2,48.4,5.9,51.1-18l0,0c0.4-1.8,0.7-3.6,1.1-5.4C340.5,352.4,407.7,222.7,522.3,170.3z"/>
<path class="st0" d="M599.1,369.8c-26.3-36.4-82.2-50.1-120.8-22.8c-13.8,9.8-27.6,19.7-41.3,29.6c-42.2,28.8-48.7,90.1-23.7,130.8
	l0,0c26.9,41.4,84.3,46.3,121.5,14c13.6-11.4,27.2-22.7,40.9-34C610.9,458.7,626.9,408.2,599.1,369.8L599.1,369.8z"/>
<radialGradient id="SVGID_1_" cx="479.212" cy="1195.8121" r="247.4716" gradientTransform="matrix(0.9323 0 0 0.8846 -62.3193 -703.9279)" gradientUnits="userSpaceOnUse">
	<stop  offset="0" style="stop-color:#F1FBED"/>
	<stop  offset="1" style="stop-color:#9CA3DB"/>
</radialGradient>
<path class="st3" d="M141.8,275.1c-0.4-8.5-0.6-12.8-1.1-21.2c162.5-25.3,324.7-25.3,487.2,0c-0.4,8.5-0.6,12.7-1.1,21.2
	C465.1,255.3,303.6,255.3,141.8,275.1z M628.7,239.7c0.4-8.5,0.6-12.7,1.1-21.1c-163.7-34.8-327-34.8-490.7,0
	c0.4,8.4,0.6,12.7,1.1,21.1C303.1,210.6,465.7,210.6,628.7,239.7z M623.3,346.4c0.4-8.6,0.6-12.9,1.1-21.5c-160-7.1-320-7.1-480.1,0
	c0.4,8.6,0.6,12.9,1.1,21.5C304.7,344.6,464,344.6,623.3,346.4z M629.5,204.3c-1.2-8.4-5.9-18-11.6-24.5c-155.8-40-311.4-40-467.2,0
	c-5.6,6.5-10.3,16.1-11.6,24.5C302.8,165.9,465.9,165.9,629.5,204.3z M625.1,310.6c0.4-8.6,0.6-12.8,1.1-21.4
	c-161.3-16.1-322.4-16.1-483.6,0c0.4,8.5,0.6,12.8,1.1,21.4C304.1,300,464.6,300,625.1,310.6z M193.5,537.8
	c127.2,26.9,254.5,26.9,381.7,0c9.6-8.2,18-17.7,24.9-28.1c-143.8,29.8-287.6,29.8-431.4,0C175.5,520.1,183.9,529.5,193.5,537.8z
	 M609.3,493c3.4-7.6,5.9-15.4,7.3-23.3c-154.9,26.2-309.6,26.2-464.4,0c1.4,7.9,3.9,15.7,7.3,23.3
	C309.4,522.2,459.3,522.2,609.3,493z M621.6,382.4c0.4-8.7,0.6-13,1.1-21.6c-158.8,1.6-317.7,1.6-476.5,0c0.4,8.6,0.6,13,1.1,21.6
	C305.3,389.1,463.4,389.1,621.6,382.4z M148.9,418.6c157,15.1,313.8,15.1,470.8,0c0.4-8.7,0.6-13.1,1.1-21.7
	c-157.7,10.1-315.3,10.1-473,0c0,0.1,0,0.2,0,0.3C148.3,405.7,148.5,410,148.9,418.6z M618,455c0.4-8.8,0.6-13.1,1.1-21.8
	c-156.5,18.4-312.9,18.4-469.4,0c0.4,8.7,0.6,13.1,1.1,21.8C306.5,478.1,462.2,478.1,618,455z"/>
<path d="M388.9,410.5c-26.2,0-51.3-10.1-74.1-14.3c-14.6-2.7-23.9,18.3-14.2,31.8c18,25.1,50.8,41.9,88.3,41.9s70.3-16.8,88.3-41.9
	c9.7-13.5,0.4-34.5-14.2-31.8C440.2,400.4,415.2,410.5,388.9,410.5z"/>
<path d="M498.1,256.6c32.1-2.1,59.6,18,61.4,45c0.5,6.9-0.8,13.6-3.6,19.9c-10.1-16.6-31.3-27.4-55.2-25.7
	c-17.1,1.1-32.1,8.4-42.1,19c-5.3,5.6-14.8,2.5-15.4-5.2c0-0.1,0-0.1,0-0.2C441.4,282.4,466,258.7,498.1,256.6z"/>
<path d="M334.6,309.4c-0.1,0.1-0.1,0.1,0,0.2c-0.6,7.7-10.1,10.8-15.4,5.2c-10-10.6-25-17.9-42.1-19c-23.8-1.6-45.1,9.1-55.2,25.7
	c-2.8-6.3-4-13-3.6-19.9c1.8-27,29.3-47.1,61.4-45C311.9,258.7,336.4,282.4,334.6,309.4z"/>
</svg>
