<?xml version="1.0" encoding="utf-8"?>
<!-- Generator: Adobe Illustrator 26.3.1, SVG Export Plug-In . SVG Version: 6.00 Build 0)  -->
<svg version="1.1" id="Layer_1" xmlns="http://www.w3.org/2000/svg" xmlns:xlink="http://www.w3.org/1999/xlink" x="0px" y="0px"
	 viewBox="0 0 1907.8 699" style="enable-background:new 0 0 1907.8 699;" xml:space="preserve">
<style type="text/css">
	.st0{display:none;}
	.st1{display:inline;fill:#8B95CC;}
	.st2{display:inline;}
	.st3{fill:#BAD1C3;}
	.st4{display:inline;fill:#F1FBED;}
	.st5{display:inline;fill:#9CA3DB;}
	.st6{display:inline;fill:#BDCCD4;}
	.st7{fill:#F9A03F;}
	.st8{fill:#F1FBED;}
	.st9{fill:#FFFFFF;}
	.st10{opacity:0.2;fill:url(#SVGID_1_);enable-background:new    ;}
	.st11{fill:#76A3DB;}
</style>
<g id="Layer_1_00000042700427122550223860000016171415287862758302_" class="st0">
	<path class="st1" d="M665.7,747H104.5c-30.8,0-56.4-23.9-58.3-54.7L13.7,188.2C11.5,154.5,38.3,96,72.1,96h626.1
		c33.8,0,60.5,58.5,58.3,92.2L724,692.3C722.1,723.1,696.5,747,665.7,747z"/>
	<g class="st2">
		<path class="st3" d="M600,216.6h-24.7l0.7,0.4l-43.7,26.7c-111,67.9-190.7,177.6-218.8,304.6c-0.4,1.8-0.8,3.6-1.2,5.5l0,0
			c-5.1,24.5-33.4,35.9-54.6,22l-103.1-67.7c-8.9-5.8-16.6-12.9-23-20.8l3.3,72.2c2.5,54.2,47.1,96.9,101.4,96.9h297.6
			c54.3,0,98.9-42.7,101.4-96.9l13.3-292C649.9,239.8,627.8,216.6,600,216.6z"/>
		<path class="st3" d="M170.2,216.6c-27.7,0-49.8,23.1-48.6,50.8l4,88.4c17.6-50.5,43.3-97.5,76.1-139.2L170.2,216.6L170.2,216.6z"
			/>
	</g>
	<path class="st4" d="M154.6,508.1l103.1,67.7c21.1,13.9,49.4,2.5,54.6-22l0,0c0.4-1.8,0.8-3.7,1.2-5.5
		c28.2-127,107.8-236.7,218.8-304.6L576,217l-0.7-0.4H201.7c-32.8,41.7-58.5,88.7-76.1,139.2l6,131.5
		C138,495.2,145.8,502.3,154.6,508.1z"/>
	<path class="st4" d="M441.1,459.1l44.1-29.7c42.8-28.9,100.9-17.6,129.8,25.2l0,0c28.9,42.8,17.6,100.9-25.2,129.8l-44.1,29.7
		c-42.8,28.9-100.9,17.6-129.8-25.2l0,0C387.1,546.1,398.3,488,441.1,459.1z"/>
	<g class="st2">
		<path d="M458.2,548.4c0,30.5-35,52.1-78.1,52.1S302,578.9,302,548.4s35-4.2,78.1-4.2S458.2,517.9,458.2,548.4z"/>
		<g>
			<ellipse transform="matrix(0.3302 -0.9439 0.9439 0.3302 -41.1178 733.9294)" cx="496.6" cy="395.9" rx="82.6" ry="28.1"/>
			<ellipse transform="matrix(0.9439 -0.3302 0.3302 0.9439 -115.3831 112.5466)" cx="273.6" cy="395.9" rx="28.1" ry="82.6"/>
		</g>
	</g>
	<path class="st5" d="M-622.3,747h-561.2c-30.8,0-56.4-23.9-58.3-54.7l-32.5-504.1c-2.2-33.7,24.6-92.2,58.3-92.2h626.1
		c33.8,0,60.5,58.5,58.3,92.2l-32.5,504.1C-565.9,723.1-591.5,747-622.3,747z"/>
	<path class="st6" d="M-754.1,656.4h-297.6c-54.3,0-98.9-42.7-101.4-96.9l-13.3-292c-1.3-27.7,20.9-50.8,48.6-50.8H-688
		c27.7,0,49.8,23.1,48.6,50.8l-13.3,292C-655.1,613.7-699.8,656.4-754.1,656.4z"/>
	<path class="st4" d="M-1030.3,575.8l-103.1-67.7c-35.2-23.1-52.2-65.5-42.5-106l0,0c27.9-116.7,98.1-218.5,197.3-286l34-23.1
		L-712,217l-43.7,26.7c-111,67.9-190.7,177.6-218.8,304.6c-0.4,1.8-0.8,3.6-1.2,5.5l0,0C-980.9,578.3-1009.2,589.7-1030.3,575.8z"/>
	<path class="st4" d="M-846.9,459.1l44.1-29.7c42.8-28.9,100.9-17.6,129.8,25.2l0,0c28.9,42.8,17.6,100.9-25.2,129.8l-44.1,29.7
		c-42.8,28.9-100.9,17.6-129.8-25.2l0,0C-900.9,546.1-889.7,488-846.9,459.1z"/>
	<g class="st2">
		<path d="M-829.8,548.4c0,30.5-35,52.1-78.1,52.1s-78.1-21.6-78.1-52.1s35-4.2,78.1-4.2C-864.7,544.3-829.8,517.9-829.8,548.4z"/>
		<g>
			<ellipse transform="matrix(0.3302 -0.9439 0.9439 0.3302 -903.8018 -481.8333)" cx="-791.4" cy="395.9" rx="82.6" ry="28.1"/>
			<ellipse transform="matrix(0.9439 -0.3302 0.3302 0.9439 -187.6257 -312.7511)" cx="-1014.4" cy="395.9" rx="28.1" ry="82.6"/>
		</g>
	</g>
</g>
<path d="M116.7,670c-33.5,0-61.5-27.2-63.7-62L22.7,122.5C21.1,97,33.3,62.3,51.2,41.8C61.9,29.5,74.1,23,86.4,23h583.7
	c12.3,0,24.5,6.5,35.2,18.8c17.8,20.4,30.1,55.1,28.5,80.7L703.6,608c-2.2,34.8-30.1,62-63.7,62H116.7z"/>
<path class="st7" d="M625.2,642.4H131.4c-27.1,0-49.6-21.8-51.4-49.7L51.4,134.4c-1.9-30.6,21.6-83.8,51.4-83.8h551
	c29.7,0,53.2,53.2,51.4,82.2l-28.6,458.3C674.8,620.6,652.3,642.4,625.2,642.4z"/>
<path class="st8" d="M585.2,158c-9.1-2.3-13.7-3.4-22.9-5.4c0.2,0.2,0.4,0.3,0.6,0.5c-13.8,5.4-27.3,11.2-40.7,17.3
	C407.7,222.8,340.4,352.5,317,465.5c-0.4,1.8-0.7,3.6-1.1,5.4l0,0c-2.7,23.8-32.9,31.2-51.1,18c-31.5-24.5-63.3-48.7-95.8-72.1
	c-7.8-5.2-15.5-12.3-21.2-19.6c1,20.6,2,41.1,3,61.7c3.1,46.5,43.9,97,94,104.5c93,15.5,185.9,15.5,278.9,0
	c48.5-9.6,93-56.7,94-104.5c4-82,8.1-164,12.2-246C632.4,188.2,608.4,164.7,585.2,158z M575.8,487.4c-13.7,11.3-27.3,22.6-40.9,34
	c-37.2,32.3-94.7,27.4-121.5-14l0,0c-25.1-40.7-18.5-102,23.7-130.8c13.7-9.9,27.5-19.8,41.3-29.6c38.6-27.3,94.5-13.5,120.8,22.8
	l0,0C626.9,408.2,610.9,458.7,575.8,487.4z"/>
<path class="st8" d="M183.5,158c-24.9,5.3-44.9,31.1-44.8,54.8c1.2,24.5,2.5,49,3.7,73.4c18.4-47.5,42.3-92.1,70.3-135.1
	C202.9,153.2,193.2,155.5,183.5,158z"/>
<path class="st9" d="M522.3,170.3c13.4-6.2,26.9-11.9,40.7-17.3c-0.2-0.2-0.4-0.3-0.6-0.5c-116.4-24.8-233.1-25.4-349.6-1.4
	c-28,43-51.9,87.6-70.3,135.1c1.8,37,3.7,73.9,5.5,110.9c5.7,7.3,13.4,14.3,21.2,19.6c32.5,23.3,64.2,47.6,95.8,72.1
	c18.2,13.2,48.4,5.9,51.1-18l0,0c0.4-1.8,0.7-3.6,1.1-5.4C340.5,352.4,407.7,222.7,522.3,170.3z"/>
<path class="st9" d="M599.1,369.8c-26.3-36.4-82.2-50.1-120.8-22.8c-13.8,9.8-27.6,19.7-41.3,29.6c-42.2,28.8-48.7,90.1-23.7,130.8
	l0,0c26.9,41.4,84.3,46.3,121.5,14c13.6-11.4,27.2-22.7,40.9-34C610.9,458.7,626.9,408.2,599.1,369.8L599.1,369.8z"/>
<radialGradient id="SVGID_1_" cx="386.2633" cy="332.1554" r="247.4716" gradientTransform="matrix(0.9323 0 0 -0.8846 24.3367 647.7122)" gradientUnits="userSpaceOnUse">
	<stop  offset="0" style="stop-color:#F1FBED"/>
	<stop  offset="1" style="stop-color:#9CA3DB"/>
</radialGradient>
<path class="st10" d="M141.8,275.1c-0.4-8.5-0.6-12.8-1.1-21.2c162.5-25.3,324.7-25.3,487.2,0c-0.4,8.5-0.6,12.7-1.1,21.2
	C465.1,255.3,303.6,255.3,141.8,275.1z M628.7,239.7c0.4-8.5,0.6-12.7,1.1-21.1c-163.7-34.8-327-34.8-490.7,0
	c0.4,8.4,0.6,12.7,1.1,21.1C303.1,210.6,465.7,210.6,628.7,239.7z M623.3,346.4c0.4-8.6,0.6-12.9,1.1-21.5c-160-7.1-320-7.1-480.1,0
	c0.4,8.6,0.6,12.9,1.1,21.5C304.7,344.6,464,344.6,623.3,346.4z M629.5,204.3c-1.2-8.4-5.9-18-11.6-24.5c-155.8-40-311.4-40-467.2,0
	c-5.6,6.5-10.3,16.1-11.6,24.5C302.8,165.9,465.9,165.9,629.5,204.3z M625.1,310.6c0.4-8.6,0.6-12.8,1.1-21.4
	c-161.3-16.1-322.4-16.1-483.6,0c0.4,8.5,0.6,12.8,1.1,21.4C304.1,300,464.6,300,625.1,310.6z M193.5,537.8
	c127.2,26.9,254.5,26.9,381.7,0c9.6-8.2,18-17.7,24.9-28.1c-143.8,29.8-287.6,29.8-431.4,0C175.5,520.1,183.9,529.5,193.5,537.8z
	 M609.3,493c3.4-7.6,5.9-15.4,7.3-23.3c-154.9,26.2-309.6,26.2-464.4,0c1.4,7.9,3.9,15.7,7.3,23.3
	C309.4,522.2,459.3,522.2,609.3,493z M621.6,382.4c0.4-8.7,0.6-13,1.1-21.6c-158.8,1.6-317.7,1.6-476.5,0c0.4,8.6,0.6,13,1.1,21.6
	C305.3,389.1,463.4,389.1,621.6,382.4z M148.9,418.6c157,15.1,313.8,15.1,470.8,0c0.4-8.7,0.6-13.1,1.1-21.7
	c-157.7,10.1-315.3,10.1-473,0c0,0.1,0,0.2,0,0.3C148.3,405.7,148.5,410,148.9,418.6z M618,455c0.4-8.8,0.6-13.1,1.1-21.8
	c-156.5,18.4-312.9,18.4-469.4,0c0.4,8.7,0.6,13.1,1.1,21.8C306.5,478.1,462.2,478.1,618,455z"/>
<path d="M388.5,411.5c-26.2,0-51.3-10.1-74.1-14.3c-14.6-2.7-23.9,18.3-14.2,31.8c18,25.1,50.8,41.9,88.3,41.9s70.3-16.8,88.3-41.9
	c9.7-13.5,0.4-34.5-14.2-31.8C439.8,401.4,414.8,411.5,388.5,411.5z"/>
<circle cx="247" cy="319.5" r="42.5"/>
<circle cx="530" cy="319.5" r="42.5"/>
<path d="M770.5,142.9h9.4v-28.2h9.4V95.8h9.4v-9.4h9.4V77h18.8v-9.4h56.4V77h9.4v9.4h9.4v9.4h9.4v18.8h9.4V190h-9.4v9.4h-28.2V190
	h-9.4v-47.1h-9.4v-18.8h-18.8v9.4h-9.4v18.8h-9.4v103.6h9.4v18.8h9.4v9.4h28.2v-9.4h9.4v-9.4h9.4v-18.8h28.2v9.4h9.4v37.7h-9.4v9.4
	h-9.4v9.4h-9.4v9.4h-18.8v9.4h-56.4v-9.4h-18.8v-9.4h-9.4V303h-9.4v-18.8h-9.4v-18.8h-9.4V142.9z"/>
<path d="M946.4,142.9h9.4v-28.2h9.4V95.8h9.4v-9.4h9.4V77h18.8v-9.4h65.8V77h18.8v9.4h9.4v9.4h9.4v18.8h9.4v28.2h9.4v113h-9.4v28.2
	h-9.4V303h-9.4v9.4h-9.4v9.4h-18.8v9.4h-65.8v-9.4H984v-9.4h-9.4V303h-9.4v-18.8h-9.4v-28.2h-9.4V142.9z M1049.8,255.9h9.4v-9.4h9.4
	v-84.7h-9.4v-9.4h-9.4v-18.8h-9.4v-9.4h-9.4v9.4h-9.4v18.8h-9.4v9.4h-9.4v84.7h9.4v9.4h9.4v18.8h9.4v9.4h9.4v-9.4h9.4V255.9z"/>
<path d="M1143.1,95.8h9.4V77h18.8v-9.4h65.8V77h18.8v9.4h9.4v9.4h9.4v9.4h9.4v9.4h9.4v28.2h9.4v113h-9.4v28.2h-9.4v9.4h-9.4v9.4
	h-9.4v9.4h-9.4v9.4h-9.4v9.4h-75.2v-9.4h-18.8V303h-9.4V95.8z M1237,255.9h9.4v-113h-9.4v-9.4h-9.4v-9.4h-9.4v-9.4h-18.8v169.5h18.8
	v-9.4h9.4v-9.4h9.4V255.9z"/>
<path d="M1320.9,95.8h9.4v-9.4h9.4V77h9.4v-9.4h84.6V77h9.4v9.4h9.4v28.2h-75.2v65.9h56.4v9.4h9.4v18.8h-9.4v9.4h-56.4v65.9h65.8
	v9.4h9.4v28.2h-9.4v9.4h-94v-9.4h-9.4v-9.4h-9.4V303h-9.4V95.8z"/>
<path d="M869.5,346.6c81.2,0,100.4,90.9,53.7,130.3c60.7,33.7,48.1,140.4-31.7,140.4H763.8V346.6H869.5z M844.4,411.5v38.3h11.5
	c25.8-0.4,26.8-38.7,0-38.3H844.4z M862.2,552.3c28.6,0,28.6-41.8,0.7-41.8h-18.5v41.8H862.2z"/>
<g>
	<path class="st11" d="M1079.4,618.9c-46.1,0-95.7-31.4-95.7-100.2V355.1h63.5v163.2c0,24.1,16.2,36.7,32.2,36.7
		c20.7,0,31.9-18.9,31.9-36.7V355.1h63.5v163.6C1174.8,587.5,1125.3,618.9,1079.4,618.9z"/>
	<path d="M1166.3,363.6v155.1c0,28.7-9.4,52.6-27,69c-15.7,14.6-37,22.7-59.8,22.7c-23.1,0-44.4-8.1-60.2-22.7
		c-17.7-16.5-27.1-40.3-27.1-69V363.6h46.5v154.7c0,13,4.2,24.3,12,32.7c7.5,8,17.9,12.5,28.7,12.5c19.6,0,40.4-15.9,40.4-45.2
		V363.6H1166.3 M1183.3,346.6h-80.5v171.7c0,18.6-11.9,28.2-23.4,28.2c-11.9,0-23.7-9.7-23.7-28.2V346.6h-80.5v172.1
		c0,72.3,51.9,108.7,104.2,108.7c51.9,0,103.9-36.4,103.9-108.7V346.6L1183.3,346.6z"/>
</g>
<path d="M1297.6,617.3h-91.7V346.6h91.7c69,0.8,117.1,58.4,117.1,135.4C1414.8,558.9,1366.6,616.5,1297.6,617.3z M1286.5,552.3
	c61.4-3.5,61.4-137.3,0-140.8V552.3z"/>
<path d="M1526.3,617.3h-91.7V346.6h91.7c69,0.8,117.1,58.4,117.1,135.4C1643.5,558.9,1595.4,616.5,1526.3,617.3z M1515.2,552.3
	c61.4-3.5,61.4-137.3,0-140.8V552.3z"/>
<path d="M1629.9,346.6h84l32.8,89l32.4-89h84L1786.8,516v101.3h-80.5V516L1629.9,346.6z"/>
</svg>
