<?xml version="1.0" encoding="utf-8"?>
<!-- Generator: Adobe Illustrator 26.3.1, SVG Export Plug-In . SVG Version: 6.00 Build 0)  -->
<svg version="1.1" id="Layer_1" xmlns="http://www.w3.org/2000/svg" xmlns:xlink="http://www.w3.org/1999/xlink" x="0px" y="0px"
	 viewBox="0 0 1912.3 687.2" style="enable-background:new 0 0 1912.3 687.2;" xml:space="preserve">
<style type="text/css">
	.st0{fill:#FFFFFF;}
	.st1{display:none;}
	.st2{display:inline;fill:#8B95CC;}
	.st3{display:inline;}
	.st4{fill:#BAD1C3;}
	.st5{display:inline;fill:#F1FBED;}
	.st6{display:inline;fill:#9CA3DB;}
	.st7{display:inline;fill:#BDCCD4;}
	.st8{fill:#F9A03F;}
	.st9{fill:#F1FBED;}
	.st10{opacity:0.2;fill:url(#SVGID_1_);enable-background:new    ;}
</style>
<polygon class="st0" points="156.6,456.4 145.4,231.4 189.3,159.4 540.5,148.4 591,159.4 630.2,326.3 623.8,456.4 579.1,516.3 
	493.3,553.7 339.4,543.9 218.5,519.3 "/>
<polygon class="st0" points="822.3,362.5 822.3,353.1 803.5,353.1 803.5,343.7 794.1,343.7 794.1,334.3 784.7,334.3 784.7,315.5 
	775.3,315.5 775.3,296.6 765.9,296.6 765.9,144.2 775.3,144.2 775.3,116 784.7,116 784.7,97.1 794.1,97.1 794.1,87.7 803.5,87.7 
	803.5,78.3 822.3,78.3 822.3,68.9 908.7,68.9 908.7,78.3 918.1,78.3 918.1,87.7 927.5,87.7 927.5,97.1 936.8,97.1 936.8,116 
	946.2,116 946.2,221.3 936.8,221.3 936.8,230.7 878.7,230.7 878.7,221.3 869.3,221.3 869.3,174.2 861.7,174.2 861.7,183.6 
	852.3,183.6 852.3,257.2 861.7,257.2 861.7,276 878.7,276 878.7,266.6 888.1,266.6 888.1,247.8 946.2,247.8 946.2,257.2 
	955.6,257.2 955.6,324.9 946.2,324.9 946.2,334.3 936.8,334.3 936.8,343.7 927.5,343.7 927.5,353.1 908.7,353.1 908.7,362.5 "/>
<path class="st0" d="M998.2,362.5v-9.4h-18.8v-9.4H970v-9.4h-9.4v-18.8h-9.4v-28.2h-9.4v-143h9.4V116h9.4V97.1h9.4v-9.4h9.4v-9.4
	h18.8v-9.4h95.8v9.4h18.8v9.4h9.4v9.4h9.4V116h9.4v28.2h9.4v143h-9.4v28.2h-9.4v18.8h-9.4v9.4h-9.4v9.4H1094v9.4H998.2z
	 M1054.6,257.2v-9.4h9.4v-54.7h-9.4v-9.4h-17v9.4h-9.4v54.7h9.4v9.4h9.4H1054.6z"/>
<path class="st0" d="M1166.6,362.5v-9.4h-18.8v-18.8h-9.4V97.1h9.4V78.3h18.8v-9.4h95.8v9.4h18.8v9.4h9.4v9.4h9.4v9.4h9.4v9.4h9.4
	v28.2h9.4v143h-9.4v28.2h-9.4v9.4h-9.4v9.4h-9.4v9.4h-9.4v9.4h-9.4v9.4H1166.6z M1232.4,266.6v-9.4h9.4v-83h-9.4v-9.4h-7.6v101.8
	H1232.4z"/>
<polygon class="st0" points="1344.4,362.5 1344.4,353.1 1335,353.1 1335,343.7 1325.6,343.7 1325.6,334.3 1316.2,334.3 1316.2,97.1 
	1325.6,97.1 1325.6,87.7 1335,87.7 1335,78.3 1344.4,78.3 1344.4,68.9 1459,68.9 1459,78.3 1468.4,78.3 1468.4,87.7 1477.8,87.7 
	1477.8,146 1402.6,146 1402.6,181.9 1459,181.9 1459,191.3 1468.4,191.3 1468.4,240.1 1459,240.1 1459,249.5 1402.6,249.5 
	1402.6,285.5 1468.4,285.5 1468.4,294.9 1477.8,294.9 1477.8,353.1 1468.4,353.1 1468.4,362.5 "/>
<path class="st0" d="M759.2,648.6V347.9h120.6c41.9,0,74.8,21.6,88.1,57.9c10.8,29.4,5.9,61.6-11.8,85.2
	c10.8,9.6,19.2,21.8,24.4,36.1c6.9,18.6,7.9,39.5,3,58.7c-10,38.8-41.4,62.8-81.8,62.8H759.2z M872.5,553.7c4.3,0,6.5-2,6.5-6.1
	c0-5.7-4.4-5.7-5.8-5.7h-3.5v11.8H872.5z M869.7,449.9c0.8-0.8,1.3-2,1.2-3.5c0-1.5-0.4-2.4-1.2-2.9V449.9z"/>
<path class="st0" d="M1089.7,658.7c-31.2,0-60.3-11.1-81.9-31.2c-24.4-22.7-37.3-54.6-37.3-92.5V347.9H1081v186.7
	c0,9.1,4.4,13.2,8.7,13.2c4,0,8.4-4.1,8.4-13.2V347.9h110.5V535c0,37.8-12.9,69.8-37.2,92.4C1149.7,647.6,1120.7,658.7,1089.7,658.7
	z"/>
<path class="st0" d="M1089.7,658.7c-31.2,0-60.3-11.1-81.9-31.2c-24.4-22.7-37.3-54.6-37.3-92.5V347.9H1081v186.7
	c0,9.1,4.4,13.2,8.7,13.2c4,0,8.4-4.1,8.4-13.2V347.9h110.5V535c0,37.8-12.9,69.8-37.2,92.4C1149.7,647.6,1120.7,658.7,1089.7,658.7
	z M1017.5,535c0,24.4,7.7,44.5,22.3,58c13,12,30.7,18.7,50,18.7c19.1,0,36.7-6.6,49.6-18.6c14.6-13.6,22.3-33.6,22.3-58V394.9h-16.5
	v139.7c0,22.3-9.4,36.4-17.2,44.2c-10.2,10.2-24.1,16-38.1,16c-14.9,0-29.3-6.3-39.6-17.3c-10.5-11.2-16.1-26.1-16.1-43V394.9h-16.5
	V535z"/>
<path class="st0" d="M1201.3,648.6V347.9l106.9,0c76.5,0.9,132,64.1,132,150.4c0,86.3-55.5,149.5-132,150.4l-0.1,0H1201.3z
	 M1311.8,546.6c2.4-2.3,4.6-5.1,6.6-8.5c6-10.2,9.4-24.8,9.4-39.8c0-15.1-3.4-29.6-9.4-39.8c-2-3.4-4.2-6.2-6.6-8.5V546.6z"/>
<path class="st0" d="M1430,648.6V347.9l106.9,0c76.5,0.9,132,64.1,132,150.4c0,86.3-55.5,149.5-132,150.4l-0.1,0H1430z
	 M1540.5,546.6c2.4-2.3,4.6-5.1,6.6-8.5c6-10.2,9.4-24.8,9.4-39.8c0-15.1-3.4-29.6-9.4-39.8c-2-3.4-4.2-6.2-6.6-8.5V546.6z"/>
<polygon class="st0" points="1701.6,648.6 1701.6,535.5 1617,347.9 1734.7,347.9 1757,408.2 1779,347.9 1896.7,347.9 1812.1,535.5 
	1812.1,648.6 "/>
<g id="Layer_1_00000042700427122550223860000016171415287862758302_" class="st1">
	<path class="st2" d="M1424.9,815.9H863.7c-30.8,0-56.4-23.9-58.3-54.7l-32.5-504.1c-2.2-33.7,24.6-92.2,58.4-92.2h626.1
		c33.8,0,60.5,58.5,58.3,92.2l-32.5,504.1C1481.3,792,1455.7,815.9,1424.9,815.9z"/>
	<g class="st3">
		<path class="st4" d="M1359.2,285.5h-24.7l0.7,0.4l-43.7,26.7c-111,67.9-190.7,177.6-218.8,304.6c-0.4,1.8-0.8,3.6-1.2,5.5l0,0
			c-5.1,24.5-33.4,35.9-54.6,22L913.8,577c-8.9-5.8-16.6-12.9-23-20.8l3.3,72.2c2.5,54.2,47.1,96.9,101.4,96.9h297.6
			c54.3,0,98.9-42.7,101.4-96.9l13.3-292C1409.1,308.7,1387,285.5,1359.2,285.5z"/>
		<path class="st4" d="M929.4,285.5c-27.7,0-49.8,23.1-48.6,50.8l4,88.4c17.6-50.5,43.3-97.5,76.1-139.2H929.4L929.4,285.5z"/>
	</g>
	<path class="st5" d="M913.8,577l103.1,67.7c21.1,13.9,49.4,2.5,54.6-22l0,0c0.4-1.8,0.8-3.7,1.2-5.5
		c28.2-127,107.8-236.7,218.8-304.6l43.7-26.7l-0.7-0.4H960.9c-32.8,41.7-58.5,88.7-76.1,139.2l6,131.5
		C897.2,564.1,905,571.2,913.8,577z"/>
	<path class="st5" d="M1200.3,528l44.1-29.7c42.8-28.9,100.9-17.6,129.8,25.2l0,0c28.9,42.8,17.6,100.9-25.2,129.8l-44.1,29.7
		c-42.8,28.9-100.9,17.6-129.8-25.2l0,0C1146.3,615,1157.5,556.9,1200.3,528z"/>
	<g class="st3">
		<path d="M1217.4,617.3c0,30.5-35,52.1-78.1,52.1s-78.1-21.6-78.1-52.1s35-4.2,78.1-4.2S1217.4,586.8,1217.4,617.3z"/>
		<g>
			<ellipse transform="matrix(0.3302 -0.9439 0.9439 0.3302 402.3628 1496.6907)" cx="1255.8" cy="464.8" rx="82.6" ry="28.1"/>
			<ellipse transform="matrix(0.9439 -0.3302 0.3302 0.9439 -95.5482 367.1014)" cx="1032.8" cy="464.8" rx="28.1" ry="82.6"/>
		</g>
	</g>
	<path class="st6" d="M136.9,815.9h-561.2c-30.8,0-56.4-23.9-58.3-54.7l-32.5-504.1c-2.2-33.7,24.6-92.2,58.3-92.2h626.1
		c33.8,0,60.5,58.5,58.3,92.2l-32.5,504.1C193.3,792,167.7,815.9,136.9,815.9z"/>
	<path class="st7" d="M5.1,725.3h-297.6c-54.3,0-98.9-42.7-101.4-96.9l-13.3-292c-1.3-27.7,20.9-50.8,48.6-50.8H71.2
		c27.7,0,49.8,23.1,48.6,50.8l-13.3,292C104.1,682.6,59.4,725.3,5.1,725.3z"/>
	<path class="st5" d="M-271.1,644.7L-374.2,577c-35.2-23.1-52.2-65.5-42.5-106l0,0c27.9-116.7,98.1-218.5,197.3-286l34-23.1
		l232.6,124L3.5,312.6c-111,67.9-190.7,177.6-218.8,304.6c-0.4,1.8-0.8,3.6-1.2,5.5l0,0C-221.7,647.2-250,658.6-271.1,644.7z"/>
	<path class="st5" d="M-87.7,528l44.1-29.7c42.8-28.9,100.9-17.6,129.8,25.2l0,0c28.9,42.8,17.6,100.9-25.2,129.8L16.9,683
		c-42.8,28.9-100.9,17.6-129.8-25.2l0,0C-141.7,615-130.5,556.9-87.7,528z"/>
	<g class="st3">
		<path d="M-70.6,617.3c0,30.5-35,52.1-78.1,52.1s-78.1-21.6-78.1-52.1s35-4.2,78.1-4.2C-105.5,613.2-70.6,586.8-70.6,617.3z"/>
		<g>
			<ellipse transform="matrix(0.3302 -0.9439 0.9439 0.3302 -460.3211 280.928)" cx="-32.2" cy="464.8" rx="82.6" ry="28.1"/>
			<ellipse transform="matrix(0.9439 -0.3302 0.3302 0.9439 -167.7909 -58.1963)" cx="-255.2" cy="464.8" rx="28.1" ry="82.6"/>
		</g>
	</g>
</g>
<path d="M780.9,159.2h9.4V131h9.4v-18.8h9.4v-9.4h9.4v-9.4h18.8v-9.4h56.4v9.4h9.4v9.4h9.4v9.4h9.4V131h9.4v75.3h-9.4v9.4h-28.2
	v-9.4h-9.4v-47.1h-9.4v-18.8h-18.8v9.4h-9.4v18.8h-9.4v103.6h9.4V291h9.4v9.4h28.2V291h9.4v-9.4h9.4v-18.8h28.2v9.4h9.4v37.7h-9.4
	v9.4h-9.4v9.4h-9.4v9.4h-18.8v9.4h-56.4v-9.4h-18.8v-9.4h-9.4v-9.4h-9.4v-18.8h-9.4v-18.8h-9.4V159.2z"/>
<path d="M956.8,159.2h9.4V131h9.4v-18.8h9.4v-9.4h9.4v-9.4h18.8v-9.4h65.8v9.4h18.8v9.4h9.4v9.4h9.4V131h9.4v28.2h9.4v113h-9.4v28.2
	h-9.4v18.8h-9.4v9.4h-9.4v9.4H1079v9.4h-65.8v-9.4h-18.8v-9.4H985v-9.4h-9.4v-18.8h-9.4v-28.2h-9.4V159.2z M1060.2,272.2h9.4v-9.4
	h9.4v-84.7h-9.4v-9.4h-9.4v-18.8h-9.4v-9.4h-9.4v9.4h-9.4v18.8h-9.4v9.4h-9.4v84.7h9.4v9.4h9.4V291h9.4v9.4h9.4V291h9.4V272.2z"/>
<path d="M1153.4,112.1h9.4V93.3h18.8v-9.4h65.8v9.4h18.8v9.4h9.4v9.4h9.4v9.4h9.4v9.4h9.4v28.2h9.4v113h-9.4v28.2h-9.4v9.4h-9.4v9.4
	h-9.4v9.4h-9.4v9.4h-9.4v9.4h-75.2v-9.4h-18.8v-18.8h-9.4V112.1z M1247.4,272.2h9.4v-113h-9.4v-9.4h-9.4v-9.4h-9.4V131h-18.8v169.5
	h18.8V291h9.4v-9.4h9.4V272.2z"/>
<path d="M1331.2,112.1h9.4v-9.4h9.4v-9.4h9.4v-9.4h84.6v9.4h9.4v9.4h9.4V131h-75.2v65.9h56.4v9.4h9.4v18.8h-9.4v9.4h-56.4v65.9h65.8
	v9.4h9.4v28.2h-9.4v9.4h-94v-9.4h-9.4v-9.4h-9.4v-9.4h-9.4V112.1z"/>
<path d="M879.8,362.9c81.2,0,100.4,90.9,53.7,130.3c60.7,33.7,48.1,140.4-31.7,140.4H774.2V362.9H879.8z M854.7,427.9v38.3h11.5
	c25.8-0.4,26.8-38.7,0-38.3H854.7z M872.5,568.7c28.6,0,28.6-41.8,0.7-41.8h-18.5v41.8H872.5z"/>
<path class="st8" d="M1066,362.9v171.7c0,18.6,11.9,28.2,23.7,28.2c11.5,0,23.4-9.7,23.4-28.2V362.9h80.5V535
	c0,72.3-51.9,108.7-103.9,108.7c-52.3,0-104.2-36.4-104.2-108.7V362.9H1066z"/>
<path d="M1176.6,379.9V535c0,28.7-9.4,52.6-27,69c-15.7,14.6-37,22.7-59.8,22.7c-23.1,0-44.4-8.1-60.2-22.7
	c-17.7-16.5-27.1-40.3-27.1-69V379.9h46.5v154.7c0,13,4.2,24.3,12,32.7c7.5,8,17.9,12.5,28.7,12.5c19.6,0,40.4-15.9,40.4-45.2V379.9
	H1176.6 M1193.6,362.9h-80.5v171.7c0,18.6-11.9,28.2-23.4,28.2c-11.9,0-23.7-9.7-23.7-28.2V362.9h-80.5V535
	c0,72.3,51.9,108.7,104.2,108.7c51.9,0,103.9-36.4,103.9-108.7V362.9L1193.6,362.9z"/>
<path d="M1308,633.6h-91.7V362.9h91.7c69,0.8,117.1,58.4,117.1,135.4C1425.1,575.2,1377,632.9,1308,633.6z M1296.8,568.7
	c61.4-3.5,61.4-137.3,0-140.8V568.7z"/>
<path d="M1536.7,633.6H1445V362.9h91.7c69,0.8,117.1,58.4,117.1,135.4C1653.8,575.2,1605.7,632.9,1536.7,633.6z M1525.5,568.7
	c61.4-3.5,61.4-137.3,0-140.8V568.7z"/>
<path d="M1640.2,362.9h84l32.8,89l32.4-89h84l-76.4,169.4v101.3h-80.5V532.3L1640.2,362.9z"/>
<path d="M122.5,671.4c-33.5,0-61.5-27.2-63.7-62L28.5,123.9C26.9,98.4,39.1,63.7,57,43.2c10.7-12.3,22.9-18.8,35.2-18.8h583.7
	c12.3,0,24.5,6.5,35.2,18.8c17.8,20.4,30.1,55.1,28.5,80.7l-30.2,485.5c-2.2,34.8-30.1,62-63.7,62H122.5z"/>
<path class="st8" d="M631,643.8H137.1c-27.1,0-49.6-21.8-51.4-49.7L57.1,135.8C55.2,105.2,78.7,52,108.5,52h551
	c29.7,0,53.2,53.2,51.4,82.2l-28.5,458.3C680.6,622,658.1,643.8,631,643.8z"/>
<path class="st9" d="M591,159.4c-9.1-2.3-13.7-3.4-22.9-5.4c0.2,0.2,0.4,0.3,0.6,0.5c-13.8,5.4-27.3,11.2-40.7,17.3
	c-114.5,52.4-181.8,182.1-205.2,295.1c-0.4,1.8-0.7,3.6-1.1,5.4l0,0c-2.7,23.8-32.9,31.2-51.1,18c-31.5-24.5-63.3-48.7-95.8-72.1
	c-7.8-5.2-15.5-12.3-21.2-19.6c1,20.6,2,41.1,3,61.7c3.1,46.5,43.9,97,94,104.5c93,15.5,185.9,15.5,278.9,0
	c48.5-9.6,93-56.7,94-104.5c4-82,8.1-164,12.2-246C638.2,189.6,614.2,166.1,591,159.4z M581.6,488.8c-13.7,11.3-27.3,22.6-40.9,34
	c-37.2,32.3-94.7,27.4-121.5-14l0,0c-25.1-40.7-18.5-102,23.7-130.8c13.7-9.9,27.5-19.8,41.3-29.6c38.6-27.3,94.5-13.5,120.8,22.8
	l0,0C632.7,409.6,616.7,460.1,581.6,488.8z"/>
<path class="st9" d="M189.3,159.4c-24.9,5.3-44.9,31.1-44.8,54.8c1.2,24.5,2.5,49,3.7,73.4c18.4-47.5,42.3-92.1,70.3-135.1
	C208.7,154.6,199,156.9,189.3,159.4z"/>
<path class="st0" d="M528.1,171.7c13.4-6.2,26.9-11.9,40.7-17.3c-0.2-0.2-0.4-0.3-0.6-0.5c-116.4-24.8-233.1-25.4-349.6-1.4
	c-28,43-51.9,87.6-70.3,135.1c1.8,37,3.7,73.9,5.5,110.9c5.7,7.3,13.4,14.3,21.2,19.6c32.5,23.3,64.2,47.6,95.8,72.1
	c18.2,13.2,48.4,5.9,51.1-18l0,0c0.4-1.8,0.7-3.6,1.1-5.4C346.3,353.8,413.5,224.1,528.1,171.7z"/>
<path class="st0" d="M604.9,371.2c-26.3-36.4-82.2-50.1-120.8-22.8c-13.8,9.8-27.6,19.7-41.3,29.6c-42.2,28.8-48.7,90.1-23.7,130.8
	l0,0c26.9,41.4,84.3,46.3,121.5,14c13.6-11.4,27.2-22.7,40.9-34C616.7,460.1,632.7,409.6,604.9,371.2L604.9,371.2z"/>
<radialGradient id="SVGID_1_" cx="378.9408" cy="765.2071" r="247.4716" gradientTransform="matrix(0.9323 0 0 0.8846 36.9425 -321.6315)" gradientUnits="userSpaceOnUse">
	<stop  offset="0" style="stop-color:#F1FBED"/>
	<stop  offset="1" style="stop-color:#9CA3DB"/>
</radialGradient>
<path class="st10" d="M147.6,276.5c-0.4-8.5-0.6-12.8-1.1-21.2c162.5-25.3,324.7-25.3,487.2,0c-0.4,8.5-0.6,12.7-1.1,21.2
	C470.9,256.7,309.4,256.7,147.6,276.5z M634.5,241.1c0.4-8.5,0.6-12.7,1.1-21.1c-163.7-34.8-327-34.8-490.7,0
	c0.4,8.4,0.6,12.7,1.1,21.1C308.9,212,471.5,212,634.5,241.1z M629.1,347.8c0.4-8.6,0.6-12.9,1.1-21.5c-160-7.1-320-7.1-480.1,0
	c0.4,8.6,0.6,12.9,1.1,21.5C310.5,346,469.8,346,629.1,347.8z M635.3,205.7c-1.2-8.4-5.9-18-11.6-24.5c-155.8-40-311.4-40-467.2,0
	c-5.6,6.5-10.3,16.1-11.6,24.5C308.6,167.3,471.7,167.3,635.3,205.7z M630.9,312c0.4-8.6,0.6-12.8,1.1-21.4
	c-161.3-16.1-322.4-16.1-483.6,0c0.4,8.5,0.6,12.8,1.1,21.4C309.9,301.4,470.4,301.4,630.9,312z M199.3,539.2
	c127.2,26.9,254.5,26.9,381.7,0c9.6-8.2,18-17.7,24.9-28.1c-143.8,29.8-287.6,29.8-431.4,0C181.3,521.5,189.7,530.9,199.3,539.2z
	 M615.1,494.4c3.4-7.6,5.9-15.4,7.3-23.3c-154.9,26.2-309.6,26.2-464.4,0c1.4,7.9,3.9,15.7,7.3,23.3
	C315.2,523.6,465.1,523.6,615.1,494.4z M627.4,383.8c0.4-8.7,0.6-13,1.1-21.6c-158.8,1.6-317.7,1.6-476.5,0c0.4,8.6,0.6,13,1.1,21.6
	C311.1,390.5,469.2,390.5,627.4,383.8z M154.7,420c157,15.1,313.8,15.1,470.8,0c0.4-8.7,0.6-13.1,1.1-21.7
	c-157.7,10.1-315.3,10.1-473,0c0,0.1,0,0.2,0,0.3C154.1,407.1,154.3,411.4,154.7,420z M623.8,456.4c0.4-8.8,0.6-13.1,1.1-21.8
	C468.4,453,312,453,155.5,434.6c0.4,8.7,0.6,13.1,1.1,21.8C312.3,479.5,468,479.5,623.8,456.4z"/>
<path d="M394.3,412.9c-26.2,0-51.3-10.1-74.1-14.3c-14.6-2.7-23.9,18.3-14.2,31.8c18,25.1,50.8,41.9,88.3,41.9s70.3-16.8,88.3-41.9
	c9.7-13.5,0.4-34.5-14.2-31.8C445.6,402.8,420.6,412.9,394.3,412.9z"/>
<ellipse transform="matrix(0.1602 -0.9871 0.9871 0.1602 -104.4515 518.9984)" cx="252.8" cy="320.9" rx="42.5" ry="42.5"/>
<circle cx="535.8" cy="320.9" r="42.5"/>
</svg>
