<?xml version="1.0" encoding="utf-8"?>
<!-- Generator: Adobe Illustrator 26.3.1, SVG Export Plug-In . SVG Version: 6.00 Build 0)  -->
<svg version="1.1" id="Layer_1" xmlns="http://www.w3.org/2000/svg" xmlns:xlink="http://www.w3.org/1999/xlink" x="0px" y="0px"
	 viewBox="0 0 25 25" style="enable-background:new 0 0 25 25;" xml:space="preserve">
<style type="text/css">
	.st0{fill:#DAF8CE;}
</style>
<g id="Layer_2">
	<g id="Layer_3">
		<g id="Layer_4">
		</g>
		<g id="Layer_5">
		</g>
	</g>
</g>
<g>
	<g>
		<g>
			<rect x="0.7" y="0" class="st0" width="0.1" height="4.2"/>
		</g>
		<g>
			<path class="st0" d="M1,4.5c0,0.2-0.1,0.3-0.3,0.3c-0.2,0-0.3-0.1-0.3-0.3c0-0.2,0.1-0.3,0.3-0.3C0.9,4.2,1,4.3,1,4.5z M0.6,4.5
				c0,0.1,0.1,0.2,0.2,0.2c0.1,0,0.2-0.1,0.2-0.2c0-0.1-0.1-0.2-0.2-0.2C0.6,4.3,0.6,4.4,0.6,4.5z"/>
		</g>
		<g>
			<path class="st0" d="M0.8,11c0,0.2-0.1,0.3-0.3,0.3c-0.1,0-0.3-0.1-0.3-0.3c0-0.2,0.1-0.3,0.3-0.3C0.7,10.8,0.8,10.9,0.8,11z
				 M0.3,11c0,0.1,0.1,0.2,0.2,0.2s0.2-0.1,0.2-0.2s-0.1-0.2-0.2-0.2S0.3,10.9,0.3,11z"/>
		</g>
		<g>
			<path class="st0" d="M1.9,6.6c0,0.2-0.1,0.3-0.3,0.3S1.4,6.8,1.4,6.6c0-0.2,0.1-0.3,0.3-0.3S1.9,6.5,1.9,6.6z M1.5,6.6
				c0,0.1,0.1,0.2,0.2,0.2c0.1,0,0.2-0.1,0.2-0.2c0-0.1-0.1-0.2-0.2-0.2C1.5,6.5,1.5,6.6,1.5,6.6z"/>
		</g>
		<g>
			<path class="st0" d="M0.8,8.8C0.8,8.9,0.7,9,0.5,9C0.4,9,0.2,8.9,0.2,8.8c0-0.2,0.1-0.3,0.3-0.3C0.7,8.5,0.8,8.6,0.8,8.8z
				 M0.3,8.8c0,0.1,0.1,0.2,0.2,0.2s0.2-0.1,0.2-0.2c0-0.1-0.1-0.2-0.2-0.2S0.3,8.7,0.3,8.8z"/>
		</g>
		<g>
			<path class="st0" d="M0.8,9.7c0,0.2-0.1,0.3-0.3,0.3c-0.1,0-0.3-0.1-0.3-0.3c0-0.2,0.1-0.3,0.3-0.3C0.7,9.4,0.8,9.5,0.8,9.7z
				 M0.3,9.7c0,0.1,0.1,0.2,0.2,0.2s0.2-0.1,0.2-0.2c0-0.1-0.1-0.2-0.2-0.2S0.3,9.6,0.3,9.7z"/>
		</g>
		<g>
			<path class="st0" d="M3,9.7c0,0.2-0.1,0.3-0.3,0.3c-0.2,0-0.3-0.1-0.3-0.3c0-0.2,0.1-0.3,0.3-0.3C2.9,9.4,3,9.5,3,9.7z M2.6,9.7
				c0,0.1,0.1,0.2,0.2,0.2c0.1,0,0.2-0.1,0.2-0.2c0-0.1-0.1-0.2-0.2-0.2C2.6,9.5,2.6,9.6,2.6,9.7z"/>
		</g>
		<g>
			<path class="st0" d="M6.6,3.8C6.6,3.9,6.4,4,6.3,4C6.1,4,6,3.9,6,3.8c0-0.2,0.1-0.3,0.3-0.3C6.4,3.5,6.6,3.6,6.6,3.8z M6.1,3.8
				c0,0.1,0.1,0.2,0.2,0.2c0.1,0,0.2-0.1,0.2-0.2c0-0.1-0.1-0.2-0.2-0.2C6.2,3.6,6.1,3.7,6.1,3.8z"/>
		</g>
		<g>
			<path class="st0" d="M6.3,2.3c0,0.2-0.1,0.3-0.3,0.3c-0.2,0-0.3-0.1-0.3-0.3c0-0.2,0.1-0.3,0.3-0.3C6.2,2.1,6.3,2.2,6.3,2.3z
				 M5.9,2.3c0,0.1,0.1,0.2,0.2,0.2c0.1,0,0.2-0.1,0.2-0.2c0-0.1-0.1-0.2-0.2-0.2C6,2.2,5.9,2.2,5.9,2.3z"/>
		</g>
		<g>
			<path class="st0" d="M6.3,4.9c0,0.2-0.1,0.3-0.3,0.3c-0.2,0-0.3-0.1-0.3-0.3c0-0.2,0.1-0.3,0.3-0.3C6.2,4.7,6.3,4.8,6.3,4.9z
				 M5.9,4.9C5.9,5,6,5.1,6.1,5.1c0.1,0,0.2-0.1,0.2-0.2c0-0.1-0.1-0.2-0.2-0.2C6,4.8,5.9,4.8,5.9,4.9z"/>
		</g>
		<g>
			<path class="st0" d="M5.5,4.9c0,0.2-0.1,0.3-0.3,0.3C5,5.2,4.9,5,4.9,4.9c0-0.2,0.1-0.3,0.3-0.3C5.3,4.6,5.5,4.7,5.5,4.9z M5,4.9
				C5,5,5.1,5.1,5.2,5.1c0.1,0,0.2-0.1,0.2-0.2c0-0.1-0.1-0.2-0.2-0.2C5.1,4.7,5,4.8,5,4.9z"/>
		</g>
		<g>
			<path class="st0" d="M5.5,9c0,0.2-0.1,0.3-0.3,0.3C5,9.3,4.9,9.1,4.9,9c0-0.2,0.1-0.3,0.3-0.3C5.3,8.7,5.5,8.8,5.5,9z M5,9
				c0,0.1,0.1,0.2,0.2,0.2c0.1,0,0.2-0.1,0.2-0.2c0-0.1-0.1-0.2-0.2-0.2C5.1,8.8,5,8.9,5,9z"/>
		</g>
		<g>
			<path class="st0" d="M6.6,7.9c0,0.2-0.1,0.3-0.3,0.3C6.1,8.2,6,8,6,7.9c0-0.2,0.1-0.3,0.3-0.3C6.4,7.6,6.6,7.7,6.6,7.9z M6.1,7.9
				c0,0.1,0.1,0.2,0.2,0.2c0.1,0,0.2-0.1,0.2-0.2c0-0.1-0.1-0.2-0.2-0.2C6.2,7.7,6.1,7.8,6.1,7.9z"/>
		</g>
		<g>
			<path class="st0" d="M4.3,7.9c0,0.2-0.1,0.3-0.3,0.3C3.9,8.2,3.8,8,3.8,7.9c0-0.2,0.1-0.3,0.3-0.3C4.2,7.6,4.3,7.7,4.3,7.9z
				 M3.9,7.9C3.9,8,4,8.1,4.1,8.1c0.1,0,0.2-0.1,0.2-0.2c0-0.1-0.1-0.2-0.2-0.2C4,7.7,3.9,7.8,3.9,7.9z"/>
		</g>
		<g>
			<path class="st0" d="M4.6,15.1c0,0.2-0.1,0.3-0.3,0.3c-0.1,0-0.3-0.1-0.3-0.3c0-0.2,0.1-0.3,0.3-0.3C4.4,14.9,4.6,15,4.6,15.1z
				 M4.1,15.1c0,0.1,0.1,0.2,0.2,0.2c0.1,0,0.2-0.1,0.2-0.2C4.5,15,4.4,15,4.3,15C4.2,15,4.1,15,4.1,15.1z"/>
		</g>
		<g>
			<path class="st0" d="M4.6,7.2c0,0.2-0.1,0.3-0.3,0.3C4.1,7.4,4,7.3,4,7.2C4,7,4.1,6.9,4.3,6.9C4.4,6.9,4.6,7,4.6,7.2z M4.1,7.2
				c0,0.1,0.1,0.2,0.2,0.2c0.1,0,0.2-0.1,0.2-0.2C4.5,7.1,4.4,7,4.3,7C4.2,7,4.1,7.1,4.1,7.2z"/>
		</g>
		<g>
			<path class="st0" d="M3.7,13.2c0,0.2-0.1,0.3-0.3,0.3c-0.1,0-0.3-0.1-0.3-0.3s0.1-0.3,0.3-0.3C3.6,12.9,3.7,13.1,3.7,13.2z
				 M3.2,13.2c0,0.1,0.1,0.2,0.2,0.2c0.1,0,0.2-0.1,0.2-0.2c0-0.1-0.1-0.2-0.2-0.2C3.3,13,3.2,13.1,3.2,13.2z"/>
		</g>
		<g>
			<path class="st0" d="M3.7,14.7c0,0.2-0.1,0.3-0.3,0.3c-0.1,0-0.3-0.1-0.3-0.3s0.1-0.3,0.3-0.3C3.6,14.4,3.7,14.5,3.7,14.7z
				 M3.2,14.7c0,0.1,0.1,0.2,0.2,0.2c0.1,0,0.2-0.1,0.2-0.2c0-0.1-0.1-0.2-0.2-0.2C3.3,14.5,3.2,14.6,3.2,14.7z"/>
		</g>
		<g>
			<path class="st0" d="M5.5,20.8c0,0.2-0.1,0.3-0.3,0.3c-0.2,0-0.3-0.1-0.3-0.3c0-0.2,0.1-0.3,0.3-0.3C5.3,20.6,5.5,20.7,5.5,20.8z
				 M5,20.8C5,20.9,5.1,21,5.2,21c0.1,0,0.2-0.1,0.2-0.2c0-0.1-0.1-0.2-0.2-0.2C5.1,20.7,5,20.8,5,20.8z"/>
		</g>
		<g>
			<path class="st0" d="M6.3,13.4c0,0.2-0.1,0.3-0.3,0.3c-0.2,0-0.3-0.1-0.3-0.3c0-0.2,0.1-0.3,0.3-0.3C6.2,13.2,6.3,13.3,6.3,13.4z
				 M5.9,13.4c0,0.1,0.1,0.2,0.2,0.2c0.1,0,0.2-0.1,0.2-0.2c0-0.1-0.1-0.2-0.2-0.2C6,13.3,5.9,13.3,5.9,13.4z"/>
		</g>
		<g>
			<path class="st0" d="M4.6,19c0,0.2-0.1,0.3-0.3,0.3C4.1,19.3,4,19.2,4,19c0-0.2,0.1-0.3,0.3-0.3C4.4,18.7,4.6,18.8,4.6,19z
				 M4.1,19c0,0.1,0.1,0.2,0.2,0.2c0.1,0,0.2-0.1,0.2-0.2c0-0.1-0.1-0.2-0.2-0.2C4.2,18.8,4.1,18.9,4.1,19z"/>
		</g>
		<g>
			<path class="st0" d="M4.6,22.5c0,0.2-0.1,0.3-0.3,0.3c-0.2,0-0.3-0.1-0.3-0.3c0-0.2,0.1-0.3,0.3-0.3C4.4,22.2,4.6,22.3,4.6,22.5z
				 M4.1,22.5c0,0.1,0.1,0.2,0.2,0.2c0.1,0,0.2-0.1,0.2-0.2c0-0.1-0.1-0.2-0.2-0.2C4.2,22.3,4.1,22.4,4.1,22.5z"/>
		</g>
		<g>
			<path class="st0" d="M1.9,12.5c0,0.2-0.1,0.3-0.3,0.3s-0.3-0.1-0.3-0.3s0.1-0.3,0.3-0.3S1.9,12.3,1.9,12.5z M1.5,12.5
				c0,0.1,0.1,0.2,0.2,0.2c0.1,0,0.2-0.1,0.2-0.2s-0.1-0.2-0.2-0.2C1.5,12.3,1.5,12.4,1.5,12.5z"/>
		</g>
		<g>
			<path class="st0" d="M3,15.9c0,0.2-0.1,0.3-0.3,0.3c-0.2,0-0.3-0.1-0.3-0.3c0-0.2,0.1-0.3,0.3-0.3C2.9,15.7,3,15.8,3,15.9z
				 M2.6,15.9c0,0.1,0.1,0.2,0.2,0.2c0.1,0,0.2-0.1,0.2-0.2c0-0.1-0.1-0.2-0.2-0.2C2.6,15.8,2.6,15.8,2.6,15.9z"/>
		</g>
		<g>
			<path class="st0" d="M1.9,16.7c0,0.2-0.1,0.3-0.3,0.3c-0.1,0-0.3-0.1-0.3-0.3c0-0.2,0.1-0.3,0.3-0.3C1.8,16.4,1.9,16.5,1.9,16.7z
				 M1.5,16.7c0,0.1,0.1,0.2,0.2,0.2c0.1,0,0.2-0.1,0.2-0.2c0-0.1-0.1-0.2-0.2-0.2C1.5,16.5,1.5,16.6,1.5,16.7z"/>
		</g>
		<g>
			<path class="st0" d="M2.8,20.1c0,0.2-0.1,0.3-0.3,0.3c-0.1,0-0.3-0.1-0.3-0.3c0-0.2,0.1-0.3,0.3-0.3C2.7,19.9,2.8,20,2.8,20.1z
				 M2.3,20.1c0,0.1,0.1,0.2,0.2,0.2c0.1,0,0.2-0.1,0.2-0.2C2.7,20,2.6,20,2.5,20C2.4,20,2.3,20,2.3,20.1z"/>
		</g>
		<g>
			<path class="st0" d="M1.9,21.6c0,0.2-0.1,0.3-0.3,0.3c-0.1,0-0.3-0.1-0.3-0.3c0-0.2,0.1-0.3,0.3-0.3C1.8,21.3,1.9,21.4,1.9,21.6z
				 M1.5,21.6c0,0.1,0.1,0.2,0.2,0.2c0.1,0,0.2-0.1,0.2-0.2c0-0.1-0.1-0.2-0.2-0.2C1.5,21.4,1.5,21.5,1.5,21.6z"/>
		</g>
		<g>
			<path class="st0" d="M3.7,24.7c0,0.2-0.1,0.3-0.3,0.3c-0.1,0-0.3-0.1-0.3-0.3s0.1-0.3,0.3-0.3C3.6,24.5,3.7,24.6,3.7,24.7z
				 M3.2,24.7c0,0.1,0.1,0.2,0.2,0.2c0.1,0,0.2-0.1,0.2-0.2c0-0.1-0.1-0.2-0.2-0.2C3.3,24.6,3.2,24.6,3.2,24.7z"/>
		</g>
		<g>
			<path class="st0" d="M1,16.4c0,0.2-0.1,0.3-0.3,0.3c-0.2,0-0.3-0.1-0.3-0.3c0-0.2,0.1-0.3,0.3-0.3C0.9,16.1,1,16.2,1,16.4z
				 M0.6,16.4c0,0.1,0.1,0.2,0.2,0.2c0.1,0,0.2-0.1,0.2-0.2c0-0.1-0.1-0.2-0.2-0.2C0.6,16.2,0.6,16.3,0.6,16.4z"/>
		</g>
		<g>
			<path class="st0" d="M1,23.7C1,23.9,0.9,24,0.7,24c-0.2,0-0.3-0.1-0.3-0.3c0-0.2,0.1-0.3,0.3-0.3C0.9,23.5,1,23.6,1,23.7z
				 M0.6,23.7c0,0.1,0.1,0.2,0.2,0.2c0.1,0,0.2-0.1,0.2-0.2c0-0.1-0.1-0.2-0.2-0.2C0.6,23.6,0.6,23.6,0.6,23.7z"/>
		</g>
		<g>
			<path class="st0" d="M1.9,15.4c0,0.2-0.1,0.3-0.3,0.3c-0.1,0-0.3-0.1-0.3-0.3s0.1-0.3,0.3-0.3C1.8,15.2,1.9,15.3,1.9,15.4z
				 M1.5,15.4c0,0.1,0.1,0.2,0.2,0.2c0.1,0,0.2-0.1,0.2-0.2s-0.1-0.2-0.2-0.2C1.5,15.3,1.5,15.3,1.5,15.4z"/>
		</g>
		<g>
			<path class="st0" d="M2.8,12.4c0,0.2-0.1,0.3-0.3,0.3c-0.1,0-0.3-0.1-0.3-0.3s0.1-0.3,0.3-0.3C2.7,12.1,2.8,12.2,2.8,12.4z
				 M2.3,12.4c0,0.1,0.1,0.2,0.2,0.2c0.1,0,0.2-0.1,0.2-0.2s-0.1-0.2-0.2-0.2C2.4,12.2,2.3,12.3,2.3,12.4z"/>
		</g>
		<g>
			<path class="st0" d="M2.8,3.4c0,0.2-0.1,0.3-0.3,0.3c-0.1,0-0.3-0.1-0.3-0.3c0-0.2,0.1-0.3,0.3-0.3C2.7,3.1,2.8,3.2,2.8,3.4z
				 M2.3,3.4c0,0.1,0.1,0.2,0.2,0.2c0.1,0,0.2-0.1,0.2-0.2c0-0.1-0.1-0.2-0.2-0.2C2.4,3.2,2.3,3.3,2.3,3.4z"/>
		</g>
		<g>
			<rect x="1.6" y="0" class="st0" width="0.1" height="6.4"/>
		</g>
		<g>
			<rect x="2.5" y="0" class="st0" width="0.1" height="3.1"/>
		</g>
		<g>
			<polygon class="st0" points="3.5,0 3.5,5.2 2.6,5.2 2.6,8.8 0.7,8.8 0.7,8.7 2.5,8.7 2.5,5.1 3.4,5.1 3.4,0 			"/>
		</g>
		<g>
			<polygon class="st0" points="4.3,0 4.3,6.7 3.5,6.7 3.5,10.4 2.6,10.4 2.6,12 1.6,12 1.6,11.1 0.7,11.1 0.7,11 1.7,11 1.7,11.9 
				2.5,11.9 2.5,10.3 3.4,10.3 3.4,6.6 4.2,6.6 4.2,0 			"/>
		</g>
		<g>
			<polygon class="st0" points="6.1,3.7 6.1,3.8 5.1,3.8 5.1,0 5.2,0 5.2,3.7 			"/>
		</g>
		<g>
			<rect x="5.1" y="5.1" class="st0" width="0.1" height="3.7"/>
		</g>
		<g>
			<polygon class="st0" points="4.3,7.4 4.3,11.3 3.5,11.3 3.5,13 3.4,13 3.4,11.2 4.2,11.2 4.2,7.4 			"/>
		</g>
		<g>
			<polygon class="st0" points="2.5,15.9 2.5,16 0.7,16 0.7,14.3 1.6,14.3 1.6,12.7 1.7,12.7 1.7,14.4 0.8,14.4 0.8,15.9 			"/>
		</g>
		<g>
			<polygon class="st0" points="2.6,12.6 2.6,14.8 1.7,14.8 1.7,15.2 1.6,15.2 1.6,14.7 2.5,14.7 2.5,12.6 			"/>
		</g>
		<g>
			<polygon class="st0" points="5.2,16.6 5.2,20.6 5.1,20.6 5.1,16.7 4.3,16.7 4.3,17.8 3.4,17.8 3.4,14.9 3.5,14.9 3.5,17.7 
				4.2,17.7 4.2,16.6 			"/>
		</g>
		<g>
			<polygon class="st0" points="4.3,19.2 4.3,20.4 3.5,20.4 3.5,21.1 4.3,21.1 4.3,22.2 4.2,22.2 4.2,21.2 3.4,21.2 3.4,20.3 
				4.2,20.3 4.2,19.2 			"/>
		</g>
		<g>
			<polygon class="st0" points="1.7,19 1.7,20.9 0.8,20.9 0.8,23.5 0.7,23.5 0.7,20.8 1.6,20.8 1.6,19 0.7,19 0.7,16.6 0.8,16.6 
				0.8,19 			"/>
		</g>
		<g>
			<polygon class="st0" points="2.6,18.4 2.6,19.9 2.5,19.9 2.5,18.5 1.6,18.5 1.6,16.9 1.7,16.9 1.7,18.4 			"/>
		</g>
		<g>
			<polygon class="st0" points="3.5,22.4 3.5,24.4 3.4,24.4 3.4,22.5 2.6,22.5 2.6,23.3 1.6,23.3 1.6,21.8 1.7,21.8 1.7,23.2 
				2.5,23.2 2.5,22.4 			"/>
		</g>
		<g>
			<rect x="6" y="0" class="st0" width="0.1" height="2.1"/>
		</g>
		<g>
			<polygon class="st0" points="7,7.3 7,9.2 6.1,9.2 6.1,11.1 5.2,11.1 5.2,13.1 4.3,13.1 4.3,14.9 4.2,14.9 4.2,13 5.1,13 5.1,11 
				6,11 6,9.1 6.9,9.1 6.9,7.4 6,7.4 6,5.2 6.1,5.2 6.1,7.3 			"/>
		</g>
		<g>
			<rect x="0.7" y="9.6" class="st0" width="1.8" height="0.1"/>
		</g>
		<g>
			<rect x="4.3" y="7.8" class="st0" width="1.8" height="0.1"/>
		</g>
		<g>
			<polygon class="st0" points="7,15.9 7,18.7 6.1,18.7 6.1,21.5 5.2,21.5 5.2,25 5.1,25 5.1,21.4 6,21.4 6,18.6 6.9,18.6 6.9,16 
				6,16 6,13.7 6.1,13.7 6.1,15.9 			"/>
		</g>
		<g>
			<rect x="6" y="16.6" class="st0" width="0.1" height="1.4"/>
		</g>
	</g>
	<g>
		<g>
			<path class="st0" d="M21.9,21.2c0,0.2-0.1,0.3-0.3,0.3s-0.3-0.1-0.3-0.3c0-0.2,0.1-0.3,0.3-0.3S21.9,21.1,21.9,21.2z M21.4,21.2
				c0,0.1,0.1,0.2,0.2,0.2c0.1,0,0.2-0.1,0.2-0.2c0-0.1-0.1-0.2-0.2-0.2C21.5,21.1,21.4,21.1,21.4,21.2z"/>
		</g>
		<g>
			<path class="st0" d="M22.1,22.7c0,0.2-0.1,0.3-0.3,0.3s-0.3-0.1-0.3-0.3c0-0.2,0.1-0.3,0.3-0.3S22.1,22.5,22.1,22.7z M21.6,22.7
				c0,0.1,0.1,0.2,0.2,0.2c0.1,0,0.2-0.1,0.2-0.2c0-0.1-0.1-0.2-0.2-0.2C21.7,22.5,21.6,22.6,21.6,22.7z"/>
		</g>
		<g>
			<path class="st0" d="M22.1,20.1c0,0.2-0.1,0.3-0.3,0.3s-0.3-0.1-0.3-0.3c0-0.2,0.1-0.3,0.3-0.3S22.1,19.9,22.1,20.1z M21.6,20.1
				c0,0.1,0.1,0.2,0.2,0.2c0.1,0,0.2-0.1,0.2-0.2c0-0.1-0.1-0.2-0.2-0.2C21.7,19.9,21.6,20,21.6,20.1z"/>
		</g>
		<g>
			<path class="st0" d="M23,20.1c0,0.2-0.1,0.3-0.3,0.3c-0.2,0-0.3-0.1-0.3-0.3s0.1-0.3,0.3-0.3C22.9,19.8,23,20,23,20.1z
				 M22.5,20.1c0,0.1,0.1,0.2,0.2,0.2c0.1,0,0.2-0.1,0.2-0.2c0-0.1-0.1-0.2-0.2-0.2C22.6,19.9,22.5,20,22.5,20.1z"/>
		</g>
		<g>
			<path class="st0" d="M23,16c0,0.2-0.1,0.3-0.3,0.3c-0.2,0-0.3-0.1-0.3-0.3c0-0.2,0.1-0.3,0.3-0.3C22.9,15.7,23,15.9,23,16z
				 M22.5,16c0,0.1,0.1,0.2,0.2,0.2c0.1,0,0.2-0.1,0.2-0.2c0-0.1-0.1-0.2-0.2-0.2C22.6,15.8,22.5,15.9,22.5,16z"/>
		</g>
		<g>
			<path class="st0" d="M21.9,17.1c0,0.2-0.1,0.3-0.3,0.3s-0.3-0.1-0.3-0.3c0-0.2,0.1-0.3,0.3-0.3S21.9,17,21.9,17.1z M21.4,17.1
				c0,0.1,0.1,0.2,0.2,0.2c0.1,0,0.2-0.1,0.2-0.2c0-0.1-0.1-0.2-0.2-0.2C21.5,16.9,21.4,17,21.4,17.1z"/>
		</g>
		<g>
			<path class="st0" d="M24.1,17.1c0,0.2-0.1,0.3-0.3,0.3c-0.2,0-0.3-0.1-0.3-0.3c0-0.2,0.1-0.3,0.3-0.3C24,16.8,24.1,17,24.1,17.1z
				 M23.6,17.1c0,0.1,0.1,0.2,0.2,0.2c0.1,0,0.2-0.1,0.2-0.2c0-0.1-0.1-0.2-0.2-0.2C23.7,16.9,23.6,17,23.6,17.1z"/>
		</g>
		<g>
			<path class="st0" d="M23.9,9.9c0,0.2-0.1,0.3-0.3,0.3c-0.2,0-0.3-0.1-0.3-0.3c0-0.2,0.1-0.3,0.3-0.3C23.7,9.6,23.9,9.7,23.9,9.9z
				 M23.4,9.9c0,0.1,0.1,0.2,0.2,0.2c0.1,0,0.2-0.1,0.2-0.2c0-0.1-0.1-0.2-0.2-0.2C23.5,9.7,23.4,9.8,23.4,9.9z"/>
		</g>
		<g>
			<path class="st0" d="M23.9,17.8c0,0.2-0.1,0.3-0.3,0.3c-0.2,0-0.3-0.1-0.3-0.3c0-0.2,0.1-0.3,0.3-0.3
				C23.7,17.6,23.9,17.7,23.9,17.8z M23.4,17.8c0,0.1,0.1,0.2,0.2,0.2c0.1,0,0.2-0.1,0.2-0.2c0-0.1-0.1-0.2-0.2-0.2
				C23.5,17.7,23.4,17.8,23.4,17.8z"/>
		</g>
		<g>
			<path class="st0" d="M24.8,11.8c0,0.2-0.1,0.3-0.3,0.3c-0.1,0-0.3-0.1-0.3-0.3s0.1-0.3,0.3-0.3C24.6,11.5,24.8,11.6,24.8,11.8z
				 M24.3,11.8c0,0.1,0.1,0.2,0.2,0.2c0.1,0,0.2-0.1,0.2-0.2s-0.1-0.2-0.2-0.2C24.4,11.6,24.3,11.7,24.3,11.8z"/>
		</g>
		<g>
			<path class="st0" d="M24.8,10.3c0,0.2-0.1,0.3-0.3,0.3c-0.1,0-0.3-0.1-0.3-0.3c0-0.2,0.1-0.3,0.3-0.3
				C24.6,10,24.8,10.2,24.8,10.3z M24.3,10.3c0,0.1,0.1,0.2,0.2,0.2c0.1,0,0.2-0.1,0.2-0.2s-0.1-0.2-0.2-0.2
				C24.4,10.1,24.3,10.2,24.3,10.3z"/>
		</g>
		<g>
			<path class="st0" d="M23,4.2c0,0.2-0.1,0.3-0.3,0.3c-0.2,0-0.3-0.1-0.3-0.3s0.1-0.3,0.3-0.3C22.9,3.9,23,4,23,4.2z M22.5,4.2
				c0,0.1,0.1,0.2,0.2,0.2c0.1,0,0.2-0.1,0.2-0.2c0-0.1-0.1-0.2-0.2-0.2C22.6,4,22.5,4.1,22.5,4.2z"/>
		</g>
		<g>
			<path class="st0" d="M22.1,11.6c0,0.2-0.1,0.3-0.3,0.3s-0.3-0.1-0.3-0.3c0-0.2,0.1-0.3,0.3-0.3S22.1,11.4,22.1,11.6z M21.6,11.6
				c0,0.1,0.1,0.2,0.2,0.2c0.1,0,0.2-0.1,0.2-0.2c0-0.1-0.1-0.2-0.2-0.2C21.7,11.4,21.6,11.5,21.6,11.6z"/>
		</g>
		<g>
			<path class="st0" d="M23.9,6c0,0.2-0.1,0.3-0.3,0.3c-0.2,0-0.3-0.1-0.3-0.3c0-0.2,0.1-0.3,0.3-0.3C23.7,5.7,23.9,5.8,23.9,6z
				 M23.4,6c0,0.1,0.1,0.2,0.2,0.2c0.1,0,0.2-0.1,0.2-0.2s-0.1-0.2-0.2-0.2C23.5,5.8,23.4,5.9,23.4,6z"/>
		</g>
		<g>
			<path class="st0" d="M23.9,2.5c0,0.2-0.1,0.3-0.3,0.3c-0.2,0-0.3-0.1-0.3-0.3c0-0.2,0.1-0.3,0.3-0.3C23.7,2.3,23.9,2.4,23.9,2.5z
				 M23.4,2.5c0,0.1,0.1,0.2,0.2,0.2c0.1,0,0.2-0.1,0.2-0.2c0-0.1-0.1-0.2-0.2-0.2C23.5,2.4,23.4,2.4,23.4,2.5z"/>
		</g>
		<g>
			<polygon class="st0" points="22.8,21.2 22.8,25 22.7,25 22.7,21.3 21.8,21.3 21.8,21.2 			"/>
		</g>
		<g>
			<rect x="22.7" y="16.2" class="st0" width="0.1" height="3.7"/>
		</g>
		<g>
			<polygon class="st0" points="24.5,12 24.5,13.8 23.6,13.8 23.6,17.6 23.5,17.6 23.5,13.7 24.4,13.7 24.4,12 			"/>
		</g>
		<g>
			<polygon class="st0" points="24.5,7.2 24.5,10.1 24.4,10.1 24.4,7.3 23.6,7.3 23.6,8.4 22.7,8.4 22.7,4.4 22.8,4.4 22.8,8.3 
				23.5,8.3 23.5,7.2 			"/>
		</g>
		<g>
			<polygon class="st0" points="24.5,3.8 24.5,4.7 23.6,4.7 23.6,5.8 23.5,5.8 23.5,4.6 24.4,4.6 24.4,3.9 23.5,3.9 23.5,2.8 
				23.6,2.8 23.6,3.8 			"/>
		</g>
		<g>
			<rect x="21.8" y="22.9" class="st0" width="0.1" height="2.1"/>
		</g>
		<g>
			<polygon class="st0" points="23.6,10.1 23.6,12 22.8,12 22.8,14 21.9,14 21.9,15.9 21,15.9 21,17.6 21.9,17.6 21.9,19.8 
				21.8,19.8 21.8,17.7 20.9,17.7 20.9,15.8 21.8,15.8 21.8,13.9 22.7,13.9 22.7,11.9 23.5,11.9 23.5,10.1 			"/>
		</g>
		<g>
			<rect x="21.8" y="17.1" class="st0" width="1.8" height="0.1"/>
		</g>
		<g>
			<polygon class="st0" points="22.8,0 22.8,3.6 21.9,3.6 21.9,6.4 21,6.4 21,9 21.9,9 21.9,11.3 21.8,11.3 21.8,9.1 20.9,9.1 
				20.9,6.3 21.8,6.3 21.8,3.5 22.7,3.5 22.7,0 			"/>
		</g>
		<g>
			<rect x="21.8" y="7" class="st0" width="0.1" height="1.4"/>
		</g>
	</g>
	<g>
		<rect x="20.1" y="20.8" class="st0" width="0.1" height="4.2"/>
	</g>
	<g>
		<path class="st0" d="M20.4,20.5c0,0.2-0.1,0.3-0.3,0.3c-0.2,0-0.3-0.1-0.3-0.3c0-0.2,0.1-0.3,0.3-0.3
			C20.3,20.2,20.4,20.4,20.4,20.5z M20,20.5c0,0.1,0.1,0.2,0.2,0.2c0.1,0,0.2-0.1,0.2-0.2c0-0.1-0.1-0.2-0.2-0.2
			C20.1,20.3,20,20.4,20,20.5z"/>
	</g>
	<g>
		<path class="st0" d="M20.7,14c0,0.2-0.1,0.3-0.3,0.3c-0.2,0-0.3-0.1-0.3-0.3s0.1-0.3,0.3-0.3C20.5,13.7,20.7,13.8,20.7,14z
			 M20.2,14c0,0.1,0.1,0.2,0.2,0.2c0.1,0,0.2-0.1,0.2-0.2c0-0.1-0.1-0.2-0.2-0.2C20.3,13.8,20.2,13.9,20.2,14z"/>
	</g>
	<g>
		<path class="st0" d="M19.5,18.4c0,0.2-0.1,0.3-0.3,0.3c-0.2,0-0.3-0.1-0.3-0.3c0-0.2,0.1-0.3,0.3-0.3
			C19.4,18.1,19.5,18.2,19.5,18.4z M19.1,18.4c0,0.1,0.1,0.2,0.2,0.2c0.1,0,0.2-0.1,0.2-0.2c0-0.1-0.1-0.2-0.2-0.2
			C19.2,18.2,19.1,18.3,19.1,18.4z"/>
	</g>
	<g>
		<path class="st0" d="M20.7,16.2c0,0.2-0.1,0.3-0.3,0.3c-0.2,0-0.3-0.1-0.3-0.3c0-0.2,0.1-0.3,0.3-0.3C20.5,16,20.7,16.1,20.7,16.2
			z M20.2,16.2c0,0.1,0.1,0.2,0.2,0.2c0.1,0,0.2-0.1,0.2-0.2c0-0.1-0.1-0.2-0.2-0.2C20.3,16.1,20.2,16.1,20.2,16.2z"/>
	</g>
	<g>
		<path class="st0" d="M14.9,21.2c0,0.2-0.1,0.3-0.3,0.3c-0.1,0-0.3-0.1-0.3-0.3c0-0.2,0.1-0.3,0.3-0.3C14.8,21,14.9,21.1,14.9,21.2
			z M14.4,21.2c0,0.1,0.1,0.2,0.2,0.2c0.1,0,0.2-0.1,0.2-0.2c0-0.1-0.1-0.2-0.2-0.2C14.5,21.1,14.4,21.1,14.4,21.2z"/>
	</g>
	<g>
		<path class="st0" d="M15.1,22.7c0,0.2-0.1,0.3-0.3,0.3c-0.2,0-0.3-0.1-0.3-0.3c0-0.2,0.1-0.3,0.3-0.3C15,22.4,15.1,22.5,15.1,22.7
			z M14.7,22.7c0,0.1,0.1,0.2,0.2,0.2c0.1,0,0.2-0.1,0.2-0.2c0-0.1-0.1-0.2-0.2-0.2C14.7,22.5,14.7,22.6,14.7,22.7z"/>
	</g>
	<g>
		<path class="st0" d="M15.1,20.1c0,0.2-0.1,0.3-0.3,0.3c-0.2,0-0.3-0.1-0.3-0.3c0-0.2,0.1-0.3,0.3-0.3C15,19.8,15.1,19.9,15.1,20.1
			z M14.7,20.1c0,0.1,0.1,0.2,0.2,0.2c0.1,0,0.2-0.1,0.2-0.2c0-0.1-0.1-0.2-0.2-0.2C14.7,19.9,14.7,20,14.7,20.1z"/>
	</g>
	<g>
		<path class="st0" d="M16,20.1c0,0.2-0.1,0.3-0.3,0.3c-0.2,0-0.3-0.1-0.3-0.3s0.1-0.3,0.3-0.3C15.9,19.8,16,20,16,20.1z M15.5,20.1
			c0,0.1,0.1,0.2,0.2,0.2c0.1,0,0.2-0.1,0.2-0.2c0-0.1-0.1-0.2-0.2-0.2C15.6,19.9,15.5,20,15.5,20.1z"/>
	</g>
	<g>
		<path class="st0" d="M16,16c0,0.2-0.1,0.3-0.3,0.3c-0.2,0-0.3-0.1-0.3-0.3c0-0.2,0.1-0.3,0.3-0.3C15.9,15.7,16,15.9,16,16z
			 M15.5,16c0,0.1,0.1,0.2,0.2,0.2c0.1,0,0.2-0.1,0.2-0.2c0-0.1-0.1-0.2-0.2-0.2C15.6,15.8,15.5,15.9,15.5,16z"/>
	</g>
	<g>
		<path class="st0" d="M14.9,17.1c0,0.2-0.1,0.3-0.3,0.3c-0.1,0-0.3-0.1-0.3-0.3c0-0.2,0.1-0.3,0.3-0.3C14.8,16.8,14.9,17,14.9,17.1
			z M14.4,17.1c0,0.1,0.1,0.2,0.2,0.2c0.1,0,0.2-0.1,0.2-0.2c0-0.1-0.1-0.2-0.2-0.2C14.5,16.9,14.4,17,14.4,17.1z"/>
	</g>
	<g>
		<path class="st0" d="M17.1,17.1c0,0.2-0.1,0.3-0.3,0.3c-0.2,0-0.3-0.1-0.3-0.3c0-0.2,0.1-0.3,0.3-0.3C17,16.8,17.1,17,17.1,17.1z
			 M16.7,17.1c0,0.1,0.1,0.2,0.2,0.2c0.1,0,0.2-0.1,0.2-0.2c0-0.1-0.1-0.2-0.2-0.2C16.7,16.9,16.7,17,16.7,17.1z"/>
	</g>
	<g>
		<path class="st0" d="M16.9,9.9c0,0.2-0.1,0.3-0.3,0.3s-0.3-0.1-0.3-0.3c0-0.2,0.1-0.3,0.3-0.3S16.9,9.7,16.9,9.9z M16.4,9.9
			c0,0.1,0.1,0.2,0.2,0.2c0.1,0,0.2-0.1,0.2-0.2c0-0.1-0.1-0.2-0.2-0.2C16.5,9.7,16.4,9.8,16.4,9.9z"/>
	</g>
	<g>
		<path class="st0" d="M16.9,17.8c0,0.2-0.1,0.3-0.3,0.3c-0.1,0-0.3-0.1-0.3-0.3c0-0.2,0.1-0.3,0.3-0.3
			C16.8,17.6,16.9,17.7,16.9,17.8z M16.4,17.8c0,0.1,0.1,0.2,0.2,0.2c0.1,0,0.2-0.1,0.2-0.2c0-0.1-0.1-0.2-0.2-0.2
			C16.5,17.7,16.4,17.8,16.4,17.8z"/>
	</g>
	<g>
		<path class="st0" d="M17.8,11.8c0,0.2-0.1,0.3-0.3,0.3c-0.2,0-0.3-0.1-0.3-0.3s0.1-0.3,0.3-0.3C17.6,11.5,17.8,11.6,17.8,11.8z
			 M17.3,11.8c0,0.1,0.1,0.2,0.2,0.2c0.1,0,0.2-0.1,0.2-0.2s-0.1-0.2-0.2-0.2C17.4,11.6,17.3,11.7,17.3,11.8z"/>
	</g>
	<g>
		<path class="st0" d="M17.8,10.3c0,0.2-0.1,0.3-0.3,0.3c-0.2,0-0.3-0.1-0.3-0.3c0-0.2,0.1-0.3,0.3-0.3C17.6,10,17.8,10.2,17.8,10.3
			z M17.3,10.3c0,0.1,0.1,0.2,0.2,0.2c0.1,0,0.2-0.1,0.2-0.2s-0.1-0.2-0.2-0.2C17.4,10.1,17.3,10.2,17.3,10.3z"/>
	</g>
	<g>
		<path class="st0" d="M16,4.2c0,0.2-0.1,0.3-0.3,0.3c-0.2,0-0.3-0.1-0.3-0.3s0.1-0.3,0.3-0.3C15.9,3.9,16,4,16,4.2z M15.5,4.2
			c0,0.1,0.1,0.2,0.2,0.2c0.1,0,0.2-0.1,0.2-0.2c0-0.1-0.1-0.2-0.2-0.2C15.6,4,15.5,4.1,15.5,4.2z"/>
	</g>
	<g>
		<path class="st0" d="M15.1,11.6c0,0.2-0.1,0.3-0.3,0.3c-0.2,0-0.3-0.1-0.3-0.3c0-0.2,0.1-0.3,0.3-0.3C15,11.3,15.1,11.4,15.1,11.6
			z M14.7,11.6c0,0.1,0.1,0.2,0.2,0.2c0.1,0,0.2-0.1,0.2-0.2c0-0.1-0.1-0.2-0.2-0.2C14.7,11.4,14.7,11.5,14.7,11.6z"/>
	</g>
	<g>
		<path class="st0" d="M16.9,6c0,0.2-0.1,0.3-0.3,0.3c-0.1,0-0.3-0.1-0.3-0.3c0-0.2,0.1-0.3,0.3-0.3C16.8,5.7,16.9,5.8,16.9,6z
			 M16.4,6c0,0.1,0.1,0.2,0.2,0.2c0.1,0,0.2-0.1,0.2-0.2s-0.1-0.2-0.2-0.2C16.5,5.8,16.4,5.9,16.4,6z"/>
	</g>
	<g>
		<path class="st0" d="M16.9,2.5c0,0.2-0.1,0.3-0.3,0.3c-0.1,0-0.3-0.1-0.3-0.3c0-0.2,0.1-0.3,0.3-0.3C16.8,2.3,16.9,2.4,16.9,2.5z
			 M16.4,2.5c0,0.1,0.1,0.2,0.2,0.2c0.1,0,0.2-0.1,0.2-0.2c0-0.1-0.1-0.2-0.2-0.2C16.5,2.4,16.4,2.4,16.4,2.5z"/>
	</g>
	<g>
		<path class="st0" d="M19.5,12.5c0,0.2-0.1,0.3-0.3,0.3c-0.2,0-0.3-0.1-0.3-0.3s0.1-0.3,0.3-0.3C19.4,12.2,19.5,12.3,19.5,12.5z
			 M19.1,12.5c0,0.1,0.1,0.2,0.2,0.2c0.1,0,0.2-0.1,0.2-0.2s-0.1-0.2-0.2-0.2C19.2,12.3,19.1,12.4,19.1,12.5z"/>
	</g>
	<g>
		<path class="st0" d="M18.4,9.1c0,0.2-0.1,0.3-0.3,0.3s-0.3-0.1-0.3-0.3s0.1-0.3,0.3-0.3S18.4,8.9,18.4,9.1z M18,9.1
			c0,0.1,0.1,0.2,0.2,0.2c0.1,0,0.2-0.1,0.2-0.2c0-0.1-0.1-0.2-0.2-0.2C18.1,8.9,18,9,18,9.1z"/>
	</g>
	<g>
		<path class="st0" d="M19.5,8.3c0,0.2-0.1,0.3-0.3,0.3S19,8.5,19,8.3S19.1,8,19.3,8S19.5,8.2,19.5,8.3z M19.1,8.3
			c0,0.1,0.1,0.2,0.2,0.2c0.1,0,0.2-0.1,0.2-0.2s-0.1-0.2-0.2-0.2C19.2,8.1,19.1,8.2,19.1,8.3z"/>
	</g>
	<g>
		<path class="st0" d="M18.7,4.9c0,0.2-0.1,0.3-0.3,0.3c-0.2,0-0.3-0.1-0.3-0.3c0-0.2,0.1-0.3,0.3-0.3C18.5,4.6,18.7,4.7,18.7,4.9z
			 M18.2,4.9C18.2,5,18.3,5,18.4,5c0.1,0,0.2-0.1,0.2-0.2c0-0.1-0.1-0.2-0.2-0.2C18.3,4.7,18.2,4.8,18.2,4.9z"/>
	</g>
	<g>
		<path class="st0" d="M19.5,3.4c0,0.2-0.1,0.3-0.3,0.3S19,3.6,19,3.4c0-0.2,0.1-0.3,0.3-0.3S19.5,3.3,19.5,3.4z M19.1,3.4
			c0,0.1,0.1,0.2,0.2,0.2c0.1,0,0.2-0.1,0.2-0.2s-0.1-0.2-0.2-0.2C19.2,3.3,19.1,3.4,19.1,3.4z"/>
	</g>
	<g>
		<path class="st0" d="M17.8,0.3c0,0.2-0.1,0.3-0.3,0.3c-0.2,0-0.3-0.1-0.3-0.3c0-0.2,0.1-0.3,0.3-0.3C17.6,0,17.8,0.1,17.8,0.3z
			 M17.3,0.3c0,0.1,0.1,0.2,0.2,0.2c0.1,0,0.2-0.1,0.2-0.2c0-0.1-0.1-0.2-0.2-0.2C17.4,0.1,17.3,0.2,17.3,0.3z"/>
	</g>
	<g>
		<path class="st0" d="M20.4,8.6c0,0.2-0.1,0.3-0.3,0.3c-0.2,0-0.3-0.1-0.3-0.3c0-0.2,0.1-0.3,0.3-0.3C20.3,8.4,20.4,8.5,20.4,8.6z
			 M20,8.6c0,0.1,0.1,0.2,0.2,0.2c0.1,0,0.2-0.1,0.2-0.2c0-0.1-0.1-0.2-0.2-0.2C20.1,8.5,20,8.5,20,8.6z"/>
	</g>
	<g>
		<path class="st0" d="M20.4,1.3c0,0.2-0.1,0.3-0.3,0.3c-0.2,0-0.3-0.1-0.3-0.3S20,1,20.2,1C20.3,1,20.4,1.1,20.4,1.3z M20,1.3
			c0,0.1,0.1,0.2,0.2,0.2c0.1,0,0.2-0.1,0.2-0.2s-0.1-0.2-0.2-0.2C20.1,1.1,20,1.2,20,1.3z"/>
	</g>
	<g>
		<path class="st0" d="M19.5,9.6c0,0.2-0.1,0.3-0.3,0.3S19,9.7,19,9.6s0.1-0.3,0.3-0.3S19.5,9.4,19.5,9.6z M19.1,9.6
			c0,0.1,0.1,0.2,0.2,0.2c0.1,0,0.2-0.1,0.2-0.2c0-0.1-0.1-0.2-0.2-0.2C19.2,9.4,19.1,9.5,19.1,9.6z"/>
	</g>
	<g>
		<path class="st0" d="M18.7,12.6c0,0.2-0.1,0.3-0.3,0.3c-0.2,0-0.3-0.1-0.3-0.3s0.1-0.3,0.3-0.3C18.5,12.3,18.7,12.4,18.7,12.6z
			 M18.2,12.6c0,0.1,0.1,0.2,0.2,0.2c0.1,0,0.2-0.1,0.2-0.2s-0.1-0.2-0.2-0.2C18.3,12.4,18.2,12.5,18.2,12.6z"/>
	</g>
	<g>
		<path class="st0" d="M18.7,21.6c0,0.2-0.1,0.3-0.3,0.3c-0.2,0-0.3-0.1-0.3-0.3c0-0.2,0.1-0.3,0.3-0.3
			C18.5,21.4,18.7,21.5,18.7,21.6z M18.2,21.6c0,0.1,0.1,0.2,0.2,0.2c0.1,0,0.2-0.1,0.2-0.2s-0.1-0.2-0.2-0.2
			C18.3,21.5,18.2,21.5,18.2,21.6z"/>
	</g>
	<g>
		<rect x="19.2" y="18.5" class="st0" width="0.1" height="6.4"/>
	</g>
	<g>
		<rect x="18.3" y="21.9" class="st0" width="0.1" height="3.1"/>
	</g>
	<g>
		<polygon class="st0" points="20.2,16.2 20.2,16.3 18.4,16.3 18.4,19.9 17.5,19.9 17.5,25 17.4,25 17.4,19.8 18.3,19.8 18.3,16.2 
					"/>
	</g>
	<g>
		<polygon class="st0" points="20.2,13.9 20.2,14 19.2,14 19.2,13.1 18.4,13.1 18.4,14.7 17.5,14.7 17.5,18.4 16.7,18.4 16.7,25 
			16.6,25 16.6,18.3 17.4,18.3 17.4,14.6 18.3,14.6 18.3,13 19.3,13 19.3,13.9 		"/>
	</g>
	<g>
		<polygon class="st0" points="15.8,21.2 15.8,25 15.7,25 15.7,21.3 14.8,21.3 14.8,21.2 		"/>
	</g>
	<g>
		<rect x="15.7" y="16.2" class="st0" width="0.1" height="3.7"/>
	</g>
	<g>
		<polygon class="st0" points="17.5,12 17.5,13.8 16.7,13.8 16.7,17.6 16.6,17.6 16.6,13.7 17.4,13.7 17.4,12 		"/>
	</g>
	<g>
		<polygon class="st0" points="20.2,9 20.2,10.7 19.3,10.7 19.3,12.3 19.2,12.3 19.2,10.6 20.1,10.6 20.1,9.1 18.4,9.1 18.4,9 		"/>
	</g>
	<g>
		<polygon class="st0" points="19.3,9.8 19.3,10.3 18.4,10.3 18.4,12.4 18.3,12.4 18.3,10.2 19.2,10.2 19.2,9.8 		"/>
	</g>
	<g>
		<polygon class="st0" points="17.5,7.2 17.5,10.1 17.4,10.1 17.4,7.3 16.7,7.3 16.7,8.4 15.7,8.4 15.7,4.4 15.8,4.4 15.8,8.3 
			16.6,8.3 16.6,7.2 		"/>
	</g>
	<g>
		<polygon class="st0" points="17.5,3.8 17.5,4.7 16.7,4.7 16.7,5.8 16.6,5.8 16.6,4.6 17.4,4.6 17.4,3.9 16.6,3.9 16.6,2.8 
			16.7,2.8 16.7,3.8 		"/>
	</g>
	<g>
		<polygon class="st0" points="20.2,1.5 20.2,4.2 19.3,4.2 19.3,6 20.2,6 20.2,8.4 20.1,8.4 20.1,6.1 19.2,6.1 19.2,4.1 20.1,4.1 
			20.1,1.5 		"/>
	</g>
	<g>
		<polygon class="st0" points="19.3,6.5 19.3,8.1 19.2,8.1 19.2,6.6 18.3,6.6 18.3,5.1 18.4,5.1 18.4,6.5 		"/>
	</g>
	<g>
		<polygon class="st0" points="19.3,1.7 19.3,3.2 19.2,3.2 19.2,1.8 18.4,1.8 18.4,2.6 17.4,2.6 17.4,0.6 17.5,0.6 17.5,2.5 
			18.3,2.5 18.3,1.7 		"/>
	</g>
	<g>
		<rect x="14.8" y="22.9" class="st0" width="0.1" height="2.1"/>
	</g>
	<g>
		<polygon class="st0" points="16.7,10.1 16.7,12 15.8,12 15.8,14 14.9,14 14.9,15.9 14,15.9 14,17.6 14.9,17.6 14.9,19.8 
			14.8,19.8 14.8,17.7 13.9,17.7 13.9,15.8 14.8,15.8 14.8,13.9 15.7,13.9 15.7,11.9 16.6,11.9 16.6,10.1 		"/>
	</g>
	<g>
		<g>
			<g>
				<path class="st0" d="M20.7,15.3c0,0.2-0.1,0.3-0.3,0.3c-0.2,0-0.3-0.1-0.3-0.3c0-0.2,0.1-0.3,0.3-0.3
					C20.5,15.1,20.7,15.2,20.7,15.3z M20.2,15.3c0,0.1,0.1,0.2,0.2,0.2c0.1,0,0.2-0.1,0.2-0.2s-0.1-0.2-0.2-0.2
					C20.3,15.2,20.2,15.3,20.2,15.3z"/>
			</g>
			<g>
				<path class="st0" d="M18.4,15.3c0,0.2-0.1,0.3-0.3,0.3s-0.3-0.1-0.3-0.3c0-0.2,0.1-0.3,0.3-0.3S18.4,15.2,18.4,15.3z M18,15.3
					c0,0.1,0.1,0.2,0.2,0.2c0.1,0,0.2-0.1,0.2-0.2s-0.1-0.2-0.2-0.2C18.1,15.2,18,15.3,18,15.3z"/>
			</g>
		</g>
		<g>
			<rect x="18.4" y="15.3" class="st0" width="1.8" height="0.1"/>
		</g>
	</g>
	<g>
		<g>
			<g>
				<path class="st0" d="M8.3,22c0,0.2-0.1,0.3-0.3,0.3c-0.2,0-0.3-0.1-0.3-0.3c0-0.2,0.1-0.3,0.3-0.3C8.2,21.7,8.3,21.9,8.3,22z
					 M7.9,22c0,0.1,0.1,0.2,0.2,0.2c0.1,0,0.2-0.1,0.2-0.2S8.1,21.8,8,21.8C7.9,21.8,7.9,21.9,7.9,22z"/>
			</g>
			<g>
				<path class="st0" d="M6.1,22c0,0.2-0.1,0.3-0.3,0.3c-0.2,0-0.3-0.1-0.3-0.3c0-0.2,0.1-0.3,0.3-0.3C5.9,21.7,6.1,21.9,6.1,22z
					 M5.6,22c0,0.1,0.1,0.2,0.2,0.2C5.9,22.2,6,22.1,6,22s-0.1-0.2-0.2-0.2C5.7,21.8,5.6,21.9,5.6,22z"/>
			</g>
		</g>
		<g>
			<rect x="6" y="22" class="st0" width="1.8" height="0.1"/>
		</g>
	</g>
	<g>
		<g>
			<g>
				<path class="st0" d="M6.9,22.1c0.2,0,0.3,0.1,0.3,0.3c0,0.2-0.1,0.3-0.3,0.3c-0.2,0-0.3-0.1-0.3-0.3C6.6,22.3,6.8,22.1,6.9,22.1
					z M6.9,22.6c0.1,0,0.2-0.1,0.2-0.2c0-0.1-0.1-0.2-0.2-0.2c-0.1,0-0.2,0.1-0.2,0.2C6.7,22.5,6.8,22.6,6.9,22.6z"/>
			</g>
			<g>
				<path class="st0" d="M6.9,24.4c0.2,0,0.3,0.1,0.3,0.3c0,0.2-0.1,0.3-0.3,0.3c-0.2,0-0.3-0.1-0.3-0.3C6.6,24.5,6.8,24.4,6.9,24.4
					z M6.9,24.8c0.1,0,0.2-0.1,0.2-0.2c0-0.1-0.1-0.2-0.2-0.2c-0.1,0-0.2,0.1-0.2,0.2C6.7,24.7,6.8,24.8,6.9,24.8z"/>
			</g>
		</g>
		<g>
			<rect x="6.9" y="22.6" class="st0" width="0.1" height="1.8"/>
		</g>
	</g>
	<g>
		<g>
			<g>
				<path class="st0" d="M6.9,9.7c0.2,0,0.3,0.1,0.3,0.3c0,0.2-0.1,0.3-0.3,0.3c-0.2,0-0.3-0.1-0.3-0.3C6.6,9.8,6.8,9.7,6.9,9.7z
					 M6.9,10.1c0.1,0,0.2-0.1,0.2-0.2c0-0.1-0.1-0.2-0.2-0.2c-0.1,0-0.2,0.1-0.2,0.2C6.7,10,6.8,10.1,6.9,10.1z"/>
			</g>
			<g>
				<path class="st0" d="M6.9,11.9c0.2,0,0.3,0.1,0.3,0.3c0,0.2-0.1,0.3-0.3,0.3c-0.2,0-0.3-0.1-0.3-0.3C6.6,12,6.8,11.9,6.9,11.9z
					 M6.9,12.3c0.1,0,0.2-0.1,0.2-0.2C7.1,12.1,7,12,6.9,12c-0.1,0-0.2,0.1-0.2,0.2S6.8,12.3,6.9,12.3z"/>
			</g>
		</g>
		<g>
			<rect x="6.9" y="10.2" class="st0" width="0.1" height="1.8"/>
		</g>
	</g>
	<g>
		<g>
			<g>
				<path class="st0" d="M20.9,10.4c0.2,0,0.3,0.1,0.3,0.3c0,0.2-0.1,0.3-0.3,0.3c-0.2,0-0.3-0.1-0.3-0.3
					C20.6,10.5,20.7,10.4,20.9,10.4z M20.9,10.8c0.1,0,0.2-0.1,0.2-0.2c0-0.1-0.1-0.2-0.2-0.2c-0.1,0-0.2,0.1-0.2,0.2
					C20.7,10.8,20.8,10.8,20.9,10.8z"/>
			</g>
			<g>
				<path class="st0" d="M20.9,12.6c0.2,0,0.3,0.1,0.3,0.3c0,0.2-0.1,0.3-0.3,0.3c-0.2,0-0.3-0.1-0.3-0.3
					C20.6,12.7,20.7,12.6,20.9,12.6z M20.9,13.1c0.1,0,0.2-0.1,0.2-0.2c0-0.1-0.1-0.2-0.2-0.2c-0.1,0-0.2,0.1-0.2,0.2
					C20.7,13,20.8,13.1,20.9,13.1z"/>
			</g>
		</g>
		<g>
			<rect x="20.8" y="10.9" class="st0" width="0.1" height="1.8"/>
		</g>
	</g>
	<g>
		<g>
			<g>
				<path class="st0" d="M23.6,21.3c0.2,0,0.3,0.1,0.3,0.3c0,0.2-0.1,0.3-0.3,0.3c-0.2,0-0.3-0.1-0.3-0.3
					C23.4,21.5,23.5,21.3,23.6,21.3z M23.6,21.8c0.1,0,0.2-0.1,0.2-0.2c0-0.1-0.1-0.2-0.2-0.2c-0.1,0-0.2,0.1-0.2,0.2
					C23.5,21.7,23.6,21.8,23.6,21.8z"/>
			</g>
			<g>
				<path class="st0" d="M23.6,23.6c0.2,0,0.3,0.1,0.3,0.3c0,0.2-0.1,0.3-0.3,0.3c-0.2,0-0.3-0.1-0.3-0.3
					C23.4,23.7,23.5,23.6,23.6,23.6z M23.6,24c0.1,0,0.2-0.1,0.2-0.2c0-0.1-0.1-0.2-0.2-0.2c-0.1,0-0.2,0.1-0.2,0.2
					C23.5,23.9,23.6,24,23.6,24z"/>
			</g>
		</g>
		<g>
			<rect x="23.6" y="21.8" class="st0" width="0.1" height="1.8"/>
		</g>
	</g>
	<g>
		<g>
			<g>
				<path class="st0" d="M14.2,0.5c0.2,0,0.3,0.1,0.3,0.3c0,0.2-0.1,0.3-0.3,0.3c-0.2,0-0.3-0.1-0.3-0.3C13.9,0.6,14,0.5,14.2,0.5z
					 M14.2,1c0.1,0,0.2-0.1,0.2-0.2c0-0.1-0.1-0.2-0.2-0.2c-0.1,0-0.2,0.1-0.2,0.2C14,0.9,14.1,1,14.2,1z"/>
			</g>
			<g>
				<path class="st0" d="M14.2,2.7c0.2,0,0.3,0.1,0.3,0.3c0,0.2-0.1,0.3-0.3,0.3c-0.2,0-0.3-0.1-0.3-0.3C13.9,2.9,14,2.7,14.2,2.7z
					 M14.2,3.2c0.1,0,0.2-0.1,0.2-0.2c0-0.1-0.1-0.2-0.2-0.2C14.1,2.8,14,2.9,14,3C14,3.1,14.1,3.2,14.2,3.2z"/>
			</g>
		</g>
		<g>
			<rect x="14.1" y="1" class="st0" width="0.1" height="1.8"/>
		</g>
	</g>
	<g>
		<g>
			<g>
				<path class="st0" d="M21.3,0.5c0.2,0,0.3,0.1,0.3,0.3c0,0.2-0.1,0.3-0.3,0.3S21,0.9,21,0.8C21,0.6,21.2,0.5,21.3,0.5z M21.3,1
					c0.1,0,0.2-0.1,0.2-0.2c0-0.1-0.1-0.2-0.2-0.2c-0.1,0-0.2,0.1-0.2,0.2C21.1,0.9,21.2,1,21.3,1z"/>
			</g>
			<g>
				<path class="st0" d="M21.3,2.7c0.2,0,0.3,0.1,0.3,0.3c0,0.2-0.1,0.3-0.3,0.3S21,3.2,21,3C21,2.9,21.2,2.7,21.3,2.7z M21.3,3.2
					c0.1,0,0.2-0.1,0.2-0.2c0-0.1-0.1-0.2-0.2-0.2c-0.1,0-0.2,0.1-0.2,0.2C21.1,3.1,21.2,3.2,21.3,3.2z"/>
			</g>
		</g>
		<g>
			<rect x="21.3" y="1" class="st0" width="0.1" height="1.8"/>
		</g>
	</g>
	<g>
		<g>
			<g>
				<path class="st0" d="M24.4,0.5c0.2,0,0.3,0.1,0.3,0.3c0,0.2-0.1,0.3-0.3,0.3c-0.2,0-0.3-0.1-0.3-0.3C24.1,0.6,24.2,0.5,24.4,0.5
					z M24.4,0.9c0.1,0,0.2-0.1,0.2-0.2c0-0.1-0.1-0.2-0.2-0.2c-0.1,0-0.2,0.1-0.2,0.2C24.2,0.9,24.3,0.9,24.4,0.9z"/>
			</g>
			<g>
				<path class="st0" d="M24.4,2.7c0.2,0,0.3,0.1,0.3,0.3c0,0.2-0.1,0.3-0.3,0.3c-0.2,0-0.3-0.1-0.3-0.3C24.1,2.9,24.2,2.7,24.4,2.7
					z M24.4,3.2c0.1,0,0.2-0.1,0.2-0.2c0-0.1-0.1-0.2-0.2-0.2c-0.1,0-0.2,0.1-0.2,0.2C24.2,3.1,24.3,3.2,24.4,3.2z"/>
			</g>
		</g>
		<g>
			<rect x="24.3" y="1" class="st0" width="0.1" height="1.8"/>
		</g>
	</g>
	<g>
		<g>
			<g>
				<path class="st0" d="M24.4,18.2c0.2,0,0.3,0.1,0.3,0.3c0,0.2-0.1,0.3-0.3,0.3c-0.2,0-0.3-0.1-0.3-0.3
					C24.1,18.4,24.2,18.2,24.4,18.2z M24.4,18.7c0.1,0,0.2-0.1,0.2-0.2c0-0.1-0.1-0.2-0.2-0.2c-0.1,0-0.2,0.1-0.2,0.2
					C24.2,18.6,24.3,18.7,24.4,18.7z"/>
			</g>
			<g>
				<path class="st0" d="M24.4,20.5c0.2,0,0.3,0.1,0.3,0.3c0,0.2-0.1,0.3-0.3,0.3c-0.2,0-0.3-0.1-0.3-0.3
					C24.1,20.6,24.2,20.5,24.4,20.5z M24.4,20.9c0.1,0,0.2-0.1,0.2-0.2c0-0.1-0.1-0.2-0.2-0.2c-0.1,0-0.2,0.1-0.2,0.2
					C24.2,20.8,24.3,20.9,24.4,20.9z"/>
			</g>
		</g>
		<g>
			<rect x="24.3" y="18.7" class="st0" width="0.1" height="1.8"/>
		</g>
	</g>
	<g>
		<g>
			<g>
				<path class="st0" d="M13.9,11.8c0.2,0,0.3,0.1,0.3,0.3c0,0.2-0.1,0.3-0.3,0.3c-0.2,0-0.3-0.1-0.3-0.3
					C13.6,12,13.7,11.8,13.9,11.8z M13.9,12.3c0.1,0,0.2-0.1,0.2-0.2c0-0.1-0.1-0.2-0.2-0.2c-0.1,0-0.2,0.1-0.2,0.2
					C13.7,12.2,13.8,12.3,13.9,12.3z"/>
			</g>
			<g>
				<path class="st0" d="M13.9,14.1c0.2,0,0.3,0.1,0.3,0.3c0,0.2-0.1,0.3-0.3,0.3c-0.2,0-0.3-0.1-0.3-0.3
					C13.6,14.2,13.7,14.1,13.9,14.1z M13.9,14.5c0.1,0,0.2-0.1,0.2-0.2c0-0.1-0.1-0.2-0.2-0.2c-0.1,0-0.2,0.1-0.2,0.2
					C13.7,14.4,13.8,14.5,13.9,14.5z"/>
			</g>
		</g>
		<g>
			<rect x="13.8" y="12.3" class="st0" width="0.1" height="1.8"/>
		</g>
	</g>
	<g>
		<g>
			<g>
				<path class="st0" d="M20.4,17c0.2,0,0.3,0.1,0.3,0.3s-0.1,0.3-0.3,0.3c-0.2,0-0.3-0.1-0.3-0.3S20.2,17,20.4,17z M20.4,17.4
					c0.1,0,0.2-0.1,0.2-0.2c0-0.1-0.1-0.2-0.2-0.2c-0.1,0-0.2,0.1-0.2,0.2C20.2,17.3,20.3,17.4,20.4,17.4z"/>
			</g>
			<g>
				<path class="st0" d="M20.4,19.2c0.2,0,0.3,0.1,0.3,0.3c0,0.2-0.1,0.3-0.3,0.3c-0.2,0-0.3-0.1-0.3-0.3
					C20.1,19.3,20.2,19.2,20.4,19.2z M20.4,19.6c0.1,0,0.2-0.1,0.2-0.2c0-0.1-0.1-0.2-0.2-0.2c-0.1,0-0.2,0.1-0.2,0.2
					C20.2,19.6,20.3,19.6,20.4,19.6z"/>
			</g>
		</g>
		<g>
			<rect x="20.3" y="17.5" class="st0" width="0.1" height="1.8"/>
		</g>
	</g>
	<g>
		<rect x="14.8" y="17.1" class="st0" width="1.8" height="0.1"/>
	</g>
	<g>
		<polygon class="st0" points="15.8,0 15.8,3.6 14.9,3.6 14.9,6.4 14,6.4 14,9 14.9,9 14.9,11.3 14.8,11.3 14.8,9.1 13.9,9.1 
			13.9,6.3 14.8,6.3 14.8,3.5 15.7,3.5 15.7,0 		"/>
	</g>
	<g>
		<rect x="14.8" y="7" class="st0" width="0.1" height="1.4"/>
	</g>
	<g>
		<g>
			<rect x="13.1" y="0" class="st0" width="0.1" height="4.2"/>
		</g>
		<g>
			<path class="st0" d="M13.5,4.5c0,0.2-0.1,0.3-0.3,0.3c-0.2,0-0.3-0.1-0.3-0.3c0-0.2,0.1-0.3,0.3-0.3C13.3,4.2,13.5,4.3,13.5,4.5z
				 M13,4.5c0,0.1,0.1,0.2,0.2,0.2c0.1,0,0.2-0.1,0.2-0.2c0-0.1-0.1-0.2-0.2-0.2C13.1,4.3,13,4.4,13,4.5z"/>
		</g>
		<g>
			<path class="st0" d="M13.7,11c0,0.2-0.1,0.3-0.3,0.3s-0.3-0.1-0.3-0.3c0-0.2,0.1-0.3,0.3-0.3S13.7,10.9,13.7,11z M13.2,11
				c0,0.1,0.1,0.2,0.2,0.2c0.1,0,0.2-0.1,0.2-0.2c0-0.1-0.1-0.2-0.2-0.2C13.3,10.9,13.2,10.9,13.2,11z"/>
		</g>
		<g>
			<path class="st0" d="M12.6,6.6c0,0.2-0.1,0.3-0.3,0.3c-0.2,0-0.3-0.1-0.3-0.3c0-0.2,0.1-0.3,0.3-0.3C12.4,6.4,12.6,6.5,12.6,6.6z
				 M12.1,6.6c0,0.1,0.1,0.2,0.2,0.2c0.1,0,0.2-0.1,0.2-0.2c0-0.1-0.1-0.2-0.2-0.2C12.2,6.5,12.1,6.6,12.1,6.6z"/>
		</g>
		<g>
			<path class="st0" d="M13.7,8.8c0,0.2-0.1,0.3-0.3,0.3s-0.3-0.1-0.3-0.3c0-0.2,0.1-0.3,0.3-0.3S13.7,8.6,13.7,8.8z M13.2,8.8
				c0,0.1,0.1,0.2,0.2,0.2c0.1,0,0.2-0.1,0.2-0.2c0-0.1-0.1-0.2-0.2-0.2C13.3,8.6,13.2,8.7,13.2,8.8z"/>
		</g>
		<g>
			<path class="st0" d="M13.7,9.7c0,0.2-0.1,0.3-0.3,0.3s-0.3-0.1-0.3-0.3c0-0.2,0.1-0.3,0.3-0.3S13.7,9.5,13.7,9.7z M13.2,9.7
				c0,0.1,0.1,0.2,0.2,0.2c0.1,0,0.2-0.1,0.2-0.2c0-0.1-0.1-0.2-0.2-0.2C13.3,9.5,13.2,9.6,13.2,9.7z"/>
		</g>
		<g>
			<path class="st0" d="M11.5,9.7c0,0.2-0.1,0.3-0.3,0.3s-0.3-0.1-0.3-0.3c0-0.2,0.1-0.3,0.3-0.3S11.5,9.5,11.5,9.7z M11,9.7
				c0,0.1,0.1,0.2,0.2,0.2c0.1,0,0.2-0.1,0.2-0.2c0-0.1-0.1-0.2-0.2-0.2C11.1,9.5,11,9.6,11,9.7z"/>
		</g>
		<g>
			<path class="st0" d="M7.9,3.8C7.9,3.9,7.8,4,7.6,4C7.5,4,7.4,3.9,7.4,3.8c0-0.2,0.1-0.3,0.3-0.3C7.8,3.5,7.9,3.6,7.9,3.8z
				 M7.5,3.8c0,0.1,0.1,0.2,0.2,0.2c0.1,0,0.2-0.1,0.2-0.2c0-0.1-0.1-0.2-0.2-0.2C7.5,3.6,7.5,3.7,7.5,3.8z"/>
		</g>
		<g>
			<path class="st0" d="M8.1,2.3c0,0.2-0.1,0.3-0.3,0.3c-0.2,0-0.3-0.1-0.3-0.3c0-0.2,0.1-0.3,0.3-0.3C8,2.1,8.1,2.2,8.1,2.3z
				 M7.7,2.3c0,0.1,0.1,0.2,0.2,0.2C7.9,2.5,8,2.4,8,2.3c0-0.1-0.1-0.2-0.2-0.2C7.8,2.2,7.7,2.2,7.7,2.3z"/>
		</g>
		<g>
			<path class="st0" d="M8.1,4.9c0,0.2-0.1,0.3-0.3,0.3c-0.2,0-0.3-0.1-0.3-0.3c0-0.2,0.1-0.3,0.3-0.3C8,4.7,8.1,4.8,8.1,4.9z
				 M7.7,4.9c0,0.1,0.1,0.2,0.2,0.2C7.9,5.1,8,5,8,4.9c0-0.1-0.1-0.2-0.2-0.2C7.8,4.8,7.7,4.8,7.7,4.9z"/>
		</g>
		<g>
			<path class="st0" d="M9,4.9C9,5,8.9,5.2,8.7,5.2C8.6,5.2,8.5,5,8.5,4.9c0-0.2,0.1-0.3,0.3-0.3C8.9,4.6,9,4.7,9,4.9z M8.6,4.9
				c0,0.1,0.1,0.2,0.2,0.2c0.1,0,0.2-0.1,0.2-0.2c0-0.1-0.1-0.2-0.2-0.2C8.6,4.7,8.6,4.8,8.6,4.9z"/>
		</g>
		<g>
			<path class="st0" d="M9,9c0,0.2-0.1,0.3-0.3,0.3C8.6,9.3,8.5,9.1,8.5,9c0-0.2,0.1-0.3,0.3-0.3C8.9,8.7,9,8.8,9,9z M8.6,9
				c0,0.1,0.1,0.2,0.2,0.2c0.1,0,0.2-0.1,0.2-0.2c0-0.1-0.1-0.2-0.2-0.2C8.6,8.8,8.6,8.9,8.6,9z"/>
		</g>
		<g>
			<path class="st0" d="M7.9,7.9c0,0.2-0.1,0.3-0.3,0.3C7.5,8.2,7.4,8,7.4,7.9c0-0.2,0.1-0.3,0.3-0.3C7.8,7.6,7.9,7.7,7.9,7.9z
				 M7.5,7.9c0,0.1,0.1,0.2,0.2,0.2c0.1,0,0.2-0.1,0.2-0.2c0-0.1-0.1-0.2-0.2-0.2C7.5,7.7,7.5,7.8,7.5,7.9z"/>
		</g>
		<g>
			<path class="st0" d="M10.1,7.9c0,0.2-0.1,0.3-0.3,0.3C9.7,8.2,9.6,8,9.6,7.9c0-0.2,0.1-0.3,0.3-0.3C10,7.6,10.1,7.7,10.1,7.9z
				 M9.7,7.9c0,0.1,0.1,0.2,0.2,0.2C9.9,8.1,10,8,10,7.9c0-0.1-0.1-0.2-0.2-0.2C9.8,7.7,9.7,7.8,9.7,7.9z"/>
		</g>
		<g>
			<path class="st0" d="M9.9,15.1c0,0.2-0.1,0.3-0.3,0.3c-0.2,0-0.3-0.1-0.3-0.3c0-0.2,0.1-0.3,0.3-0.3C9.8,14.9,9.9,15,9.9,15.1z
				 M9.5,15.1c0,0.1,0.1,0.2,0.2,0.2c0.1,0,0.2-0.1,0.2-0.2C9.8,15,9.7,15,9.6,15C9.5,15,9.5,15,9.5,15.1z"/>
		</g>
		<g>
			<path class="st0" d="M9.9,7.2c0,0.2-0.1,0.3-0.3,0.3c-0.1,0-0.3-0.1-0.3-0.3c0-0.2,0.1-0.3,0.3-0.3C9.8,6.9,9.9,7,9.9,7.2z
				 M9.5,7.2c0,0.1,0.1,0.2,0.2,0.2c0.1,0,0.2-0.1,0.2-0.2C9.8,7.1,9.7,7,9.6,7C9.5,7,9.5,7.1,9.5,7.2z"/>
		</g>
		<g>
			<path class="st0" d="M10.8,13.2c0,0.2-0.1,0.3-0.3,0.3c-0.2,0-0.3-0.1-0.3-0.3s0.1-0.3,0.3-0.3C10.7,12.9,10.8,13.1,10.8,13.2z
				 M10.3,13.2c0,0.1,0.1,0.2,0.2,0.2c0.1,0,0.2-0.1,0.2-0.2c0-0.1-0.1-0.2-0.2-0.2C10.4,13,10.3,13.1,10.3,13.2z"/>
		</g>
		<g>
			<path class="st0" d="M10.8,14.7c0,0.2-0.1,0.3-0.3,0.3c-0.2,0-0.3-0.1-0.3-0.3s0.1-0.3,0.3-0.3C10.7,14.4,10.8,14.5,10.8,14.7z
				 M10.3,14.7c0,0.1,0.1,0.2,0.2,0.2c0.1,0,0.2-0.1,0.2-0.2c0-0.1-0.1-0.2-0.2-0.2C10.4,14.5,10.3,14.6,10.3,14.7z"/>
		</g>
		<g>
			<path class="st0" d="M9,20.8c0,0.2-0.1,0.3-0.3,0.3c-0.1,0-0.3-0.1-0.3-0.3c0-0.2,0.1-0.3,0.3-0.3C8.9,20.6,9,20.7,9,20.8z
				 M8.6,20.8c0,0.1,0.1,0.2,0.2,0.2c0.1,0,0.2-0.1,0.2-0.2c0-0.1-0.1-0.2-0.2-0.2C8.6,20.7,8.6,20.8,8.6,20.8z"/>
		</g>
		<g>
			<path class="st0" d="M8.1,13.4c0,0.2-0.1,0.3-0.3,0.3c-0.2,0-0.3-0.1-0.3-0.3c0-0.2,0.1-0.3,0.3-0.3C8,13.2,8.1,13.3,8.1,13.4z
				 M7.7,13.4c0,0.1,0.1,0.2,0.2,0.2c0.1,0,0.2-0.1,0.2-0.2c0-0.1-0.1-0.2-0.2-0.2C7.8,13.3,7.7,13.3,7.7,13.4z"/>
		</g>
		<g>
			<path class="st0" d="M9.9,19c0,0.2-0.1,0.3-0.3,0.3c-0.1,0-0.3-0.1-0.3-0.3c0-0.2,0.1-0.3,0.3-0.3C9.8,18.7,9.9,18.8,9.9,19z
				 M9.5,19c0,0.1,0.1,0.2,0.2,0.2c0.1,0,0.2-0.1,0.2-0.2c0-0.1-0.1-0.2-0.2-0.2C9.5,18.8,9.5,18.9,9.5,19z"/>
		</g>
		<g>
			<path class="st0" d="M9.9,22.5c0,0.2-0.1,0.3-0.3,0.3c-0.1,0-0.3-0.1-0.3-0.3c0-0.2,0.1-0.3,0.3-0.3C9.8,22.2,9.9,22.3,9.9,22.5z
				 M9.5,22.5c0,0.1,0.1,0.2,0.2,0.2c0.1,0,0.2-0.1,0.2-0.2c0-0.1-0.1-0.2-0.2-0.2C9.5,22.3,9.5,22.4,9.5,22.5z"/>
		</g>
		<g>
			<path class="st0" d="M12.6,12.5c0,0.2-0.1,0.3-0.3,0.3c-0.2,0-0.3-0.1-0.3-0.3s0.1-0.3,0.3-0.3C12.4,12.2,12.6,12.3,12.6,12.5z
				 M12.1,12.5c0,0.1,0.1,0.2,0.2,0.2c0.1,0,0.2-0.1,0.2-0.2s-0.1-0.2-0.2-0.2C12.2,12.3,12.1,12.4,12.1,12.5z"/>
		</g>
		<g>
			<path class="st0" d="M11.5,15.9c0,0.2-0.1,0.3-0.3,0.3s-0.3-0.1-0.3-0.3c0-0.2,0.1-0.3,0.3-0.3S11.5,15.8,11.5,15.9z M11,15.9
				c0,0.1,0.1,0.2,0.2,0.2c0.1,0,0.2-0.1,0.2-0.2c0-0.1-0.1-0.2-0.2-0.2C11.1,15.8,11,15.8,11,15.9z"/>
		</g>
		<g>
			<path class="st0" d="M12.6,16.7c0,0.2-0.1,0.3-0.3,0.3c-0.2,0-0.3-0.1-0.3-0.3c0-0.2,0.1-0.3,0.3-0.3
				C12.4,16.4,12.6,16.5,12.6,16.7z M12.1,16.7c0,0.1,0.1,0.2,0.2,0.2c0.1,0,0.2-0.1,0.2-0.2c0-0.1-0.1-0.2-0.2-0.2
				C12.2,16.5,12.1,16.6,12.1,16.7z"/>
		</g>
		<g>
			<path class="st0" d="M11.7,20.1c0,0.2-0.1,0.3-0.3,0.3c-0.2,0-0.3-0.1-0.3-0.3c0-0.2,0.1-0.3,0.3-0.3
				C11.6,19.9,11.7,20,11.7,20.1z M11.2,20.1c0,0.1,0.1,0.2,0.2,0.2c0.1,0,0.2-0.1,0.2-0.2c0-0.1-0.1-0.2-0.2-0.2
				C11.3,20,11.2,20,11.2,20.1z"/>
		</g>
		<g>
			<path class="st0" d="M12.6,21.6c0,0.2-0.1,0.3-0.3,0.3c-0.2,0-0.3-0.1-0.3-0.3c0-0.2,0.1-0.3,0.3-0.3
				C12.4,21.3,12.6,21.4,12.6,21.6z M12.1,21.6c0,0.1,0.1,0.2,0.2,0.2c0.1,0,0.2-0.1,0.2-0.2c0-0.1-0.1-0.2-0.2-0.2
				C12.2,21.4,12.1,21.5,12.1,21.6z"/>
		</g>
		<g>
			<path class="st0" d="M10.8,24.7c0,0.2-0.1,0.3-0.3,0.3c-0.2,0-0.3-0.1-0.3-0.3s0.1-0.3,0.3-0.3C10.7,24.5,10.8,24.6,10.8,24.7z
				 M10.3,24.7c0,0.1,0.1,0.2,0.2,0.2c0.1,0,0.2-0.1,0.2-0.2c0-0.1-0.1-0.2-0.2-0.2C10.4,24.6,10.3,24.6,10.3,24.7z"/>
		</g>
		<g>
			<path class="st0" d="M13.5,16.4c0,0.2-0.1,0.3-0.3,0.3c-0.2,0-0.3-0.1-0.3-0.3c0-0.2,0.1-0.3,0.3-0.3
				C13.3,16.1,13.5,16.2,13.5,16.4z M13,16.4c0,0.1,0.1,0.2,0.2,0.2c0.1,0,0.2-0.1,0.2-0.2c0-0.1-0.1-0.2-0.2-0.2
				C13.1,16.2,13,16.3,13,16.4z"/>
		</g>
		<g>
			<path class="st0" d="M13.5,23.7c0,0.2-0.1,0.3-0.3,0.3c-0.2,0-0.3-0.1-0.3-0.3c0-0.2,0.1-0.3,0.3-0.3
				C13.3,23.5,13.5,23.6,13.5,23.7z M13,23.7c0,0.1,0.1,0.2,0.2,0.2c0.1,0,0.2-0.1,0.2-0.2c0-0.1-0.1-0.2-0.2-0.2
				C13.1,23.6,13,23.6,13,23.7z"/>
		</g>
		<g>
			<path class="st0" d="M12.6,15.4c0,0.2-0.1,0.3-0.3,0.3c-0.2,0-0.3-0.1-0.3-0.3s0.1-0.3,0.3-0.3C12.4,15.2,12.6,15.3,12.6,15.4z
				 M12.1,15.4c0,0.1,0.1,0.2,0.2,0.2c0.1,0,0.2-0.1,0.2-0.2s-0.1-0.2-0.2-0.2C12.2,15.3,12.1,15.3,12.1,15.4z"/>
		</g>
		<g>
			<path class="st0" d="M11.7,12.4c0,0.2-0.1,0.3-0.3,0.3c-0.2,0-0.3-0.1-0.3-0.3s0.1-0.3,0.3-0.3C11.6,12.1,11.7,12.2,11.7,12.4z
				 M11.2,12.4c0,0.1,0.1,0.2,0.2,0.2c0.1,0,0.2-0.1,0.2-0.2s-0.1-0.2-0.2-0.2C11.3,12.2,11.2,12.3,11.2,12.4z"/>
		</g>
		<g>
			<path class="st0" d="M11.7,3.4c0,0.2-0.1,0.3-0.3,0.3c-0.2,0-0.3-0.1-0.3-0.3c0-0.2,0.1-0.3,0.3-0.3C11.6,3.1,11.7,3.2,11.7,3.4z
				 M11.2,3.4c0,0.1,0.1,0.2,0.2,0.2c0.1,0,0.2-0.1,0.2-0.2c0-0.1-0.1-0.2-0.2-0.2C11.3,3.2,11.2,3.3,11.2,3.4z"/>
		</g>
		<g>
			<rect x="12.2" y="0" class="st0" width="0.1" height="6.4"/>
		</g>
		<g>
			<rect x="11.4" y="0" class="st0" width="0.1" height="3.1"/>
		</g>
		<g>
			<polygon class="st0" points="13.2,8.7 13.2,8.8 11.4,8.8 11.4,5.2 10.5,5.2 10.5,0 10.6,0 10.6,5.1 11.5,5.1 11.5,8.7 			"/>
		</g>
		<g>
			<polygon class="st0" points="13.2,11 13.2,11.1 12.3,11.1 12.3,12 11.4,12 11.4,10.4 10.5,10.4 10.5,6.7 9.6,6.7 9.6,0 9.7,0 
				9.7,6.6 10.6,6.6 10.6,10.3 11.5,10.3 11.5,11.9 12.2,11.9 12.2,11 			"/>
		</g>
		<g>
			<polygon class="st0" points="8.8,0 8.8,3.8 7.8,3.8 7.8,3.7 8.7,3.7 8.7,0 			"/>
		</g>
		<g>
			<rect x="8.7" y="5.1" class="st0" width="0.1" height="3.7"/>
		</g>
		<g>
			<polygon class="st0" points="10.6,11.2 10.6,13 10.5,13 10.5,11.3 9.6,11.3 9.6,7.4 9.7,7.4 9.7,11.2 			"/>
		</g>
		<g>
			<polygon class="st0" points="13.2,14.3 13.2,16 11.4,16 11.4,15.9 13.1,15.9 13.1,14.4 12.2,14.4 12.2,12.7 12.3,12.7 12.3,14.3 
							"/>
		</g>
		<g>
			<polygon class="st0" points="12.3,14.7 12.3,15.2 12.2,15.2 12.2,14.8 11.4,14.8 11.4,12.6 11.5,12.6 11.5,14.7 			"/>
		</g>
		<g>
			<polygon class="st0" points="10.6,14.9 10.6,17.8 9.6,17.8 9.6,16.7 8.8,16.7 8.8,20.6 8.7,20.6 8.7,16.6 9.7,16.6 9.7,17.7 
				10.5,17.7 10.5,14.9 			"/>
		</g>
		<g>
			<polygon class="st0" points="10.6,20.3 10.6,21.2 9.7,21.2 9.7,22.2 9.6,22.2 9.6,21.1 10.5,21.1 10.5,20.4 9.6,20.4 9.6,19.2 
				9.7,19.2 9.7,20.3 			"/>
		</g>
		<g>
			<polygon class="st0" points="13.2,16.6 13.2,19 12.3,19 12.3,20.8 13.2,20.8 13.2,23.5 13.1,23.5 13.1,20.9 12.2,20.9 12.2,19 
				13.1,19 13.1,16.6 			"/>
		</g>
		<g>
			<polygon class="st0" points="12.3,16.9 12.3,18.5 11.5,18.5 11.5,19.9 11.4,19.9 11.4,18.4 12.2,18.4 12.2,16.9 			"/>
		</g>
		<g>
			<polygon class="st0" points="12.3,21.8 12.3,23.3 11.4,23.3 11.4,22.5 10.6,22.5 10.6,24.4 10.5,24.4 10.5,22.4 11.5,22.4 
				11.5,23.2 12.2,23.2 12.2,21.8 			"/>
		</g>
		<g>
			<rect x="7.8" y="0" class="st0" width="0.1" height="2.1"/>
		</g>
		<g>
			<polygon class="st0" points="9.7,13 9.7,14.9 9.6,14.9 9.6,13.1 8.7,13.1 8.7,11.1 7.8,11.1 7.8,9.2 6.9,9.2 6.9,7.3 7.8,7.3 
				7.8,5.2 7.9,5.2 7.9,7.4 7,7.4 7,9.1 7.9,9.1 7.9,11 8.8,11 8.8,13 			"/>
		</g>
		<g>
			<rect x="11.4" y="9.6" class="st0" width="1.8" height="0.1"/>
		</g>
		<g>
			<rect x="7.8" y="7.8" class="st0" width="1.8" height="0.1"/>
		</g>
		<g>
			<polygon class="st0" points="8.8,21.4 8.8,25 8.7,25 8.7,21.5 7.8,21.5 7.8,18.7 6.9,18.7 6.9,15.9 7.8,15.9 7.8,13.7 7.9,13.7 
				7.9,16 7,16 7,18.6 7.9,18.6 7.9,21.4 			"/>
		</g>
		<g>
			<rect x="7.8" y="16.6" class="st0" width="0.1" height="1.4"/>
		</g>
	</g>
	<g>
		<path class="st0" d="M6.3,18.2c0,0.2-0.1,0.3-0.3,0.3c-0.2,0-0.3-0.1-0.3-0.3c0-0.2,0.1-0.3,0.3-0.3C6.2,18,6.3,18.1,6.3,18.2z
			 M5.9,18.2c0,0.1,0.1,0.2,0.2,0.2c0.1,0,0.2-0.1,0.2-0.2c0-0.1-0.1-0.2-0.2-0.2C6,18.1,5.9,18.1,5.9,18.2z"/>
	</g>
	<g>
		<path class="st0" d="M8.1,18.2c0,0.2-0.1,0.3-0.3,0.3c-0.2,0-0.3-0.1-0.3-0.3c0-0.2,0.1-0.3,0.3-0.3C8,18,8.1,18.1,8.1,18.2z
			 M7.7,18.2c0,0.1,0.1,0.2,0.2,0.2c0.1,0,0.2-0.1,0.2-0.2c0-0.1-0.1-0.2-0.2-0.2C7.8,18.1,7.7,18.1,7.7,18.2z"/>
	</g>
	<g>
		<path class="st0" d="M8.1,16.3c0,0.2-0.1,0.3-0.3,0.3c-0.2,0-0.3-0.1-0.3-0.3c0-0.2,0.1-0.3,0.3-0.3C8,16,8.1,16.1,8.1,16.3z
			 M7.7,16.3c0,0.1,0.1,0.2,0.2,0.2c0.1,0,0.2-0.1,0.2-0.2c0-0.1-0.1-0.2-0.2-0.2C7.8,16.1,7.7,16.2,7.7,16.3z"/>
	</g>
	<g>
		<path class="st0" d="M15.1,8.7c0,0.2-0.1,0.3-0.3,0.3c-0.2,0-0.3-0.1-0.3-0.3c0-0.2,0.1-0.3,0.3-0.3C15,8.4,15.1,8.5,15.1,8.7z
			 M14.7,8.7c0,0.1,0.1,0.2,0.2,0.2c0.1,0,0.2-0.1,0.2-0.2c0-0.1-0.1-0.2-0.2-0.2C14.7,8.5,14.7,8.6,14.7,8.7z"/>
	</g>
	<g>
		<path class="st0" d="M15.1,6.8C15.1,6.9,15,7,14.8,7c-0.2,0-0.3-0.1-0.3-0.3c0-0.2,0.1-0.3,0.3-0.3C15,6.5,15.1,6.6,15.1,6.8z
			 M14.7,6.8c0,0.1,0.1,0.2,0.2,0.2c0.1,0,0.2-0.1,0.2-0.2c0-0.1-0.1-0.2-0.2-0.2C14.7,6.6,14.7,6.7,14.7,6.8z"/>
	</g>
	<g>
		<path class="st0" d="M22.1,6.8C22.1,6.9,22,7,21.8,7c-0.2,0-0.3-0.1-0.3-0.3c0-0.2,0.1-0.3,0.3-0.3C22,6.5,22.1,6.6,22.1,6.8z
			 M21.6,6.8c0,0.1,0.1,0.2,0.2,0.2c0.1,0,0.2-0.1,0.2-0.2c0-0.1-0.1-0.2-0.2-0.2C21.7,6.6,21.6,6.7,21.6,6.8z"/>
	</g>
	<g>
		<path class="st0" d="M22.1,8.7c0,0.2-0.1,0.3-0.3,0.3c-0.2,0-0.3-0.1-0.3-0.3c0-0.2,0.1-0.3,0.3-0.3C22,8.4,22.1,8.5,22.1,8.7z
			 M21.6,8.7c0,0.1,0.1,0.2,0.2,0.2c0.1,0,0.2-0.1,0.2-0.2c0-0.1-0.1-0.2-0.2-0.2C21.7,8.5,21.6,8.6,21.6,8.7z"/>
	</g>
	<g>
		<path class="st0" d="M6.3,16.3c0,0.2-0.1,0.3-0.3,0.3c-0.2,0-0.3-0.1-0.3-0.3c0-0.2,0.1-0.3,0.3-0.3C6.2,16,6.3,16.1,6.3,16.3z
			 M5.9,16.3c0,0.1,0.1,0.2,0.2,0.2c0.1,0,0.2-0.1,0.2-0.2c0-0.1-0.1-0.2-0.2-0.2C6,16.1,5.9,16.2,5.9,16.3z"/>
	</g>
</g>
</svg>
