<?xml version="1.0" encoding="utf-8"?>
<!-- Generator: Adobe Illustrator 26.3.1, SVG Export Plug-In . SVG Version: 6.00 Build 0)  -->
<svg version="1.1" id="Layer_1" xmlns="http://www.w3.org/2000/svg" xmlns:xlink="http://www.w3.org/1999/xlink" x="0px" y="0px"
	 viewBox="0 0 25 25" style="enable-background:new 0 0 25 25;" xml:space="preserve">
<style type="text/css">
	.st0{fill:url(#SVGID_1_);}
</style>
<g id="Layer_2">
	<g id="Layer_3">
		<g id="Layer_4">
		</g>
		<g id="Layer_5">
		</g>
	</g>
</g>
<linearGradient id="SVGID_1_" gradientUnits="userSpaceOnUse" x1="12.5" y1="0.3295" x2="12.5" y2="24.8491">
	<stop  offset="0" style="stop-color:#DAF8CE"/>
	<stop  offset="2.718884e-02" style="stop-color:#DDF9D2"/>
	<stop  offset="0.1923" style="stop-color:#ECFBE6"/>
	<stop  offset="0.3807" style="stop-color:#F7FDF4"/>
	<stop  offset="0.6107" style="stop-color:#FDFFFD"/>
	<stop  offset="1" style="stop-color:#FFFFFF"/>
</linearGradient>
<path class="st0" d="M0.8,0v4.2H0.7L0.8,0L0.8,0z M0.7,4.2c-0.2,0-0.3,0.1-0.3,0.3c0,0.2,0.1,0.3,0.3,0.3C0.9,4.8,1,4.6,1,4.5
	C1,4.3,0.9,4.2,0.7,4.2z M0.7,4.3c0.1,0,0.2,0.1,0.2,0.2c0,0.1-0.1,0.2-0.2,0.2c-0.1,0-0.2-0.1-0.2-0.2C0.6,4.4,0.6,4.3,0.7,4.3z
	 M0.5,10.8c-0.1,0-0.3,0.1-0.3,0.3c0,0.2,0.1,0.3,0.3,0.3c0.2,0,0.3-0.1,0.3-0.3C0.8,10.9,0.7,10.8,0.5,10.8z M0.5,10.9
	c0.1,0,0.2,0.1,0.2,0.2s-0.1,0.2-0.2,0.2S0.3,11.1,0.3,11S0.4,10.9,0.5,10.9z M1.6,6.4c-0.2,0-0.3,0.1-0.3,0.3
	c0,0.2,0.1,0.3,0.3,0.3s0.3-0.1,0.3-0.3C1.9,6.5,1.8,6.4,1.6,6.4z M1.6,6.5c0.1,0,0.2,0.1,0.2,0.2c0,0.1-0.1,0.2-0.2,0.2
	c-0.1,0-0.2-0.1-0.2-0.2C1.5,6.6,1.5,6.5,1.6,6.5z M0.5,8.5c-0.1,0-0.3,0.1-0.3,0.3C0.2,8.9,0.4,9,0.5,9c0.2,0,0.3-0.1,0.3-0.3
	C0.8,8.6,0.7,8.5,0.5,8.5z M0.5,8.6c0.1,0,0.2,0.1,0.2,0.2c0,0.1-0.1,0.2-0.2,0.2S0.3,8.9,0.3,8.8C0.3,8.7,0.4,8.6,0.5,8.6z
	 M0.5,9.4c-0.1,0-0.3,0.1-0.3,0.3c0,0.2,0.1,0.3,0.3,0.3c0.2,0,0.3-0.1,0.3-0.3C0.8,9.5,0.7,9.4,0.5,9.4z M0.5,9.5
	c0.1,0,0.2,0.1,0.2,0.2c0,0.1-0.1,0.2-0.2,0.2S0.3,9.7,0.3,9.7C0.3,9.6,0.4,9.5,0.5,9.5z M2.7,9.4c-0.2,0-0.3,0.1-0.3,0.3
	c0,0.2,0.1,0.3,0.3,0.3C2.9,9.9,3,9.8,3,9.7C3,9.5,2.9,9.4,2.7,9.4z M2.7,9.5c0.1,0,0.2,0.1,0.2,0.2c0,0.1-0.1,0.2-0.2,0.2
	c-0.1,0-0.2-0.1-0.2-0.2C2.6,9.6,2.6,9.5,2.7,9.5z M6.3,3.5C6.1,3.5,6,3.6,6,3.8C6,3.9,6.1,4,6.3,4c0.1,0,0.3-0.1,0.3-0.3
	C6.6,3.6,6.4,3.5,6.3,3.5z M6.3,3.6c0.1,0,0.2,0.1,0.2,0.2c0,0.1-0.1,0.2-0.2,0.2c-0.1,0-0.2-0.1-0.2-0.2C6.1,3.7,6.2,3.6,6.3,3.6z
	 M6.1,2.1c-0.2,0-0.3,0.1-0.3,0.3c0,0.2,0.1,0.3,0.3,0.3c0.2,0,0.3-0.1,0.3-0.3C6.3,2.2,6.2,2.1,6.1,2.1z M6.1,2.2
	c0.1,0,0.2,0.1,0.2,0.2c0,0.1-0.1,0.2-0.2,0.2C6,2.5,5.9,2.4,5.9,2.3C5.9,2.2,6,2.2,6.1,2.2z M6.1,4.7c-0.2,0-0.3,0.1-0.3,0.3
	c0,0.2,0.1,0.3,0.3,0.3c0.2,0,0.3-0.1,0.3-0.3C6.3,4.8,6.2,4.7,6.1,4.7z M6.1,4.8c0.1,0,0.2,0.1,0.2,0.2c0,0.1-0.1,0.2-0.2,0.2
	C6,5.1,5.9,5,5.9,4.9C5.9,4.8,6,4.8,6.1,4.8z M5.2,4.6C5,4.6,4.9,4.7,4.9,4.9C4.9,5,5,5.2,5.2,5.2c0.1,0,0.3-0.1,0.3-0.3
	C5.5,4.7,5.3,4.6,5.2,4.6z M5.2,4.7c0.1,0,0.2,0.1,0.2,0.2c0,0.1-0.1,0.2-0.2,0.2C5.1,5.1,5,5,5,4.9C5,4.8,5.1,4.7,5.2,4.7z
	 M5.2,8.7C5,8.7,4.9,8.8,4.9,9c0,0.2,0.1,0.3,0.3,0.3c0.1,0,0.3-0.1,0.3-0.3C5.5,8.8,5.3,8.7,5.2,8.7z M5.2,8.8
	c0.1,0,0.2,0.1,0.2,0.2c0,0.1-0.1,0.2-0.2,0.2C5.1,9.2,5,9.1,5,9C5,8.9,5.1,8.8,5.2,8.8z M6.3,7.6C6.1,7.6,6,7.7,6,7.9
	C6,8,6.1,8.2,6.3,8.2c0.1,0,0.3-0.1,0.3-0.3C6.6,7.7,6.4,7.6,6.3,7.6z M6.3,7.7c0.1,0,0.2,0.1,0.2,0.2c0,0.1-0.1,0.2-0.2,0.2
	C6.2,8.1,6.1,8,6.1,7.9C6.1,7.8,6.2,7.7,6.3,7.7z M4.1,7.6c-0.2,0-0.3,0.1-0.3,0.3c0,0.2,0.1,0.3,0.3,0.3c0.2,0,0.3-0.1,0.3-0.3
	C4.3,7.7,4.2,7.6,4.1,7.6z M4.1,7.7c0.1,0,0.2,0.1,0.2,0.2c0,0.1-0.1,0.2-0.2,0.2C4,8.1,3.9,8,3.9,7.9C3.9,7.8,4,7.7,4.1,7.7z
	 M4.3,14.9C4.1,14.9,4,15,4,15.1c0,0.2,0.1,0.3,0.3,0.3c0.2,0,0.3-0.1,0.3-0.3C4.6,15,4.4,14.9,4.3,14.9z M4.3,15
	c0.1,0,0.2,0.1,0.2,0.2c0,0.1-0.1,0.2-0.2,0.2c-0.1,0-0.2-0.1-0.2-0.2C4.1,15,4.2,15,4.3,15z M4.3,6.9C4.1,6.9,4,7,4,7.2
	c0,0.2,0.1,0.3,0.3,0.3c0.1,0,0.3-0.1,0.3-0.3C4.6,7,4.4,6.9,4.3,6.9z M4.3,7c0.1,0,0.2,0.1,0.2,0.2c0,0.1-0.1,0.2-0.2,0.2
	c-0.1,0-0.2-0.1-0.2-0.2C4.1,7.1,4.2,7,4.3,7z M3.4,12.9c-0.1,0-0.3,0.1-0.3,0.3s0.1,0.3,0.3,0.3c0.2,0,0.3-0.1,0.3-0.3
	S3.6,12.9,3.4,12.9z M3.4,13c0.1,0,0.2,0.1,0.2,0.2c0,0.1-0.1,0.2-0.2,0.2c-0.1,0-0.2-0.1-0.2-0.2C3.2,13.1,3.3,13,3.4,13z
	 M3.4,14.4c-0.1,0-0.3,0.1-0.3,0.3S3.3,15,3.4,15c0.2,0,0.3-0.1,0.3-0.3S3.6,14.4,3.4,14.4z M3.4,14.5c0.1,0,0.2,0.1,0.2,0.2
	c0,0.1-0.1,0.2-0.2,0.2c-0.1,0-0.2-0.1-0.2-0.2C3.2,14.6,3.3,14.5,3.4,14.5z M5.2,20.6c-0.2,0-0.3,0.1-0.3,0.3
	c0,0.2,0.1,0.3,0.3,0.3c0.1,0,0.3-0.1,0.3-0.3C5.5,20.7,5.3,20.6,5.2,20.6z M5.2,20.7c0.1,0,0.2,0.1,0.2,0.2c0,0.1-0.1,0.2-0.2,0.2
	C5.1,21,5,20.9,5,20.8C5,20.8,5.1,20.7,5.2,20.7z M6.1,13.2c-0.2,0-0.3,0.1-0.3,0.3c0,0.2,0.1,0.3,0.3,0.3c0.2,0,0.3-0.1,0.3-0.3
	C6.3,13.3,6.2,13.2,6.1,13.2z M6.1,13.3c0.1,0,0.2,0.1,0.2,0.2c0,0.1-0.1,0.2-0.2,0.2c-0.1,0-0.2-0.1-0.2-0.2
	C5.9,13.3,6,13.3,6.1,13.3z M4.3,18.7C4.1,18.7,4,18.8,4,19c0,0.2,0.1,0.3,0.3,0.3c0.1,0,0.3-0.1,0.3-0.3
	C4.6,18.8,4.4,18.7,4.3,18.7z M4.3,18.8c0.1,0,0.2,0.1,0.2,0.2c0,0.1-0.1,0.2-0.2,0.2c-0.1,0-0.2-0.1-0.2-0.2
	C4.1,18.9,4.2,18.8,4.3,18.8z M4.3,22.2c-0.2,0-0.3,0.1-0.3,0.3c0,0.2,0.1,0.3,0.3,0.3c0.1,0,0.3-0.1,0.3-0.3
	C4.6,22.3,4.4,22.2,4.3,22.2z M4.3,22.3c0.1,0,0.2,0.1,0.2,0.2c0,0.1-0.1,0.2-0.2,0.2c-0.1,0-0.2-0.1-0.2-0.2
	C4.1,22.4,4.2,22.3,4.3,22.3z M1.6,12.2c-0.2,0-0.3,0.1-0.3,0.3s0.1,0.3,0.3,0.3s0.3-0.1,0.3-0.3S1.8,12.2,1.6,12.2z M1.6,12.3
	c0.1,0,0.2,0.1,0.2,0.2s-0.1,0.2-0.2,0.2c-0.1,0-0.2-0.1-0.2-0.2S1.5,12.3,1.6,12.3z M2.7,15.7c-0.2,0-0.3,0.1-0.3,0.3
	c0,0.2,0.1,0.3,0.3,0.3c0.2,0,0.3-0.1,0.3-0.3C3,15.8,2.9,15.7,2.7,15.7z M2.7,15.8c0.1,0,0.2,0.1,0.2,0.2c0,0.1-0.1,0.2-0.2,0.2
	c-0.1,0-0.2-0.1-0.2-0.2C2.6,15.8,2.6,15.8,2.7,15.8z M1.6,16.4c-0.1,0-0.3,0.1-0.3,0.3c0,0.2,0.1,0.3,0.3,0.3
	c0.2,0,0.3-0.1,0.3-0.3C1.9,16.5,1.8,16.4,1.6,16.4z M1.6,16.5c0.1,0,0.2,0.1,0.2,0.2c0,0.1-0.1,0.2-0.2,0.2c-0.1,0-0.2-0.1-0.2-0.2
	C1.5,16.6,1.5,16.5,1.6,16.5z M2.5,19.9c-0.1,0-0.3,0.1-0.3,0.3c0,0.2,0.1,0.3,0.3,0.3c0.2,0,0.3-0.1,0.3-0.3
	C2.8,20,2.7,19.9,2.5,19.9z M2.5,20c0.1,0,0.2,0.1,0.2,0.2c0,0.1-0.1,0.2-0.2,0.2c-0.1,0-0.2-0.1-0.2-0.2C2.3,20,2.4,20,2.5,20z
	 M1.6,21.3c-0.1,0-0.3,0.1-0.3,0.3c0,0.2,0.1,0.3,0.3,0.3c0.2,0,0.3-0.1,0.3-0.3C1.9,21.4,1.8,21.3,1.6,21.3z M1.6,21.4
	c0.1,0,0.2,0.1,0.2,0.2c0,0.1-0.1,0.2-0.2,0.2c-0.1,0-0.2-0.1-0.2-0.2C1.5,21.5,1.5,21.4,1.6,21.4z M3.4,24.5
	c-0.1,0-0.3,0.1-0.3,0.3S3.3,25,3.4,25c0.2,0,0.3-0.1,0.3-0.3S3.6,24.5,3.4,24.5z M3.4,24.6c0.1,0,0.2,0.1,0.2,0.2
	c0,0.1-0.1,0.2-0.2,0.2c-0.1,0-0.2-0.1-0.2-0.2C3.2,24.6,3.3,24.6,3.4,24.6z M0.7,16.1c-0.2,0-0.3,0.1-0.3,0.3
	c0,0.2,0.1,0.3,0.3,0.3c0.2,0,0.3-0.1,0.3-0.3C1,16.2,0.9,16.1,0.7,16.1z M0.7,16.2c0.1,0,0.2,0.1,0.2,0.2c0,0.1-0.1,0.2-0.2,0.2
	c-0.1,0-0.2-0.1-0.2-0.2C0.6,16.3,0.6,16.2,0.7,16.2z M0.7,23.5c-0.2,0-0.3,0.1-0.3,0.3c0,0.2,0.1,0.3,0.3,0.3C0.9,24,1,23.9,1,23.7
	C1,23.6,0.9,23.5,0.7,23.5z M0.7,23.6c0.1,0,0.2,0.1,0.2,0.2c0,0.1-0.1,0.2-0.2,0.2c-0.1,0-0.2-0.1-0.2-0.2
	C0.6,23.6,0.6,23.6,0.7,23.6z M1.6,15.2c-0.1,0-0.3,0.1-0.3,0.3s0.1,0.3,0.3,0.3c0.2,0,0.3-0.1,0.3-0.3S1.8,15.2,1.6,15.2z
	 M1.6,15.3c0.1,0,0.2,0.1,0.2,0.2s-0.1,0.2-0.2,0.2c-0.1,0-0.2-0.1-0.2-0.2S1.5,15.3,1.6,15.3z M2.5,12.1c-0.1,0-0.3,0.1-0.3,0.3
	s0.1,0.3,0.3,0.3c0.2,0,0.3-0.1,0.3-0.3S2.7,12.1,2.5,12.1z M2.5,12.2c0.1,0,0.2,0.1,0.2,0.2s-0.1,0.2-0.2,0.2
	c-0.1,0-0.2-0.1-0.2-0.2S2.4,12.2,2.5,12.2z M2.5,3.1c-0.1,0-0.3,0.1-0.3,0.3c0,0.2,0.1,0.3,0.3,0.3c0.2,0,0.3-0.1,0.3-0.3
	C2.8,3.2,2.7,3.1,2.5,3.1z M2.5,3.2c0.1,0,0.2,0.1,0.2,0.2c0,0.1-0.1,0.2-0.2,0.2c-0.1,0-0.2-0.1-0.2-0.2C2.3,3.3,2.4,3.2,2.5,3.2z
	 M1.6,0v6.4h0.1L1.6,0L1.6,0z M2.5,0v3.1h0.1L2.5,0L2.5,0z M3.4,0v5.1H2.5v3.6H0.7v0.1h1.8V5.2h0.9L3.4,0L3.4,0z M4.2,0v6.6H3.4v3.6
	H2.5v1.6H1.7V11H0.7v0.1h0.8V12h1v-1.6h0.9V6.7h0.9L4.2,0L4.2,0z M5.2,3.7V0H5.1L5.2,3.7l0.8,0.1V3.7H5.2z M5.1,5.1v3.7h0.1L5.1,5.1
	L5.1,5.1z M4.2,7.4v3.9H3.4V13h0.1v-1.7h0.9L4.2,7.4L4.2,7.4z M0.8,15.9v-1.5h0.9v-1.7H1.6v1.6H0.7L0.8,15.9L2.5,16v-0.1H0.8z
	 M2.5,12.6v2.1H1.6v0.5h0.1v-0.4h0.9L2.5,12.6L2.5,12.6z M4.2,16.6v1.1H3.5v-2.8H3.4v2.9h1L4.2,16.6l0.9,0.1v3.9h0.1v-4H4.2z
	 M4.2,19.2v1H3.4v1h0.9v1h0.1v-1.1H3.5v-0.8h0.9L4.2,19.2L4.2,19.2z M0.8,19v-2.3H0.7L0.8,19L1.6,19v1.7H0.7v2.7h0.1v-2.6h0.9V19
	H0.8z M1.7,18.4v-1.5H1.6L1.7,18.4l0.8,0.1v1.4h0.1v-1.5H1.7z M2.5,22.4v0.7H1.7v-1.4H1.6v1.5h1L2.5,22.4l0.9,0.1v1.9h0.1v-2H2.5z
	 M6,0v2.1h0.1L6,0L6,0z M6.1,7.3V5.2H6L6.1,7.3l0.8,0.1v1.7H6V11H5.1V13H4.2v1.9h0.1v-1.8h0.9v-2.1h0.9V9.2H7V7.3H6.1z M0.7,9.6
	L0.7,9.6l1.8,0.1V9.6H0.7z M4.3,7.8L4.3,7.8l1.8,0.1V7.8H4.3z M6.1,15.9v-2.2H6L6.1,15.9L6.9,16v2.7H6v2.8H5.1V25h0.1v-3.5h0.9v-2.8
	H7v-2.9H6.1z M6,16.6V18h0.1L6,16.6L6,16.6z M21.6,21c-0.2,0-0.3,0.1-0.3,0.3c0,0.2,0.1,0.3,0.3,0.3s0.3-0.1,0.3-0.3
	C21.9,21.1,21.7,21,21.6,21z M21.6,21.1c0.1,0,0.2,0.1,0.2,0.2c0,0.1-0.1,0.2-0.2,0.2c-0.1,0-0.2-0.1-0.2-0.2
	C21.4,21.1,21.5,21.1,21.6,21.1z M21.8,22.4c-0.2,0-0.3,0.1-0.3,0.3c0,0.2,0.1,0.3,0.3,0.3s0.3-0.1,0.3-0.3
	C22.1,22.5,22,22.4,21.8,22.4z M21.8,22.5c0.1,0,0.2,0.1,0.2,0.2c0,0.1-0.1,0.2-0.2,0.2c-0.1,0-0.2-0.1-0.2-0.2
	C21.6,22.6,21.7,22.5,21.8,22.5z M21.8,19.8c-0.2,0-0.3,0.1-0.3,0.3c0,0.2,0.1,0.3,0.3,0.3s0.3-0.1,0.3-0.3
	C22.1,19.9,22,19.8,21.8,19.8z M21.8,19.9c0.1,0,0.2,0.1,0.2,0.2c0,0.1-0.1,0.2-0.2,0.2c-0.1,0-0.2-0.1-0.2-0.2
	C21.6,20,21.7,19.9,21.8,19.9z M22.7,19.8c-0.2,0-0.3,0.1-0.3,0.3s0.1,0.3,0.3,0.3c0.2,0,0.3-0.1,0.3-0.3S22.9,19.8,22.7,19.8z
	 M22.7,19.9c0.1,0,0.2,0.1,0.2,0.2c0,0.1-0.1,0.2-0.2,0.2c-0.1,0-0.2-0.1-0.2-0.2C22.5,20,22.6,19.9,22.7,19.9z M22.7,15.7
	c-0.2,0-0.3,0.1-0.3,0.3c0,0.2,0.1,0.3,0.3,0.3c0.2,0,0.3-0.1,0.3-0.3C23,15.9,22.9,15.7,22.7,15.7z M22.7,15.8
	c0.1,0,0.2,0.1,0.2,0.2c0,0.1-0.1,0.2-0.2,0.2c-0.1,0-0.2-0.1-0.2-0.2C22.5,15.9,22.6,15.8,22.7,15.8z M21.6,16.8
	c-0.2,0-0.3,0.1-0.3,0.3c0,0.2,0.1,0.3,0.3,0.3s0.3-0.1,0.3-0.3C21.9,17,21.7,16.8,21.6,16.8z M21.6,16.9c0.1,0,0.2,0.1,0.2,0.2
	c0,0.1-0.1,0.2-0.2,0.2c-0.1,0-0.2-0.1-0.2-0.2C21.4,17,21.5,16.9,21.6,16.9z M23.8,16.8c-0.2,0-0.3,0.1-0.3,0.3
	c0,0.2,0.1,0.3,0.3,0.3c0.2,0,0.3-0.1,0.3-0.3C24.1,17,24,16.8,23.8,16.8z M23.8,16.9c0.1,0,0.2,0.1,0.2,0.2c0,0.1-0.1,0.2-0.2,0.2
	c-0.1,0-0.2-0.1-0.2-0.2C23.6,17,23.7,16.9,23.8,16.9z M23.6,9.6c-0.2,0-0.3,0.1-0.3,0.3c0,0.2,0.1,0.3,0.3,0.3
	c0.2,0,0.3-0.1,0.3-0.3C23.9,9.7,23.7,9.6,23.6,9.6z M23.6,9.7c0.1,0,0.2,0.1,0.2,0.2c0,0.1-0.1,0.2-0.2,0.2c-0.1,0-0.2-0.1-0.2-0.2
	C23.4,9.8,23.5,9.7,23.6,9.7z M23.6,17.6c-0.2,0-0.3,0.1-0.3,0.3c0,0.2,0.1,0.3,0.3,0.3c0.2,0,0.3-0.1,0.3-0.3
	C23.9,17.7,23.7,17.6,23.6,17.6z M23.6,17.7c0.1,0,0.2,0.1,0.2,0.2c0,0.1-0.1,0.2-0.2,0.2c-0.1,0-0.2-0.1-0.2-0.2
	C23.4,17.8,23.5,17.7,23.6,17.7z M24.5,11.5c-0.1,0-0.3,0.1-0.3,0.3s0.1,0.3,0.3,0.3c0.2,0,0.3-0.1,0.3-0.3S24.6,11.5,24.5,11.5z
	 M24.5,11.6c0.1,0,0.2,0.1,0.2,0.2S24.6,12,24.5,12c-0.1,0-0.2-0.1-0.2-0.2S24.4,11.6,24.5,11.6z M24.5,10c-0.1,0-0.3,0.1-0.3,0.3
	c0,0.2,0.1,0.3,0.3,0.3c0.2,0,0.3-0.1,0.3-0.3C24.8,10.2,24.6,10,24.5,10z M24.5,10.1c0.1,0,0.2,0.1,0.2,0.2s-0.1,0.2-0.2,0.2
	c-0.1,0-0.2-0.1-0.2-0.2S24.4,10.1,24.5,10.1z M22.7,3.9c-0.2,0-0.3,0.1-0.3,0.3s0.1,0.3,0.3,0.3c0.2,0,0.3-0.1,0.3-0.3
	S22.9,3.9,22.7,3.9z M22.7,4c0.1,0,0.2,0.1,0.2,0.2c0,0.1-0.1,0.2-0.2,0.2c-0.1,0-0.2-0.1-0.2-0.2C22.5,4.1,22.6,4,22.7,4z
	 M21.8,11.3c-0.2,0-0.3,0.1-0.3,0.3c0,0.2,0.1,0.3,0.3,0.3s0.3-0.1,0.3-0.3C22.1,11.4,22,11.3,21.8,11.3z M21.8,11.4
	c0.1,0,0.2,0.1,0.2,0.2c0,0.1-0.1,0.2-0.2,0.2c-0.1,0-0.2-0.1-0.2-0.2C21.6,11.5,21.7,11.4,21.8,11.4z M23.6,5.7
	c-0.2,0-0.3,0.1-0.3,0.3c0,0.2,0.1,0.3,0.3,0.3c0.2,0,0.3-0.1,0.3-0.3C23.9,5.8,23.7,5.7,23.6,5.7z M23.6,5.8c0.1,0,0.2,0.1,0.2,0.2
	s-0.1,0.2-0.2,0.2c-0.1,0-0.2-0.1-0.2-0.2S23.5,5.8,23.6,5.8z M23.6,2.3c-0.2,0-0.3,0.1-0.3,0.3c0,0.2,0.1,0.3,0.3,0.3
	c0.2,0,0.3-0.1,0.3-0.3C23.9,2.4,23.7,2.3,23.6,2.3z M23.6,2.4c0.1,0,0.2,0.1,0.2,0.2c0,0.1-0.1,0.2-0.2,0.2c-0.1,0-0.2-0.1-0.2-0.2
	C23.4,2.4,23.5,2.4,23.6,2.4z M21.8,21.2L21.8,21.2l0.8,0.1V25h0.1v-3.8H21.8z M22.7,16.2v3.7h0.1L22.7,16.2L22.7,16.2z M24.4,12
	v1.7h-0.9v4h0.1v-3.9h0.9L24.4,12L24.4,12z M23.5,7.2v1.1h-0.8V4.4h-0.1v4h1L23.5,7.2l0.9,0.1v2.8h0.1V7.2H23.5z M23.6,3.8v-1h-0.1
	L23.6,3.8l0.8,0.1v0.8h-0.9v1.1h0.1V4.7h0.9v-1H23.6z M21.8,22.9V25h0.1L21.8,22.9L21.8,22.9z M23.5,10.1v1.8h-0.9v2.1h-0.9v1.8
	h-0.9v1.9h0.9v2.1h0.1v-2.2H21v-1.7h0.9V14h0.9V12h0.9L23.5,10.1L23.5,10.1z M21.8,17.1L21.8,17.1l1.8,0.1v-0.1H21.8z M22.7,0v3.5
	h-0.9v2.8h-0.9v2.9h0.9v2.2h0.1V9H21V6.4h0.9V3.6h0.9L22.7,0L22.7,0z M21.8,7v1.4h0.1L21.8,7L21.8,7z M20.1,20.8V25h0.1L20.1,20.8
	L20.1,20.8z M20.2,20.2c-0.2,0-0.3,0.1-0.3,0.3c0,0.2,0.1,0.3,0.3,0.3c0.2,0,0.3-0.1,0.3-0.3C20.4,20.4,20.3,20.2,20.2,20.2z
	 M20.2,20.3c0.1,0,0.2,0.1,0.2,0.2c0,0.1-0.1,0.2-0.2,0.2c-0.1,0-0.2-0.1-0.2-0.2C20,20.4,20.1,20.3,20.2,20.3z M20.4,13.7
	c-0.2,0-0.3,0.1-0.3,0.3s0.1,0.3,0.3,0.3c0.1,0,0.3-0.1,0.3-0.3S20.5,13.7,20.4,13.7z M20.4,13.8c0.1,0,0.2,0.1,0.2,0.2
	c0,0.1-0.1,0.2-0.2,0.2c-0.1,0-0.2-0.1-0.2-0.2C20.2,13.9,20.3,13.8,20.4,13.8z M19.3,18.1c-0.2,0-0.3,0.1-0.3,0.3
	c0,0.2,0.1,0.3,0.3,0.3c0.2,0,0.3-0.1,0.3-0.3C19.5,18.2,19.4,18.1,19.3,18.1z M19.3,18.2c0.1,0,0.2,0.1,0.2,0.2
	c0,0.1-0.1,0.2-0.2,0.2c-0.1,0-0.2-0.1-0.2-0.2C19.1,18.3,19.2,18.2,19.3,18.2z M20.4,16c-0.2,0-0.3,0.1-0.3,0.3
	c0,0.2,0.1,0.3,0.3,0.3c0.1,0,0.3-0.1,0.3-0.3C20.7,16.1,20.5,16,20.4,16z M20.4,16.1c0.1,0,0.2,0.1,0.2,0.2c0,0.1-0.1,0.2-0.2,0.2
	c-0.1,0-0.2-0.1-0.2-0.2C20.2,16.1,20.3,16.1,20.4,16.1z M14.6,21c-0.1,0-0.3,0.1-0.3,0.3c0,0.2,0.1,0.3,0.3,0.3
	c0.2,0,0.3-0.1,0.3-0.3C14.9,21.1,14.8,21,14.6,21z M14.6,21.1c0.1,0,0.2,0.1,0.2,0.2c0,0.1-0.1,0.2-0.2,0.2c-0.1,0-0.2-0.1-0.2-0.2
	C14.4,21.1,14.5,21.1,14.6,21.1z M14.8,22.4c-0.2,0-0.3,0.1-0.3,0.3c0,0.2,0.1,0.3,0.3,0.3c0.2,0,0.3-0.1,0.3-0.3
	C15.1,22.5,15,22.4,14.8,22.4z M14.8,22.5c0.1,0,0.2,0.1,0.2,0.2c0,0.1-0.1,0.2-0.2,0.2c-0.1,0-0.2-0.1-0.2-0.2
	C14.7,22.6,14.7,22.5,14.8,22.5z M14.8,19.8c-0.2,0-0.3,0.1-0.3,0.3c0,0.2,0.1,0.3,0.3,0.3c0.2,0,0.3-0.1,0.3-0.3
	C15.1,19.9,15,19.8,14.8,19.8z M14.8,19.9c0.1,0,0.2,0.1,0.2,0.2c0,0.1-0.1,0.2-0.2,0.2c-0.1,0-0.2-0.1-0.2-0.2
	C14.7,20,14.7,19.9,14.8,19.9z M15.7,19.8c-0.2,0-0.3,0.1-0.3,0.3s0.1,0.3,0.3,0.3c0.2,0,0.3-0.1,0.3-0.3S15.9,19.8,15.7,19.8z
	 M15.7,19.9c0.1,0,0.2,0.1,0.2,0.2c0,0.1-0.1,0.2-0.2,0.2c-0.1,0-0.2-0.1-0.2-0.2C15.5,20,15.6,19.9,15.7,19.9z M15.7,15.7
	c-0.2,0-0.3,0.1-0.3,0.3c0,0.2,0.1,0.3,0.3,0.3c0.2,0,0.3-0.1,0.3-0.3C16,15.9,15.9,15.7,15.7,15.7z M15.7,15.8
	c0.1,0,0.2,0.1,0.2,0.2c0,0.1-0.1,0.2-0.2,0.2c-0.1,0-0.2-0.1-0.2-0.2C15.5,15.9,15.6,15.8,15.7,15.8z M14.6,16.8
	c-0.1,0-0.3,0.1-0.3,0.3c0,0.2,0.1,0.3,0.3,0.3c0.2,0,0.3-0.1,0.3-0.3C14.9,17,14.8,16.8,14.6,16.8z M14.6,16.9
	c0.1,0,0.2,0.1,0.2,0.2c0,0.1-0.1,0.2-0.2,0.2c-0.1,0-0.2-0.1-0.2-0.2C14.4,17,14.5,16.9,14.6,16.9z M16.8,16.8
	c-0.2,0-0.3,0.1-0.3,0.3c0,0.2,0.1,0.3,0.3,0.3c0.2,0,0.3-0.1,0.3-0.3C17.1,17,17,16.8,16.8,16.8z M16.8,16.9c0.1,0,0.2,0.1,0.2,0.2
	c0,0.1-0.1,0.2-0.2,0.2c-0.1,0-0.2-0.1-0.2-0.2C16.7,17,16.7,16.9,16.8,16.9z M16.6,9.6c-0.2,0-0.3,0.1-0.3,0.3
	c0,0.2,0.1,0.3,0.3,0.3s0.3-0.1,0.3-0.3C16.9,9.7,16.8,9.6,16.6,9.6z M16.6,9.7c0.1,0,0.2,0.1,0.2,0.2c0,0.1-0.1,0.2-0.2,0.2
	c-0.1,0-0.2-0.1-0.2-0.2C16.4,9.8,16.5,9.7,16.6,9.7z M16.6,17.6c-0.1,0-0.3,0.1-0.3,0.3c0,0.2,0.1,0.3,0.3,0.3
	c0.2,0,0.3-0.1,0.3-0.3C16.9,17.7,16.8,17.6,16.6,17.6z M16.6,17.7c0.1,0,0.2,0.1,0.2,0.2c0,0.1-0.1,0.2-0.2,0.2
	c-0.1,0-0.2-0.1-0.2-0.2C16.4,17.8,16.5,17.7,16.6,17.7z M17.5,11.5c-0.2,0-0.3,0.1-0.3,0.3s0.1,0.3,0.3,0.3c0.1,0,0.3-0.1,0.3-0.3
	S17.6,11.5,17.5,11.5z M17.5,11.6c0.1,0,0.2,0.1,0.2,0.2S17.6,12,17.5,12c-0.1,0-0.2-0.1-0.2-0.2S17.4,11.6,17.5,11.6z M17.5,10
	c-0.2,0-0.3,0.1-0.3,0.3c0,0.2,0.1,0.3,0.3,0.3c0.1,0,0.3-0.1,0.3-0.3C17.8,10.2,17.6,10,17.5,10z M17.5,10.1c0.1,0,0.2,0.1,0.2,0.2
	s-0.1,0.2-0.2,0.2c-0.1,0-0.2-0.1-0.2-0.2S17.4,10.1,17.5,10.1z M15.7,3.9c-0.2,0-0.3,0.1-0.3,0.3s0.1,0.3,0.3,0.3
	c0.2,0,0.3-0.1,0.3-0.3S15.9,3.9,15.7,3.9z M15.7,4c0.1,0,0.2,0.1,0.2,0.2c0,0.1-0.1,0.2-0.2,0.2c-0.1,0-0.2-0.1-0.2-0.2
	C15.5,4.1,15.6,4,15.7,4z M14.8,11.3c-0.2,0-0.3,0.1-0.3,0.3c0,0.2,0.1,0.3,0.3,0.3c0.2,0,0.3-0.1,0.3-0.3
	C15.1,11.4,15,11.3,14.8,11.3z M14.8,11.4c0.1,0,0.2,0.1,0.2,0.2c0,0.1-0.1,0.2-0.2,0.2c-0.1,0-0.2-0.1-0.2-0.2
	C14.7,11.5,14.7,11.4,14.8,11.4z M16.6,5.7c-0.1,0-0.3,0.1-0.3,0.3c0,0.2,0.1,0.3,0.3,0.3c0.2,0,0.3-0.1,0.3-0.3
	C16.9,5.8,16.8,5.7,16.6,5.7z M16.6,5.8c0.1,0,0.2,0.1,0.2,0.2s-0.1,0.2-0.2,0.2c-0.1,0-0.2-0.1-0.2-0.2S16.5,5.8,16.6,5.8z
	 M16.6,2.3c-0.1,0-0.3,0.1-0.3,0.3c0,0.2,0.1,0.3,0.3,0.3c0.2,0,0.3-0.1,0.3-0.3C16.9,2.4,16.8,2.3,16.6,2.3z M16.6,2.4
	c0.1,0,0.2,0.1,0.2,0.2c0,0.1-0.1,0.2-0.2,0.2c-0.1,0-0.2-0.1-0.2-0.2C16.4,2.4,16.5,2.4,16.6,2.4z M19.3,12.2
	c-0.2,0-0.3,0.1-0.3,0.3s0.1,0.3,0.3,0.3c0.2,0,0.3-0.1,0.3-0.3S19.4,12.2,19.3,12.2z M19.3,12.3c0.1,0,0.2,0.1,0.2,0.2
	s-0.1,0.2-0.2,0.2c-0.1,0-0.2-0.1-0.2-0.2S19.2,12.3,19.3,12.3z M18.2,8.8c-0.2,0-0.3,0.1-0.3,0.3s0.1,0.3,0.3,0.3s0.3-0.1,0.3-0.3
	S18.3,8.8,18.2,8.8z M18.2,8.9c0.1,0,0.2,0.1,0.2,0.2c0,0.1-0.1,0.2-0.2,0.2c-0.1,0-0.2-0.1-0.2-0.2C18,9,18.1,8.9,18.2,8.9z
	 M19.3,8C19.1,8,19,8.2,19,8.3s0.1,0.3,0.3,0.3s0.3-0.1,0.3-0.3S19.4,8,19.3,8z M19.3,8.1c0.1,0,0.2,0.1,0.2,0.2s-0.1,0.2-0.2,0.2
	c-0.1,0-0.2-0.1-0.2-0.2S19.2,8.1,19.3,8.1z M18.4,4.6c-0.2,0-0.3,0.1-0.3,0.3c0,0.2,0.1,0.3,0.3,0.3c0.1,0,0.3-0.1,0.3-0.3
	C18.7,4.7,18.5,4.6,18.4,4.6z M18.4,4.7c0.1,0,0.2,0.1,0.2,0.2C18.6,5,18.5,5,18.4,5c-0.1,0-0.2-0.1-0.2-0.2
	C18.2,4.8,18.3,4.7,18.4,4.7z M19.3,3.2c-0.2,0-0.3,0.1-0.3,0.3c0,0.2,0.1,0.3,0.3,0.3s0.3-0.1,0.3-0.3C19.5,3.3,19.4,3.2,19.3,3.2z
	 M19.3,3.3c0.1,0,0.2,0.1,0.2,0.2s-0.1,0.2-0.2,0.2c-0.1,0-0.2-0.1-0.2-0.2S19.2,3.3,19.3,3.3z M17.5,0c-0.2,0-0.3,0.1-0.3,0.3
	c0,0.2,0.1,0.3,0.3,0.3c0.1,0,0.3-0.1,0.3-0.3C17.8,0.1,17.6,0,17.5,0z M17.5,0.1c0.1,0,0.2,0.1,0.2,0.2c0,0.1-0.1,0.2-0.2,0.2
	c-0.1,0-0.2-0.1-0.2-0.2C17.3,0.2,17.4,0.1,17.5,0.1z M20.2,8.4c-0.2,0-0.3,0.1-0.3,0.3c0,0.2,0.1,0.3,0.3,0.3
	c0.2,0,0.3-0.1,0.3-0.3C20.4,8.5,20.3,8.4,20.2,8.4z M20.2,8.5c0.1,0,0.2,0.1,0.2,0.2c0,0.1-0.1,0.2-0.2,0.2c-0.1,0-0.2-0.1-0.2-0.2
	C20,8.5,20.1,8.5,20.2,8.5z M20.2,1c-0.2,0-0.3,0.1-0.3,0.3s0.1,0.3,0.3,0.3c0.2,0,0.3-0.1,0.3-0.3S20.3,1,20.2,1z M20.2,1.1
	c0.1,0,0.2,0.1,0.2,0.2s-0.1,0.2-0.2,0.2c-0.1,0-0.2-0.1-0.2-0.2S20.1,1.1,20.2,1.1z M19.3,9.3c-0.2,0-0.3,0.1-0.3,0.3
	s0.1,0.3,0.3,0.3s0.3-0.1,0.3-0.3S19.4,9.3,19.3,9.3z M19.3,9.4c0.1,0,0.2,0.1,0.2,0.2c0,0.1-0.1,0.2-0.2,0.2
	c-0.1,0-0.2-0.1-0.2-0.2C19.1,9.5,19.2,9.4,19.3,9.4z M18.4,12.3c-0.2,0-0.3,0.1-0.3,0.3s0.1,0.3,0.3,0.3c0.1,0,0.3-0.1,0.3-0.3
	S18.5,12.3,18.4,12.3z M18.4,12.4c0.1,0,0.2,0.1,0.2,0.2s-0.1,0.2-0.2,0.2c-0.1,0-0.2-0.1-0.2-0.2S18.3,12.4,18.4,12.4z M18.4,21.4
	c-0.2,0-0.3,0.1-0.3,0.3c0,0.2,0.1,0.3,0.3,0.3c0.1,0,0.3-0.1,0.3-0.3C18.7,21.5,18.5,21.4,18.4,21.4z M18.4,21.5
	c0.1,0,0.2,0.1,0.2,0.2s-0.1,0.2-0.2,0.2c-0.1,0-0.2-0.1-0.2-0.2C18.2,21.5,18.3,21.5,18.4,21.5z M19.2,18.5V25h0.1L19.2,18.5
	L19.2,18.5z M18.3,21.9V25h0.1L18.3,21.9L18.3,21.9z M18.3,16.2v3.6h-0.9V25h0.1v-5.1h0.9L18.3,16.2l1.8,0.1v-0.1H18.3z M19.3,13.9
	V13h-1v1.6h-0.9v3.6h-0.9V25h0.1v-6.6h0.9v-3.6h0.9v-1.6h0.8L19.3,13.9l0.8,0.1v-0.1H19.3z M14.8,21.2L14.8,21.2l0.8,0.1V25h0.1
	v-3.8H14.8z M15.7,16.2v3.7h0.1L15.7,16.2L15.7,16.2z M17.4,12v1.7h-0.9v4h0.1v-3.9h0.9L17.4,12L17.4,12z M18.4,9L18.4,9l1.7,0.1
	v1.5h-0.9v1.7h0.1v-1.6h0.9V9H18.4z M19.2,9.8v0.4h-0.9v2.2h0.1v-2.1h0.9L19.2,9.8L19.2,9.8z M16.6,7.2v1.1h-0.8V4.4h-0.1v4h1
	L16.6,7.2l0.9,0.1v2.8h0.1V7.2H16.6z M16.7,3.8v-1h-0.1L16.7,3.8l0.8,0.1v0.8h-0.9v1.1h0.1V4.7h0.9v-1H16.7z M20.1,1.5v2.6h-0.9v1.9
	h0.9v2.3h0.1V6h-0.9V4.2h0.9L20.1,1.5L20.1,1.5z M18.4,6.5V5.1h-0.1L18.4,6.5l0.8,0.1v1.5h0.1V6.5H18.4z M18.3,1.7v0.7h-0.8V0.6
	h-0.1v2h1L18.3,1.7l0.9,0.1v1.4h0.1V1.7H18.3z M14.8,22.9V25h0.1L14.8,22.9L14.8,22.9z M16.6,10.1v1.8h-0.9v2.1h-0.9v1.8h-0.9v1.9
	h0.9v2.1h0.1v-2.2H14v-1.7h0.9V14h0.9V12h0.9L16.6,10.1L16.6,10.1z M20.4,15.1c-0.2,0-0.3,0.1-0.3,0.3c0,0.2,0.1,0.3,0.3,0.3
	c0.1,0,0.3-0.1,0.3-0.3C20.7,15.2,20.5,15.1,20.4,15.1z M20.4,15.2c0.1,0,0.2,0.1,0.2,0.2s-0.1,0.2-0.2,0.2c-0.1,0-0.2-0.1-0.2-0.2
	C20.2,15.3,20.3,15.2,20.4,15.2z M18.2,15.1c-0.2,0-0.3,0.1-0.3,0.3c0,0.2,0.1,0.3,0.3,0.3s0.3-0.1,0.3-0.3
	C18.4,15.2,18.3,15.1,18.2,15.1z M18.2,15.2c0.1,0,0.2,0.1,0.2,0.2s-0.1,0.2-0.2,0.2c-0.1,0-0.2-0.1-0.2-0.2
	C18,15.3,18.1,15.2,18.2,15.2z M18.4,15.3L18.4,15.3l1.8,0.1v-0.1H18.4z M8,21.7c-0.2,0-0.3,0.1-0.3,0.3c0,0.2,0.1,0.3,0.3,0.3
	c0.1,0,0.3-0.1,0.3-0.3C8.3,21.9,8.2,21.7,8,21.7z M8,21.8c0.1,0,0.2,0.1,0.2,0.2S8.1,22.2,8,22.2c-0.1,0-0.2-0.1-0.2-0.2
	C7.9,21.9,7.9,21.8,8,21.8z M5.8,21.7c-0.2,0-0.3,0.1-0.3,0.3c0,0.2,0.1,0.3,0.3,0.3c0.2,0,0.3-0.1,0.3-0.3
	C6.1,21.9,5.9,21.7,5.8,21.7z M5.8,21.8C5.9,21.8,6,21.9,6,22s-0.1,0.2-0.2,0.2c-0.1,0-0.2-0.1-0.2-0.2C5.6,21.9,5.7,21.8,5.8,21.8z
	 M6,22L6,22l1.8,0.1V22H6z M6.6,22.4c0,0.2,0.1,0.3,0.3,0.3c0.2,0,0.3-0.1,0.3-0.3c0-0.2-0.1-0.3-0.3-0.3
	C6.8,22.1,6.6,22.3,6.6,22.4z M6.7,22.4c0-0.1,0.1-0.2,0.2-0.2c0.1,0,0.2,0.1,0.2,0.2c0,0.1-0.1,0.2-0.2,0.2
	C6.8,22.6,6.7,22.5,6.7,22.4z M6.6,24.6c0,0.2,0.1,0.3,0.3,0.3c0.2,0,0.3-0.1,0.3-0.3c0-0.2-0.1-0.3-0.3-0.3
	C6.8,24.4,6.6,24.5,6.6,24.6z M6.7,24.6c0-0.1,0.1-0.2,0.2-0.2c0.1,0,0.2,0.1,0.2,0.2c0,0.1-0.1,0.2-0.2,0.2
	C6.8,24.8,6.7,24.7,6.7,24.6z M6.9,24.4L6.9,24.4L7,22.6H6.9V24.4z M6.6,9.9c0,0.2,0.1,0.3,0.3,0.3c0.2,0,0.3-0.1,0.3-0.3
	c0-0.1-0.1-0.3-0.3-0.3C6.8,9.7,6.6,9.8,6.6,9.9z M6.7,9.9c0-0.1,0.1-0.2,0.2-0.2c0.1,0,0.2,0.1,0.2,0.2c0,0.1-0.1,0.2-0.2,0.2
	C6.8,10.1,6.7,10,6.7,9.9z M6.6,12.2c0,0.2,0.1,0.3,0.3,0.3c0.2,0,0.3-0.1,0.3-0.3c0-0.2-0.1-0.3-0.3-0.3C6.8,11.9,6.6,12,6.6,12.2z
	 M6.7,12.2c0-0.1,0.1-0.2,0.2-0.2c0.1,0,0.2,0.1,0.2,0.2c0,0.1-0.1,0.2-0.2,0.2C6.8,12.3,6.7,12.3,6.7,12.2z M6.9,11.9L6.9,11.9
	L7,10.2H6.9V11.9z M20.6,10.7c0,0.2,0.1,0.3,0.3,0.3c0.2,0,0.3-0.1,0.3-0.3c0-0.2-0.1-0.3-0.3-0.3C20.7,10.4,20.6,10.5,20.6,10.7z
	 M20.7,10.7c0-0.1,0.1-0.2,0.2-0.2c0.1,0,0.2,0.1,0.2,0.2c0,0.1-0.1,0.2-0.2,0.2C20.8,10.8,20.7,10.8,20.7,10.7z M20.6,12.9
	c0,0.2,0.1,0.3,0.3,0.3c0.2,0,0.3-0.1,0.3-0.3c0-0.2-0.1-0.3-0.3-0.3C20.7,12.6,20.6,12.7,20.6,12.9z M20.7,12.9
	c0-0.1,0.1-0.2,0.2-0.2c0.1,0,0.2,0.1,0.2,0.2c0,0.1-0.1,0.2-0.2,0.2C20.8,13.1,20.7,13,20.7,12.9z M20.8,12.7L20.8,12.7l0.1-1.8
	h-0.1V12.7z M23.4,21.6c0,0.2,0.1,0.3,0.3,0.3c0.2,0,0.3-0.1,0.3-0.3c0-0.2-0.1-0.3-0.3-0.3C23.5,21.3,23.4,21.5,23.4,21.6z
	 M23.5,21.6c0-0.1,0.1-0.2,0.2-0.2c0.1,0,0.2,0.1,0.2,0.2c0,0.1-0.1,0.2-0.2,0.2C23.6,21.8,23.5,21.7,23.5,21.6z M23.4,23.8
	c0,0.2,0.1,0.3,0.3,0.3c0.2,0,0.3-0.1,0.3-0.3c0-0.2-0.1-0.3-0.3-0.3C23.5,23.6,23.4,23.7,23.4,23.8z M23.5,23.8
	c0-0.1,0.1-0.2,0.2-0.2c0.1,0,0.2,0.1,0.2,0.2c0,0.1-0.1,0.2-0.2,0.2C23.6,24,23.5,23.9,23.5,23.8z M23.6,23.6L23.6,23.6l0.1-1.8
	h-0.1V23.6z M13.9,0.8C13.9,0.9,14,1,14.2,1c0.2,0,0.3-0.1,0.3-0.3c0-0.1-0.1-0.3-0.3-0.3C14,0.5,13.9,0.6,13.9,0.8z M14,0.8
	c0-0.1,0.1-0.2,0.2-0.2c0.1,0,0.2,0.1,0.2,0.2c0,0.1-0.1,0.2-0.2,0.2C14.1,1,14,0.9,14,0.8z M13.9,3c0,0.2,0.1,0.3,0.3,0.3
	c0.2,0,0.3-0.1,0.3-0.3c0-0.2-0.1-0.3-0.3-0.3C14,2.7,13.9,2.9,13.9,3z M14,3c0-0.1,0.1-0.2,0.2-0.2c0.1,0,0.2,0.1,0.2,0.2
	c0,0.1-0.1,0.2-0.2,0.2C14.1,3.2,14,3.1,14,3z M14.1,2.8L14.1,2.8L14.2,1h-0.1V2.8z M21,0.8C21,0.9,21.2,1,21.3,1s0.3-0.1,0.3-0.3
	c0-0.1-0.1-0.3-0.3-0.3S21,0.6,21,0.8z M21.1,0.8c0-0.1,0.1-0.2,0.2-0.2c0.1,0,0.2,0.1,0.2,0.2c0,0.1-0.1,0.2-0.2,0.2
	C21.2,1,21.1,0.9,21.1,0.8z M21,3c0,0.2,0.1,0.3,0.3,0.3s0.3-0.1,0.3-0.3c0-0.2-0.1-0.3-0.3-0.3S21,2.9,21,3z M21.1,3
	c0-0.1,0.1-0.2,0.2-0.2c0.1,0,0.2,0.1,0.2,0.2c0,0.1-0.1,0.2-0.2,0.2C21.2,3.2,21.1,3.1,21.1,3z M21.3,2.8L21.3,2.8L21.4,1h-0.1V2.8
	z M24.1,0.8c0,0.2,0.1,0.3,0.3,0.3c0.2,0,0.3-0.1,0.3-0.3c0-0.1-0.1-0.3-0.3-0.3C24.2,0.5,24.1,0.6,24.1,0.8z M24.2,0.8
	c0-0.1,0.1-0.2,0.2-0.2c0.1,0,0.2,0.1,0.2,0.2c0,0.1-0.1,0.2-0.2,0.2C24.3,0.9,24.2,0.9,24.2,0.8z M24.1,3c0,0.2,0.1,0.3,0.3,0.3
	c0.2,0,0.3-0.1,0.3-0.3c0-0.2-0.1-0.3-0.3-0.3C24.2,2.7,24.1,2.9,24.1,3z M24.2,3c0-0.1,0.1-0.2,0.2-0.2c0.1,0,0.2,0.1,0.2,0.2
	c0,0.1-0.1,0.2-0.2,0.2C24.3,3.2,24.2,3.1,24.2,3z M24.3,2.8L24.3,2.8L24.4,1h-0.1V2.8z M24.1,18.5c0,0.2,0.1,0.3,0.3,0.3
	c0.2,0,0.3-0.1,0.3-0.3c0-0.2-0.1-0.3-0.3-0.3C24.2,18.2,24.1,18.4,24.1,18.5z M24.2,18.5c0-0.1,0.1-0.2,0.2-0.2
	c0.1,0,0.2,0.1,0.2,0.2c0,0.1-0.1,0.2-0.2,0.2C24.3,18.7,24.2,18.6,24.2,18.5z M24.1,20.7c0,0.2,0.1,0.3,0.3,0.3
	c0.2,0,0.3-0.1,0.3-0.3c0-0.2-0.1-0.3-0.3-0.3C24.2,20.5,24.1,20.6,24.1,20.7z M24.2,20.7c0-0.1,0.1-0.2,0.2-0.2
	c0.1,0,0.2,0.1,0.2,0.2c0,0.1-0.1,0.2-0.2,0.2C24.3,20.9,24.2,20.8,24.2,20.7z M24.3,20.5L24.3,20.5l0.1-1.8h-0.1V20.5z M13.6,12.1
	c0,0.2,0.1,0.3,0.3,0.3c0.2,0,0.3-0.1,0.3-0.3c0-0.1-0.1-0.3-0.3-0.3C13.7,11.8,13.6,12,13.6,12.1z M13.7,12.1
	c0-0.1,0.1-0.2,0.2-0.2c0.1,0,0.2,0.1,0.2,0.2c0,0.1-0.1,0.2-0.2,0.2C13.8,12.3,13.7,12.2,13.7,12.1z M13.6,14.3
	c0,0.2,0.1,0.3,0.3,0.3c0.2,0,0.3-0.1,0.3-0.3c0-0.2-0.1-0.3-0.3-0.3C13.7,14.1,13.6,14.2,13.6,14.3z M13.7,14.3
	c0-0.1,0.1-0.2,0.2-0.2c0.1,0,0.2,0.1,0.2,0.2c0,0.1-0.1,0.2-0.2,0.2C13.8,14.5,13.7,14.4,13.7,14.3z M13.8,14.1L13.8,14.1l0.1-1.8
	h-0.1V14.1z M20.1,17.2c0,0.2,0.1,0.3,0.3,0.3c0.2,0,0.3-0.1,0.3-0.3S20.5,17,20.4,17C20.2,17,20.1,17.1,20.1,17.2z M20.2,17.2
	c0-0.1,0.1-0.2,0.2-0.2c0.1,0,0.2,0.1,0.2,0.2c0,0.1-0.1,0.2-0.2,0.2C20.3,17.4,20.2,17.3,20.2,17.2z M20.1,19.5
	c0,0.2,0.1,0.3,0.3,0.3c0.2,0,0.3-0.1,0.3-0.3c0-0.2-0.1-0.3-0.3-0.3C20.2,19.2,20.1,19.3,20.1,19.5z M20.2,19.5
	c0-0.1,0.1-0.2,0.2-0.2c0.1,0,0.2,0.1,0.2,0.2c0,0.1-0.1,0.2-0.2,0.2C20.3,19.6,20.2,19.6,20.2,19.5z M20.3,19.2L20.3,19.2l0.1-1.8
	h-0.1V19.2z M14.8,17.1L14.8,17.1l1.8,0.1v-0.1H14.8z M15.7,0v3.5h-0.9v2.8h-0.9v2.9h0.9v2.2h0.1V9H14V6.4h0.9V3.6h0.9L15.7,0
	L15.7,0z M14.8,7v1.4h0.1L14.8,7L14.8,7z M13.1,0v4.2h0.1L13.1,0L13.1,0z M13.2,4.2c-0.2,0-0.3,0.1-0.3,0.3c0,0.2,0.1,0.3,0.3,0.3
	c0.2,0,0.3-0.1,0.3-0.3C13.5,4.3,13.3,4.2,13.2,4.2z M13.2,4.3c0.1,0,0.2,0.1,0.2,0.2c0,0.1-0.1,0.2-0.2,0.2c-0.1,0-0.2-0.1-0.2-0.2
	C13,4.4,13.1,4.3,13.2,4.3z M13.4,10.8c-0.2,0-0.3,0.1-0.3,0.3c0,0.2,0.1,0.3,0.3,0.3s0.3-0.1,0.3-0.3
	C13.7,10.9,13.6,10.8,13.4,10.8z M13.4,10.9c0.1,0,0.2,0.1,0.2,0.2c0,0.1-0.1,0.2-0.2,0.2c-0.1,0-0.2-0.1-0.2-0.2
	C13.2,10.9,13.3,10.9,13.4,10.9z M12.3,6.4c-0.2,0-0.3,0.1-0.3,0.3c0,0.2,0.1,0.3,0.3,0.3c0.2,0,0.3-0.1,0.3-0.3
	C12.6,6.5,12.4,6.4,12.3,6.4z M12.3,6.5c0.1,0,0.2,0.1,0.2,0.2c0,0.1-0.1,0.2-0.2,0.2c-0.1,0-0.2-0.1-0.2-0.2
	C12.1,6.6,12.2,6.5,12.3,6.5z M13.4,8.5c-0.2,0-0.3,0.1-0.3,0.3c0,0.2,0.1,0.3,0.3,0.3s0.3-0.1,0.3-0.3C13.7,8.6,13.6,8.5,13.4,8.5z
	 M13.4,8.6c0.1,0,0.2,0.1,0.2,0.2c0,0.1-0.1,0.2-0.2,0.2c-0.1,0-0.2-0.1-0.2-0.2C13.2,8.7,13.3,8.6,13.4,8.6z M13.4,9.4
	c-0.2,0-0.3,0.1-0.3,0.3c0,0.2,0.1,0.3,0.3,0.3s0.3-0.1,0.3-0.3C13.7,9.5,13.6,9.4,13.4,9.4z M13.4,9.5c0.1,0,0.2,0.1,0.2,0.2
	c0,0.1-0.1,0.2-0.2,0.2c-0.1,0-0.2-0.1-0.2-0.2C13.2,9.6,13.3,9.5,13.4,9.5z M11.2,9.4c-0.2,0-0.3,0.1-0.3,0.3
	c0,0.2,0.1,0.3,0.3,0.3s0.3-0.1,0.3-0.3C11.5,9.5,11.3,9.4,11.2,9.4z M11.2,9.5c0.1,0,0.2,0.1,0.2,0.2c0,0.1-0.1,0.2-0.2,0.2
	c-0.1,0-0.2-0.1-0.2-0.2C11,9.6,11.1,9.5,11.2,9.5z M7.6,3.5c-0.1,0-0.3,0.1-0.3,0.3C7.4,3.9,7.5,4,7.6,4c0.2,0,0.3-0.1,0.3-0.3
	C7.9,3.6,7.8,3.5,7.6,3.5z M7.6,3.6c0.1,0,0.2,0.1,0.2,0.2c0,0.1-0.1,0.2-0.2,0.2c-0.1,0-0.2-0.1-0.2-0.2C7.5,3.7,7.5,3.6,7.6,3.6z
	 M7.8,2.1c-0.2,0-0.3,0.1-0.3,0.3c0,0.2,0.1,0.3,0.3,0.3c0.2,0,0.3-0.1,0.3-0.3C8.1,2.2,8,2.1,7.8,2.1z M7.8,2.2
	C7.9,2.2,8,2.2,8,2.3c0,0.1-0.1,0.2-0.2,0.2c-0.1,0-0.2-0.1-0.2-0.2C7.7,2.2,7.8,2.2,7.8,2.2z M7.8,4.7c-0.2,0-0.3,0.1-0.3,0.3
	c0,0.1,0.1,0.3,0.3,0.3c0.2,0,0.3-0.1,0.3-0.3C8.1,4.8,8,4.7,7.8,4.7z M7.8,4.8C7.9,4.8,8,4.8,8,4.9C8,5,7.9,5.1,7.8,5.1
	C7.8,5.1,7.7,5,7.7,4.9C7.7,4.8,7.8,4.8,7.8,4.8z M8.7,4.6c-0.1,0-0.3,0.1-0.3,0.3c0,0.2,0.1,0.3,0.3,0.3C8.9,5.2,9,5,9,4.9
	C9,4.7,8.9,4.6,8.7,4.6z M8.7,4.7c0.1,0,0.2,0.1,0.2,0.2c0,0.1-0.1,0.2-0.2,0.2C8.6,5.1,8.6,5,8.6,4.9C8.6,4.8,8.6,4.7,8.7,4.7z
	 M8.7,8.7C8.6,8.7,8.5,8.8,8.5,9c0,0.2,0.1,0.3,0.3,0.3C8.9,9.3,9,9.1,9,9C9,8.8,8.9,8.7,8.7,8.7z M8.7,8.8c0.1,0,0.2,0.1,0.2,0.2
	c0,0.1-0.1,0.2-0.2,0.2C8.6,9.2,8.6,9.1,8.6,9C8.6,8.9,8.6,8.8,8.7,8.8z M7.6,7.6c-0.1,0-0.3,0.1-0.3,0.3c0,0.2,0.1,0.3,0.3,0.3
	c0.2,0,0.3-0.1,0.3-0.3C7.9,7.7,7.8,7.6,7.6,7.6z M7.6,7.7c0.1,0,0.2,0.1,0.2,0.2c0,0.1-0.1,0.2-0.2,0.2C7.5,8.1,7.5,8,7.5,7.9
	C7.5,7.8,7.5,7.7,7.6,7.7z M9.9,7.6c-0.2,0-0.3,0.1-0.3,0.3c0,0.2,0.1,0.3,0.3,0.3c0.2,0,0.3-0.1,0.3-0.3C10.1,7.7,10,7.6,9.9,7.6z
	 M9.9,7.7c0.1,0,0.2,0.1,0.2,0.2C10,8,9.9,8.1,9.9,8.1C9.8,8.1,9.7,8,9.7,7.9C9.7,7.8,9.8,7.7,9.9,7.7z M9.6,14.9
	c-0.2,0-0.3,0.1-0.3,0.3c0,0.2,0.1,0.3,0.3,0.3c0.1,0,0.3-0.1,0.3-0.3C9.9,15,9.8,14.9,9.6,14.9z M9.6,15c0.1,0,0.2,0.1,0.2,0.2
	c0,0.1-0.1,0.2-0.2,0.2c-0.1,0-0.2-0.1-0.2-0.2C9.5,15,9.5,15,9.6,15z M9.6,6.9C9.5,6.9,9.4,7,9.4,7.2c0,0.2,0.1,0.3,0.3,0.3
	c0.2,0,0.3-0.1,0.3-0.3C9.9,7,9.8,6.9,9.6,6.9z M9.6,7c0.1,0,0.2,0.1,0.2,0.2c0,0.1-0.1,0.2-0.2,0.2c-0.1,0-0.2-0.1-0.2-0.2
	C9.5,7.1,9.5,7,9.6,7z M10.5,12.9c-0.2,0-0.3,0.1-0.3,0.3s0.1,0.3,0.3,0.3c0.1,0,0.3-0.1,0.3-0.3S10.7,12.9,10.5,12.9z M10.5,13
	c0.1,0,0.2,0.1,0.2,0.2c0,0.1-0.1,0.2-0.2,0.2c-0.1,0-0.2-0.1-0.2-0.2C10.3,13.1,10.4,13,10.5,13z M10.5,14.4
	c-0.2,0-0.3,0.1-0.3,0.3s0.1,0.3,0.3,0.3c0.1,0,0.3-0.1,0.3-0.3S10.7,14.4,10.5,14.4z M10.5,14.5c0.1,0,0.2,0.1,0.2,0.2
	c0,0.1-0.1,0.2-0.2,0.2c-0.1,0-0.2-0.1-0.2-0.2C10.3,14.6,10.4,14.5,10.5,14.5z M8.7,20.6c-0.1,0-0.3,0.1-0.3,0.3
	c0,0.2,0.1,0.3,0.3,0.3C8.9,21.1,9,21,9,20.8C9,20.7,8.9,20.6,8.7,20.6z M8.7,20.7c0.1,0,0.2,0.1,0.2,0.2c0,0.1-0.1,0.2-0.2,0.2
	c-0.1,0-0.2-0.1-0.2-0.2C8.6,20.8,8.6,20.7,8.7,20.7z M7.8,13.2c-0.2,0-0.3,0.1-0.3,0.3c0,0.2,0.1,0.3,0.3,0.3
	c0.2,0,0.3-0.1,0.3-0.3C8.1,13.3,8,13.2,7.8,13.2z M7.8,13.3c0.1,0,0.2,0.1,0.2,0.2c0,0.1-0.1,0.2-0.2,0.2c-0.1,0-0.2-0.1-0.2-0.2
	C7.7,13.3,7.8,13.3,7.8,13.3z M9.6,18.7c-0.1,0-0.3,0.1-0.3,0.3c0,0.2,0.1,0.3,0.3,0.3c0.2,0,0.3-0.1,0.3-0.3
	C9.9,18.8,9.8,18.7,9.6,18.7z M9.6,18.8c0.1,0,0.2,0.1,0.2,0.2c0,0.1-0.1,0.2-0.2,0.2c-0.1,0-0.2-0.1-0.2-0.2
	C9.5,18.9,9.5,18.8,9.6,18.8z M9.6,22.2c-0.1,0-0.3,0.1-0.3,0.3c0,0.2,0.1,0.3,0.3,0.3c0.2,0,0.3-0.1,0.3-0.3
	C9.9,22.3,9.8,22.2,9.6,22.2z M9.6,22.3c0.1,0,0.2,0.1,0.2,0.2c0,0.1-0.1,0.2-0.2,0.2c-0.1,0-0.2-0.1-0.2-0.2
	C9.5,22.4,9.5,22.3,9.6,22.3z M12.3,12.2c-0.2,0-0.3,0.1-0.3,0.3s0.1,0.3,0.3,0.3c0.2,0,0.3-0.1,0.3-0.3S12.4,12.2,12.3,12.2z
	 M12.3,12.3c0.1,0,0.2,0.1,0.2,0.2s-0.1,0.2-0.2,0.2c-0.1,0-0.2-0.1-0.2-0.2S12.2,12.3,12.3,12.3z M11.2,15.7
	c-0.2,0-0.3,0.1-0.3,0.3c0,0.2,0.1,0.3,0.3,0.3s0.3-0.1,0.3-0.3C11.5,15.8,11.3,15.7,11.2,15.7z M11.2,15.8c0.1,0,0.2,0.1,0.2,0.2
	c0,0.1-0.1,0.2-0.2,0.2c-0.1,0-0.2-0.1-0.2-0.2C11,15.8,11.1,15.8,11.2,15.8z M12.3,16.4c-0.2,0-0.3,0.1-0.3,0.3
	c0,0.2,0.1,0.3,0.3,0.3c0.1,0,0.3-0.1,0.3-0.3C12.6,16.5,12.4,16.4,12.3,16.4z M12.3,16.5c0.1,0,0.2,0.1,0.2,0.2
	c0,0.1-0.1,0.2-0.2,0.2c-0.1,0-0.2-0.1-0.2-0.2C12.1,16.6,12.2,16.5,12.3,16.5z M11.4,19.9c-0.2,0-0.3,0.1-0.3,0.3
	c0,0.2,0.1,0.3,0.3,0.3c0.1,0,0.3-0.1,0.3-0.3C11.7,20,11.6,19.9,11.4,19.9z M11.4,20c0.1,0,0.2,0.1,0.2,0.2c0,0.1-0.1,0.2-0.2,0.2
	c-0.1,0-0.2-0.1-0.2-0.2C11.2,20,11.3,20,11.4,20z M12.3,21.3c-0.2,0-0.3,0.1-0.3,0.3c0,0.2,0.1,0.3,0.3,0.3c0.1,0,0.3-0.1,0.3-0.3
	C12.6,21.4,12.4,21.3,12.3,21.3z M12.3,21.4c0.1,0,0.2,0.1,0.2,0.2c0,0.1-0.1,0.2-0.2,0.2c-0.1,0-0.2-0.1-0.2-0.2
	C12.1,21.5,12.2,21.4,12.3,21.4z M10.5,24.5c-0.2,0-0.3,0.1-0.3,0.3s0.1,0.3,0.3,0.3c0.1,0,0.3-0.1,0.3-0.3S10.7,24.5,10.5,24.5z
	 M10.5,24.6c0.1,0,0.2,0.1,0.2,0.2c0,0.1-0.1,0.2-0.2,0.2c-0.1,0-0.2-0.1-0.2-0.2C10.3,24.6,10.4,24.6,10.5,24.6z M13.2,16.1
	c-0.2,0-0.3,0.1-0.3,0.3c0,0.2,0.1,0.3,0.3,0.3c0.2,0,0.3-0.1,0.3-0.3C13.5,16.2,13.3,16.1,13.2,16.1z M13.2,16.2
	c0.1,0,0.2,0.1,0.2,0.2c0,0.1-0.1,0.2-0.2,0.2c-0.1,0-0.2-0.1-0.2-0.2C13,16.3,13.1,16.2,13.2,16.2z M13.2,23.5
	c-0.2,0-0.3,0.1-0.3,0.3c0,0.2,0.1,0.3,0.3,0.3c0.2,0,0.3-0.1,0.3-0.3C13.5,23.6,13.3,23.5,13.2,23.5z M13.2,23.6
	c0.1,0,0.2,0.1,0.2,0.2c0,0.1-0.1,0.2-0.2,0.2c-0.1,0-0.2-0.1-0.2-0.2C13,23.6,13.1,23.6,13.2,23.6z M12.3,15.2
	c-0.2,0-0.3,0.1-0.3,0.3s0.1,0.3,0.3,0.3c0.1,0,0.3-0.1,0.3-0.3S12.4,15.2,12.3,15.2z M12.3,15.3c0.1,0,0.2,0.1,0.2,0.2
	s-0.1,0.2-0.2,0.2c-0.1,0-0.2-0.1-0.2-0.2S12.2,15.3,12.3,15.3z M11.4,12.1c-0.2,0-0.3,0.1-0.3,0.3s0.1,0.3,0.3,0.3
	c0.1,0,0.3-0.1,0.3-0.3S11.6,12.1,11.4,12.1z M11.4,12.2c0.1,0,0.2,0.1,0.2,0.2s-0.1,0.2-0.2,0.2c-0.1,0-0.2-0.1-0.2-0.2
	S11.3,12.2,11.4,12.2z M11.4,3.1c-0.2,0-0.3,0.1-0.3,0.3c0,0.2,0.1,0.3,0.3,0.3c0.1,0,0.3-0.1,0.3-0.3C11.7,3.2,11.6,3.1,11.4,3.1z
	 M11.4,3.2c0.1,0,0.2,0.1,0.2,0.2c0,0.1-0.1,0.2-0.2,0.2c-0.1,0-0.2-0.1-0.2-0.2C11.2,3.3,11.3,3.2,11.4,3.2z M12.2,0v6.4h0.1
	L12.2,0L12.2,0z M11.4,0v3.1h0.1L11.4,0L11.4,0z M11.5,8.7V5.1h-0.9V0h-0.1v5.2h0.9L11.5,8.7l1.7,0.1V8.7H11.5z M12.2,11v0.9h-0.8
	v-1.6h-0.9V6.6H9.7V0H9.6v6.7h0.9v3.6h0.9V12h1L12.2,11l0.9,0.1V11H12.2z M8.7,0v3.7H7.8v0.1h0.9L8.7,0L8.7,0z M8.7,5.1v3.7h0.1
	L8.7,5.1L8.7,5.1z M9.7,11.2V7.4H9.6L9.7,11.2l0.8,0.1V13h0.1v-1.8H9.7z M12.3,14.3v-1.6h-0.1L12.3,14.3l0.8,0.1v1.5h-1.7V16h1.8
	v-1.7H12.3z M11.5,14.7v-2.1h-0.1L11.5,14.7l0.8,0.1v0.4h0.1v-0.5H11.5z M10.5,14.9v2.8H9.7v-1.1h-1v4h0.1v-3.9h0.8v1.1h1L10.5,14.9
	L10.5,14.9z M9.7,20.3v-1H9.6L9.7,20.3l0.8,0.1v0.8H9.6v1.1h0.1v-1h0.9v-1H9.7z M13.1,16.6V19h-0.9v1.9h0.9v2.6h0.1v-2.7h-0.9V19
	h0.9L13.1,16.6L13.1,16.6z M12.2,16.9v1.5h-0.9v1.5h0.1v-1.4h0.9L12.2,16.9L12.2,16.9z M12.2,21.8v1.4h-0.8v-0.7h-1v2h0.1v-1.9h0.8
	v0.7h1L12.2,21.8L12.2,21.8z M7.8,0v2.1h0.1L7.8,0L7.8,0z M8.8,13V11H7.9V9.1H7V7.4h0.9V5.2H7.8v2.1H6.9v1.9h0.9v1.8h0.9L8.8,13
	l0.8,0.1v1.8h0.1V13H8.8z M11.4,9.6L11.4,9.6l1.8,0.1V9.6H11.4z M7.8,7.8L7.8,7.8l1.8,0.1V7.8H7.8z M7.9,21.4v-2.8H7V16h0.9v-2.3
	H7.8v2.2H6.9v2.9h0.9L7.9,21.4l0.8,0.1V25h0.1v-3.6H7.9z M7.8,16.6V18h0.1L7.8,16.6L7.8,16.6z M6.1,18c-0.2,0-0.3,0.1-0.3,0.3
	c0,0.2,0.1,0.3,0.3,0.3c0.1,0,0.3-0.1,0.3-0.3C6.3,18.1,6.2,18,6.1,18z M6.1,18.1c0.1,0,0.2,0.1,0.2,0.2c0,0.1-0.1,0.2-0.2,0.2
	c-0.1,0-0.2-0.1-0.2-0.2C5.9,18.1,6,18.1,6.1,18.1z M7.9,18c-0.2,0-0.3,0.1-0.3,0.3c0,0.2,0.1,0.3,0.3,0.3c0.1,0,0.3-0.1,0.3-0.3
	C8.1,18.1,8,18,7.9,18z M7.9,18.1c0.1,0,0.2,0.1,0.2,0.2c0,0.1-0.1,0.2-0.2,0.2c-0.1,0-0.2-0.1-0.2-0.2C7.7,18.1,7.8,18.1,7.9,18.1z
	 M7.9,16c-0.2,0-0.3,0.1-0.3,0.3c0,0.2,0.1,0.3,0.3,0.3c0.1,0,0.3-0.1,0.3-0.3C8.1,16.1,8,16,7.9,16z M7.9,16.1
	c0.1,0,0.2,0.1,0.2,0.2c0,0.1-0.1,0.2-0.2,0.2c-0.1,0-0.2-0.1-0.2-0.2C7.7,16.2,7.8,16.1,7.9,16.1z M14.8,8.4
	c-0.2,0-0.3,0.1-0.3,0.3c0,0.2,0.1,0.3,0.3,0.3c0.2,0,0.3-0.1,0.3-0.3C15.1,8.5,15,8.4,14.8,8.4z M14.8,8.5c0.1,0,0.2,0.1,0.2,0.2
	c0,0.1-0.1,0.2-0.2,0.2c-0.1,0-0.2-0.1-0.2-0.2C14.7,8.6,14.7,8.5,14.8,8.5z M14.8,6.5c-0.2,0-0.3,0.1-0.3,0.3
	c0,0.2,0.1,0.3,0.3,0.3c0.2,0,0.3-0.1,0.3-0.3C15.1,6.6,15,6.5,14.8,6.5z M14.8,6.6c0.1,0,0.2,0.1,0.2,0.2c0,0.1-0.1,0.2-0.2,0.2
	c-0.1,0-0.2-0.1-0.2-0.2C14.7,6.7,14.7,6.6,14.8,6.6z M21.8,6.5c-0.2,0-0.3,0.1-0.3,0.3c0,0.2,0.1,0.3,0.3,0.3
	c0.1,0,0.3-0.1,0.3-0.3C22.1,6.6,22,6.5,21.8,6.5z M21.8,6.6c0.1,0,0.2,0.1,0.2,0.2c0,0.1-0.1,0.2-0.2,0.2c-0.1,0-0.2-0.1-0.2-0.2
	C21.6,6.7,21.7,6.6,21.8,6.6z M21.8,8.4c-0.2,0-0.3,0.1-0.3,0.3c0,0.2,0.1,0.3,0.3,0.3c0.1,0,0.3-0.1,0.3-0.3
	C22.1,8.5,22,8.4,21.8,8.4z M21.8,8.5c0.1,0,0.2,0.1,0.2,0.2c0,0.1-0.1,0.2-0.2,0.2c-0.1,0-0.2-0.1-0.2-0.2
	C21.6,8.6,21.7,8.5,21.8,8.5z M6.1,16c-0.2,0-0.3,0.1-0.3,0.3c0,0.2,0.1,0.3,0.3,0.3c0.1,0,0.3-0.1,0.3-0.3C6.3,16.1,6.2,16,6.1,16z
	 M6.1,16.1c0.1,0,0.2,0.1,0.2,0.2c0,0.1-0.1,0.2-0.2,0.2c-0.1,0-0.2-0.1-0.2-0.2C5.9,16.2,6,16.1,6.1,16.1z"/>
</svg>
