<?xml version="1.0" encoding="utf-8"?>
<!-- Generator: Adobe Illustrator 26.3.1, SVG Export Plug-In . SVG Version: 6.00 Build 0)  -->
<svg version="1.1" id="design" xmlns="http://www.w3.org/2000/svg" xmlns:xlink="http://www.w3.org/1999/xlink" x="0px" y="0px"
	 viewBox="0 0 3724 2100" style="enable-background:new 0 0 3724 2100;" xml:space="preserve">
<style type="text/css">
	.st0{opacity:0.6;}
	.st1{opacity:0.5;fill:#AED6F0;enable-background:new    ;}
	.st2{fill:#AED6F0;}
	.st3{opacity:0.4;}
	.st4{fill:none;stroke:#AED6F0;stroke-width:3;stroke-miterlimit:10;}
	.st5{fill:none;stroke:#AED6F0;stroke-width:1.9999;stroke-miterlimit:9.9996;}
	.st6{fill:none;stroke:#AED6F0;stroke-width:2;stroke-miterlimit:9.9999;}
	.st7{fill:none;stroke:#AED6F0;stroke-width:4.3916;stroke-linecap:round;stroke-linejoin:round;stroke-miterlimit:10;}
	.st8{fill:none;stroke:#AED6F0;stroke-width:6;stroke-linecap:round;stroke-linejoin:round;stroke-miterlimit:10;}
</style>
<g id="liquid_shapes" class="st0">
	<g id="left">
		<path class="st1" d="M1300.6,0c-19.6,151.4-92.5,292-253.2,334.1c-139.8,36.6-284.5-20.2-426.6-46.3
			c-142.1-26.2-319.2-3.9-382.7,125.8c-50.7,103.5-4.4,227.6,55.1,326.3c59.5,98.6,134.5,195.4,144.1,310.2
			c13.5,161.4-113.1,308.2-262.3,371.2c-56.2,23.7-115.2,37.4-175,41.9V0H1300.6z"/>
		<path class="st2" d="M877.5,285.4c-6.1,140.9-123.3,278.8-264.3,275.7C467,557.9,346.8,417.3,200.9,426.8
			C130.8,431.4,68,470.6,0,488.4V0h769.9C837.7,81.1,882,181,877.5,285.4z"/>
	</g>
	<g id="right">
		<path class="st1" d="M3724,501.6V2100H2565.3c3.9-127.7,66.8-253.7,180.2-309.9c204.8-101.7,494.2,37.5,660.4-119.6
			c120-113.5,92.4-310.1,38.6-466.3c-53.8-156.2-125.2-326.3-64.3-479.8C3431.6,594.3,3573.9,517.8,3724,501.6z"/>
		<path class="st2" d="M3724,1126.4V2100h-765.7c7.5-10.2,14.5-21.1,21-33c62.7-115.7,61.6-263.5-2.8-378.3
			c-32.2-57.3-78.4-105.8-111.9-162.3c-33.5-56.6-53.6-127.5-27.8-188c37.5-87.7,154.4-113.1,246.8-89.5
			c92.4,23.6,171.9,81.8,260.2,117.6c88.4,35.9,200.6,44.5,269.6-21.3c48.2-45.9,62.8-115.7,88.6-177.1
			C3708,1154,3715.4,1139.8,3724,1126.4z"/>
	</g>
	<g id="bottom">
		<path class="st1" d="M2026.6,2100H15.1c134.9-183,374.4-282.9,599.3-249.7c178.8,26.4,348.1,129.4,527.6,108.8
			c145.5-16.8,267.8-111.7,397.4-180s298.4-107.8,415.3-19.6C2055.4,1835.4,2071.4,1979.5,2026.6,2100z"/>
		<path class="st2" d="M1377.1,2100H0v-313c182-11.1,309.5-61.9,395.2-109.8c170.2-94.9,280.7-236.6,416.8-204.7
			c44.9,10.5,77.9,36.3,83.1,40.8c58.3,50,71.4,130.1,96.7,210.3c38.7,122.5,114.4,225.3,227.5,287.8
			C1276.6,2043,1333.8,2064.9,1377.1,2100z"/>
	</g>
	<g id="top">
		<path class="st1" d="M3596.9,0c-6.6,59.2-25.8,116.8-58.1,167.1c-87.1,135.5-262.6,207.5-419.8,172.2
			c-136.1-30.6-246.8-130.2-379.1-174.7c-57-19.2-116-27.5-175.9-29.8c-92.4-3.4-186.9,7.8-279.4,16.4
			C2145,164.3,1803.2,164.9,1726.2,0H3596.9z"/>
		<path class="st2" d="M3280.4,0c-14.9,10.7-30.7,19.8-47.2,27.1c-95.1,42-203.3,37.4-307.2,33.1s-212.7-6.5-305.8,39.7
			c-20,9.9-38.6,21.7-56.3,34.9c-96.4,72.1-163.1,185.2-264,254.1c-137.7,94.1-335.7,88.5-467.9-13
			C1712.8,284.3,1679.3,142.2,1667.1,0H3280.4z"/>
	</g>
</g>
<g id="ornaments" class="st3">
	<g id="circle_line">
		<circle class="st4" cx="1488.3" cy="174.1" r="84.3"/>
		
			<ellipse transform="matrix(0.2298 -0.9732 0.9732 0.2298 1476.2025 3871.5847)" class="st5" cx="3184.2" cy="1003.1" rx="33.9" ry="33.9"/>
		<ellipse class="st6" cx="543.9" cy="1361.5" rx="46.5" ry="46.5"/>
	</g>
	<g id="circle_shape">
		<ellipse class="st2" cx="877.8" cy="693.3" rx="74.2" ry="74.2"/>
		
			<ellipse transform="matrix(0.7071 -0.7071 0.7071 0.7071 783.0604 2346.4993)" class="st2" cx="3224" cy="228" rx="39.9" ry="39.9"/>
		<circle class="st2" cx="2341.9" cy="1858.2" r="131.8"/>
	</g>
	<g id="plus">
		<g>
			<line class="st7" x1="2518.3" y1="513.5" x2="2518.3" y2="578.8"/>
			<line class="st7" x1="2485.7" y1="546.2" x2="2550.9" y2="546.2"/>
		</g>
		<g>
			<line class="st8" x1="1256" y1="1543.6" x2="1256" y2="1632.7"/>
			<line class="st8" x1="1211.4" y1="1588.1" x2="1300.6" y2="1588.1"/>
		</g>
	</g>
</g>
<g id="dot" class="st3">
	<g>
		<circle class="st2" cx="3627.9" cy="257.4" r="14.6"/>
		<circle class="st2" cx="3627.9" cy="398.8" r="14.6"/>
		<circle class="st2" cx="3627.9" cy="540.1" r="14.6"/>
		<circle class="st2" cx="3627.9" cy="681.5" r="14.6"/>
		<circle class="st2" cx="3627.9" cy="822.9" r="14.6"/>
		<circle class="st2" cx="3627.9" cy="964.3" r="14.6"/>
	</g>
	<g>
		<circle class="st2" cx="96.1" cy="796.1" r="14.6"/>
		<circle class="st2" cx="96.1" cy="937.4" r="14.6"/>
		<circle class="st2" cx="96.1" cy="1078.8" r="14.6"/>
		<circle class="st2" cx="96.1" cy="1220.2" r="14.6"/>
		
			<ellipse transform="matrix(0.1616 -0.9869 0.9869 0.1616 -1263.09 1236.3696)" class="st2" cx="96.1" cy="1361.6" rx="14.6" ry="14.6"/>
		<circle class="st2" cx="96.1" cy="1502.9" r="14.6"/>
	</g>
</g>
</svg>
